<?xml version="1.0" encoding="UTF-8"?>
<!-- Generator: Adobe Illustrator 17.1.0, SVG Export Plug-In . SVG Version: 6.00 Build 0)  -->
<!DOCTYPE svg PUBLIC "-//W3C//DTD SVG 1.1//EN" "http://www.w3.org/Graphics/SVG/1.1/DTD/svg11.dtd">
<svg version="1.1" id="Ebene_1" xmlns="http://www.w3.org/2000/svg" xmlns:xlink="http://www.w3.org/1999/xlink" x="0px" y="0px" viewBox="0 0 141.7 141.7" enable-background="new 0 0 141.7 141.7" xml:space="preserve">
<g>
	<polygon fill="#FFFFFF" points="113.8,0.8 27.1,0.8 15.3,14.5 15.3,127.5 27.1,141.2 115.2,141.2 127,127.5 127,14.5 115.2,0.8    113.8,0.8  "/>
	<path d="M113.8,4H28.5L18.4,15.7l0,110.7l10.1,11.8h85.3l10.1-11.7V15.7L113.8,4L113.8,4z M120.8,125.2c-1.2,1.4-7,8.1-8.4,9.8   c-2.7,0-79.6,0-82.4,0c-1.4-1.7-7.2-8.4-8.4-9.8c0-2.2,0-106.1,0-108.4c1.2-1.4,7-8.1,8.4-9.8c2.7,0,79.7,0,82.4,0   c1.4,1.6,7.2,8.4,8.4,9.7C120.8,19.1,120.8,123,120.8,125.2L120.8,125.2z"/>
	<path d="M49.4,131h-3.7v-11.7h-4.6v-2.8c2.6,0,4.9-0.8,5.3-3.6h2.9V131L49.4,131z"/>
	<path d="M64.3,121.2c1.7-0.6,2.6-2.1,2.6-3.9c0-1.8-1.6-4.9-6.1-4.9c-2.9,0-6.1,1.7-6.1,4.9c0,1.8,0.9,3.2,2.7,3.7v0   c-2.1,0.5-3.4,2.1-3.4,4.4c0,3.9,3.4,5.7,6.9,5.7c3.4,0,6.8-1.9,6.8-5.7C67.7,123.4,66.4,121.7,64.3,121.2z M60.9,115.3   c2.3,0,2.7,1.6,2.7,2.5c0,1.6-1.2,2.4-2.7,2.4c-1.5,0-2.8-0.8-2.8-2.4C58.1,116.2,59.4,115.3,60.9,115.3z M60.9,128.6   c-1.8,0-3.2-1.2-3.2-3.1c0-1.9,1.4-2.9,3.2-2.9c1.7,0,3.1,1.2,3.1,2.9C64,127.4,62.7,128.6,60.9,128.6z"/>
	<path d="M82.7,120.7c-1-1.1-2.6-1.9-4.2-1.9c-1.8,0-3.1,0.6-4.1,2l-0.1,0c0.1-2,0.8-5.5,3.5-5.5c1.3,0,2.2,1,2.4,2.3h3.5   c-0.4-3.2-2.7-5-5.9-5c-5.1,0-7.1,5-7.1,9.5c0,4.6,1.5,9.4,7,9.4c3.8,0,6.3-2.9,6.3-6.6C84.1,123.3,83.6,121.8,82.7,120.7z    M77.6,128.3c-1.8,0-2.9-1.7-2.9-3.4c0-1.8,1-3.4,2.9-3.4c1.9,0,2.8,1.7,2.8,3.4C80.4,126.7,79.4,128.3,77.6,128.3z"/>
	<path d="M94.2,112.5c-3.6,0-6.6,2.3-6.6,9.3c0,7.2,3.1,9.5,6.6,9.5c3.6,0,6.7-2.3,6.7-9.5C100.9,114.8,97.9,112.5,94.2,112.5z    M94.2,128.3c-3,0-3-4.4-3-6.5c0-1.9,0-6.3,3-6.3c3,0,3,4.4,3,6.3C97.2,123.9,97.2,128.3,94.2,128.3z"/>
	<path d="M111.9,40.4c-4.7-3.9-9.4-4.6-13.6-3.3c-7.1-13.1,0.6-18.7,4.2-18.5c3.4,0.1,3.8,1.8,3.8,1.8c-2.4,5-1.1,7.2-0.1,10   c0.7,2.3-1.2,4-1.2,4c2.2-0.2,3.3-2.3,3.3-2.3c0.5,1.1-0.1,3.7-0.1,3.7c1.5-0.7,2.1-3,2.1-3c0.5,2.3,2.3,3.6,2.3,3.6   s-0.4-2.1-0.1-3.9c0.3-1.9,1.6-7.8-0.9-11.6C104.4,10,85,17.2,95.6,38C89.7,41.1,86.1,48.3,88,55c1.3,4.7,5.4,9.2,13.5,11.6   c-2.8,4.4-7.7,5.5-9.9,5.6c-1.6,0-2.2-0.9-2.4-1.5c0-0.1,0-0.2-0.1-0.2c-1.8-5.5-8.2-11.1-8.2-11.1c1.9-2.3,1.5-3.2,1.5-3.2   c-4.5,2-5.2,0.3-4.1-1.2h0c0.4-0.5,1-1,1.7-1.3c2.9-1.3,2.8-2.9,2.8-2.9c-4.7,0.5-2.8-2.7-0.3-4.3c2.5-1.6,2.9-2.6,2.9-2.6   c-3.6,0.4-4.1-2.4,0.1-4.9c4.2-2.5,3.6-3.4,3.6-3.4s-0.8,0.2-1.6,0.1c-1.4-0.2-1.2-0.9-1.1-2c0.4-4.8-0.9-7.3-0.9-7.3   c2.7-2,2.3-3.2,2.3-3.2c-2.1,0.7-3.7-0.4-2.7-2.5c1-2.2,1.5-4.9,1.5-4.9c-1.7-0.7-4.4,0.1-4.4,0.1c-0.7-2.1-1.6-2.4-1.6-2.4   c-0.4,0.7-1.4,1.5-1.4,1.5c-7.8-3.6-10.7,1.4-11.3,2c-0.5,0.6-1.3,0.6-1.9,0.8c-2.8,1-2.7,2.4-3.2,3c-0.3,0.3-1.6,0.8-1.5,1.4   c0.1,1.6,1.2,1.4,1.7,2.6c0.6,1.6,0.8,1.5,1.5,1.7c1.3,0.4,2.3-0.7,4.4-0.8c1.1-0.1,2.6,1.2,2.3,2.6c-0.5-0.2-1.1-0.4-1.8-0.6   c-4.3-1.5-7.2,1.3-10.7,1.4c-5.5,0.1-6.4-3.2-5.6-5c0.5-1,1.4-1.4,1.1-1.9c-0.8-1.1-4.6,1.7-3.2,5.3c1.8,4.6,8.2,3.6,13.5,1.5   c2.1-0.8,4.4-0.2,6.1,0.6c-1.7,2-3.4,0.4-4.4,0c-1.1-0.4-2.5,1.1-1.3,2.1c1,0.8,2.9,1.2,2.6,2c0,0,0.1,0.6-3.4,0.1   c-4.6-0.6-7.4,0.8-7.4,0.8C46,31.1,42.4,19.5,42.8,19c0.4-0.6,1.8-3.3-1.2-5c-0.3-0.2-0.5-0.3-0.8-0.4c-1.1-2-3.7-0.9-3.7-0.9   c0.8,0.3,1.2,0.4,1.7,1.3c-0.8,0.7-1,1.8-1,1.8s-1.2-2.8-4.1-1.9c-3.6,1.1-3.7,5-3.7,5s1.7-2.1,2.7-1.4c0.6,0.4,0.5,1,0.3,1.4   c-1.7,1.4-1.8,2.5-1.4,3.3c-1.1,2.3,0.5,3.4,0.5,3.4c0-1,0.4-1.6,0.8-1.9c0,0,0.1,0.1,0.1,0.1c1.1,1,2.6,1.2,2.6,1.2   s-0.4,0.3-0.6,1c-0.1,0.4,0.4,1.1-0.1,1.6c-0.5,0.4-1.4-0.5-1.4-0.5c0.3,3.2,3.3,2.4,3.9,2c0.2-0.1,0.7-0.5,1.2-0.7   c0.5-0.2,0.9-0.3,1.2,0c1.1,1.1-1.7,2.1,0.4,4.3c0,0-0.2-0.8,1.2-0.9c0.8,0,1.5,0.1,2.7,1.9c1.1,1.8,2.8,5.2,1.6,6.2   c-0.3,0.2-0.6,0.3-1,0.3c-1.2,0-2.6-0.9-2.6-0.9s0.3,3.6,4.4,4.5c-2.3,0.8-4.3-0.2-4.3-0.2c0.6,2.5,2.8,3.3,2.8,3.3   c-1.4,0.8-3.1,3-3.1,3c-0.4-0.6-2.1-0.5-2.1-0.5c-0.7-3-2.8-3.1-3.5-3.2c-0.4-0.1-0.7,0.1-0.9,0.1c-0.2-0.5-0.5-0.9-1.1-1.2   c-2.2-1.2-3.6,1-3.6,1s0.9-0.1,1.4,0c0.8,0.1,2,1.8-0.9,2.1c-1.9,0.2-3.2,1.5-3,2.8c-1.6,1.1-1.8,2.9-1.4,3.9l0.1,0l-0.1,0   c0,0,0,0.1,0,0.1c0,0,0,0,0.1-0.1h0c0.3-0.4,1.3-1.8,2.3-1.4c0.1,0.1,0.6,0.4,0.7,0.4c0.9,0.4,1.2,0.3,1.2,0.3   c-0.2,0.2-0.4,0.4-0.6,0.6h0c-0.9,1.2-0.7,2.2-0.5,2.7c0.2,0.6,0.5,0.8,0.9,1.1c-0.1,0.3-0.5,2.3,1.8,3.4c0,0-0.3-0.3-0.2-1.4   c0-0.5,0.3-1.1,1-1.1c1.3,0.1,2.1-0.7,2.1-0.7c0.7-0.6,1.3-0.3,0.6,0.9c-0.7,1.2,0.8,1.9,0.8,1.9c-0.5,1.1-1.5,1.3-1.5,1.3   s1.7,1.2,3.8-0.7c2-1.9,1.4-5.3,1.4-5.3c1.6,0.9,4.1,0.8,4.1,0.8c1.3,3,4.1,2.8,4.1,2.8c-1-1-2.2-3.3-0.9-4.1   c1.4-0.9,2.2,2.4,3.8,4.6c1.6,2.2,2.9,1.9,2.9,1.9c-2.4-3.1-0.2-3.5-0.7-3.3c0.6-0.2,1,0.2,1.7,1.5c1,1.8,1.9,1.3,1.9,1.3   s-0.3-0.3-0.5-1.5c-0.4-3.2,1.2-1.6,2-0.1c0.3,0.7,1.5,1.7,2.9,2.6c1.4,0.9,3.2,1.6,4.9,1.8c3.8,0.5,4,1.2,4,1.2   c-1.4,0.4-2.1,1.6-2.1,1.6c2.5,0.1,4.6,0.4,5.3,0.7c0.7,0.2,5.2,2.4-0.8,2.1c-2.1-0.1-3.8,0.1-5.1,0.4c-1.1,0.2-1.9,0.5-2.3,0.7   c-1.1,0.5-1.6,1.3-4.1,0.6c-2-0.6-2.6-0.6-4.9-0.5c-2.3,0.1-9.1,3.2-10.8,1.8c-1.6-1.4,2.1-3.7,2.1-3.7c-3.7-1.3-6.4,2.1-6.4,2.1   c-5.4-4.7-14.4-2.5-13,5.4c0.1,0.3,0.1,0.7,0.2,0.9v0c1.2,3.8,5,3.4,5,3.4c-0.6-0.6-2-1.4-2.4-3.4v0c0-0.2-0.1-0.3-0.1-0.5   c-0.3-2.8,2.2-3.5,2.2-2.2c0,1.3,0.4,1.3,0.4,1.3c0.5-2.1,1.2-2.7,3.6-2.3c1.5,0.3,2,1.6,2,1.6s-1.6,0.5-2.5,2.1v0   c-0.4,0.6-0.6,1.5-0.5,2.5c0.1,2.9,3.6,2.9,3.6,2.9s-2.3-1.8-1.1-3.6c1.2-1.8,2.6-1.3,3.4,0c0.8,1.2,1.6,1.2,1.6,1.2   s-0.9,0.8-0.7,2.7c0.3,2.4,2.2,2.5,2.2,2.5c-1.1-3.4,2.1-3.2,2.1-3.2c0.7,4.4,3.3,4.2,4.9,4.4c1.7,0.2,2.2,1.2,1.2,2.1   c-0.8,0.7-2.9,0.7-5.1,4.7c-3.6,6.3-5.1,1.6-5.2,1c-0.1-0.6-0.6-1.1-0.6-1.1c2.9-1.8,0.8-5.5-2.9-6.1c-0.8-0.1-1.5-0.1-2,0.1   c-0.5,0.1-1.2,0.6-1.5,0.8c-0.3,0-0.8,0.1-0.9,0.1c-2.3,0.4-2.4,2.7-2.4,2.7c1-1,2.1-0.6,2.7-0.6c0.2,0.9,1,1.6,1.9,1.7   c0.4,0.3,0.2,0.6-0.1,0.7c-0.3,0-1.1-0.5-2.3-0.1c-1.5,0.5-2.1,1.4-2,3c-0.5,0.5-1.5,1.3-1.3,2.6c0.2,1.5,1.6,2.2,1.6,2.2   s-0.5-2.6,0.8-2.4c0.3,0.4,0.8,0.4,1.2,0.5c1,0.2,1.3-0.7,1.9,0c0.3,0.3,0.7,1.1,0.7,1.1s-1.3,0.6-1.8,1.8c-1.5,3,0.8,4.3,0.8,4.3   s-0.2-1.1,0.2-2c0.8-2,1.5-0.6,2.7-0.5c1.3,0.1,2.2-1.2,2.2-1.2s0.2,0.4,0.8,0.9c0.6,0.5,1.8,0.3,1.8,0.3s-0.5,0.4-0.5,1.1   c0,0.8,0.2,1.3,0.5,1.8c-0.3,0.4-0.9,1.1-2,1c0,0,1.8,1.5,4,0c0.9,0.1,1.9-0.1,2.4-0.4c1.4-0.9,0.6-3,0.5-4.6   c-0.1-1.6,4.8-2.9,5.7-3.2c0.9-0.3,1.7-1.1,1.7-1.1c1.6,3.2,3.8,3,3.8,3c-0.7-1.1-0.2-2.3-0.2-2.3c2.8,0.8,4.3-0.3,4.3-0.3   c-2.3-0.8-2.4-3.4-0.6-3.9c2.1-0.6,2.5-2.1,2.5-2.1c0.9,0.5,1.6,0.3,1.6,0.3s-0.4-0.3-0.3-1.1c0.5-2.9-1.3-3.9-2.2-4.2   c-1-0.3-2.3-3.1,0.6-6.7c2-2.5,4.9-3,6.9-3c1.2,0,2,0.2,2,0.2c-0.3,0.4-0.6,0.9-0.9,1.3c-2.4,4.1-0.4,7.3-0.4,7.3   c-2.2,1.8-1.6,3.8-1.6,3.8c1-0.8,2.1-0.8,2.1-0.8c-2.6,5.7,2.7,8.1,2.7,8.1s-1.1-5,2.1-3.8c3.3,1.3,3.8,0.7,3.8,0.7   c-0.9-0.7-0.5-1.4-0.5-1.4c0.7-0.1,1.4-0.2,2.1-0.4c4.9-1.3,7.2-4.5,7.2-4.5c0.1,0.7,0.1,1.1,1.6,3.8c1.5,2.7,0.8,6.4-0.9,7.1   c-1.2,0.4-2,0.5-2.6,0.4c-1.6-0.3-1.9-1.4-3.3-2.3c-1.9-1.1-4-0.3-4.8,1.9c-0.2,0.7-0.2,0.7-0.3,1.2c-1.4,0.8-1.7,3-0.2,4.7   c0,0-0.2-1.7,1-2.3c1,0.8,2.5,0.7,2.5,0.7s-0.2,0.7-0.5,0.9c-2.6,2.5,0.7,4.9,0.7,4.9c-0.4-1.5,0.2-2.1,0.2-2.1s1,1.9,3.1,1.4   c2.1-0.5,1.6-3.5,1.6-3.5c1.4-0.3,1.6,0.9,2.4,1.9c0.6,0.8,1.3,1.1,2,1.1c0.5,0.7,1.3,1.3,2.9,1.3c0.7,0,0.7-0.3,0.7-0.3   s-0.9-0.2-1.5-1.4c0.7-0.5,1.6-2.2,0.6-3.6c-1.1-1.5,0.3-1.5,0.9-0.9c0.6,0.7,1,1.1,1.4,1.5c0.7,0.7,2,0.5,2,0.5   c0,1.3-1.3,2.5-1.3,2.5c3.4-0.1,3.2-3.1,3.2-3.1c1-0.4,2.7-2.3,1.9-4.1c-0.8-1.8-4.2-1-4.2-1c1.8-2.3,1.9-4.8,1.9-4.8   c1,0,2.1,2.1,2.1,2.1c1-2.1-0.2-4-0.2-4c1.2-0.4,1.4-1.7,1.4-1.7s-2.3-0.1-2-1.5c0.3-1.5,2.7-0.5,2.7-0.5c-0.1-2-2.1-1.8-1.9-3.1   c0.2-1.5,2.6-0.5,2.6-0.5s0.6-2-1.6-3.3c-3.8-2.3-1.6-4.2,0.2-3.8c1.9,0.4,3.1,3.3,3.1,3.3s1-1.9-0.3-3.8v0c-0.3-0.4-0.6-0.7-1-1.1   c-4.1-3.3-8,0.8-8,0.8c-2.4-2.1-4.2-1-6.3-0.4c-4,1.1-6.4-2-1.1-3.2c9.1-2.1,14.9-8.8,12.8-19.9v0c-0.8-4.5-2.9-9.7-6.6-15.6   c0,0,0,0,0-0.1c3-0.7,6.4-0.1,9.8,2.5l0.3,0.4c-1.6,2.8-1.3,5.7-0.6,8.4c-0.3,1.3-0.6,2.9-0.4,4.4h0c0,0,0,0.1,0,0.1   c0,0,0,0,0.1-0.1l0,0l0,0c0.3-0.4,1.6-2.2,1.2-0.8c-0.1,0.3-0.1,0.5-0.1,0.8v0c-0.2,1.2,0,2.2,0.2,3.1c0.1,0.5,0.8-2.6,1.8-1.5   l0.2,0.2c1.2,1.9,1.6,2.6,1.6,2.6c0.3,0.5,0.6,0,0.5-0.2c-0.3-1.7-0.3-2.4,0.4-4.2h0c0,0,0,0,0-0.1C114.8,53.7,119,46.3,111.9,40.4   z M72.1,20.9c-0.6-0.4-1.8-0.7-1.8-0.7c-0.2-0.1-0.3-0.4-0.1-0.6c0.2-0.1,0.5-0.1,0.8-0.3c0.6-0.3,1.1-0.6,1.6-0.1   c0.5,0.5,0.3,0.8,0.6,1.6C73.4,21.3,73.1,21.5,72.1,20.9z M103.1,55L103.1,55c0.8,3.7,0.5,6.7-0.3,9.1c-6.9-1.8-10.6-5.3-12.1-9.1   v0c-2.2-5.7,0.9-12.2,6-14.8c0.1,0.2,0.4,0.3,0.4,0.5C100.4,46.4,102.3,51.1,103.1,55z"/>
</g>
</svg>