<?xml version="1.0" encoding="utf-8"?>
<!-- Generator: Adobe Illustrator 15.1.0, SVG Export Plug-In . SVG Version: 6.00 Build 0)  -->
<!DOCTYPE svg PUBLIC "-//W3C//DTD SVG 1.1//EN" "http://www.w3.org/Graphics/SVG/1.1/DTD/svg11.dtd">
<svg version="1.1" id="Ebene_1" xmlns="http://www.w3.org/2000/svg" xmlns:xlink="http://www.w3.org/1999/xlink" x="0px" y="0px"
	 width="141.733px" height="141.732px" viewBox="0 0 141.733 141.732" enable-background="new 0 0 141.733 141.732"
	 xml:space="preserve">
<g>
	<circle id="bg_circle" fill="#FFFFFF" cx="70.866" cy="70.866" r="70.866"/>
	<path fill="#010101" d="M25.836,71.091c0-24.975,20.318-45.294,45.293-45.294c24.976,0,45.294,20.318,45.294,45.294
		c0,24.975-20.318,45.294-45.294,45.294C46.155,116.385,25.836,96.065,25.836,71.091z M24.295,71.091
		c0,25.824,21.009,46.836,46.835,46.836c25.826,0,46.836-21.01,46.836-46.836c0-25.824-21.01-46.836-46.836-46.836
		C45.305,24.255,24.295,45.266,24.295,71.091z"/>
	<path fill="#005B9E" d="M113.345,29.154c0.299-0.294,0.589-0.639,0.818-0.983h0.004c0.285-0.421,0.478-0.838,0.478-1.157
		c0-1.345-1.252-2.225-2.504-2.225c-0.461,0-1.152,0.195-1.447,0.377c-1.453-4.046-5.852-10.488-10.739-13.104
		c-4.216-2.249-9.428-2.742-13.549-3.646C84.02,7.884,80.34,5.52,79.876,5.53h-0.795V6.18C79.44,7.673,82,8.465,82.715,9.553
		c0.534,0.857,0.943,1.988,1.756,2.729c1.364,1.25,3.17,2.246,4.26,3.265c4.726,4.377,10.205,4.574,14.431,7.08
		c-6.681-1.379-7.094-2.47-12.328-2.47c-1.554,0-2.794,0.048-4.544-0.122c0.163-0.089,0.373-0.154,0.348-0.275
		c1.788,0.028,3.479-0.162,5.029-0.618c-1.732-0.647-3.485-0.783-5.058-1.454c-1.045-0.441-1.848-1.398-2.636-1.375
		c-2.153,0.069-5.312-1.669-7.135-3.075l1.943-0.121c2.513,0.484,5.32,1.527,7.687,1.798c-1.808-1.592-4.089-2.778-4.301-4.937
		c-0.827,0.368-1.713,1.1-2.178,1.1c-0.462,0-0.653-0.323-2.878-0.186c-0.763,0.048-1.64,0.557-2.403,0.557
		c-5.931,0.162-6.116,0.186-6.579,0.186c-0.462,0-1.753-0.648-2.494-0.695c-1.298-0.117-2.779,0.186-4.076,0.068
		c-0.625-0.045-1.263-0.847-1.724-1.027c-0.091,2.441-3.163,3.854-4.301,4.929c2.866,0.106,5.646-1.792,8.426-1.792
		c0.464,0,0.885-0.01,1.205,0.105c-2.402,2.12-5.051,2.538-7.716,3.28c-2.361,0.649-4.854,2.013-6.921,2.432
		c1.427,1.069,3.92,0.39,5.002,1.303c-0.322,0.115-0.654-0.334-7.879-0.08c-1.969,0.07-7.897,2.595-8.521,2.595
		c-0.463,0-0.279-0.094-0.279-0.094c6.113-3.229,13.132-3.991,19.364-11.055c0.555-0.626,0.714-1.734,1.364-2.408
		c0.485-0.51,3.36-2.01,3.35-3.053V5.535h-0.8c-0.463-0.017-3.665,1.934-5.426,2.512C55.13,8.557,53.418,8.9,51.727,8.97
		c-6.115,0.254-16.25,6.059-19.238,13.84c-0.372,0.973-0.652,1.821-1.163,2.353c-0.505-0.184-0.999-0.374-1.46-0.374
		c-0.718,0-2.502,0.556-2.502,2.039c0,0.054,0.313,0.741,0.644,1.344h-0.004c0.228,0.414,0.472,0.805,0.655,0.976
		c-1.574,1.719-2.537,3.867-3.303,5.441c0.857-0.553,1.575-0.54,2.279-0.815c0.392-0.957,1.025-2.325,2.216-3.055
		c0.642,0.669,1.518,1.298,1.866,1.298c2.904,0,0.942-2.632,1.919-3.848h0.001c0.292-0.363,0.849-0.598,1.878-0.598l8.523,0.37
		c5.791,0,11.406-1.014,17.938-5.901c0.58-0.439,1.478-0.125,2.011-0.287c1.136-0.37,2.225-0.857,3.4-1.305
		c-0.597-0.459-1.359-0.984-1.938-1.03c-3.335-0.301-4.827-0.371-6.038-0.312c0.721-0.64,1.22-1.29,1.799-1.5
		c2.548-0.927,9.048-5.23,9.79-5.23c0.23,0,10.051,5.227,11.406,6.726c-1.769-0.054-2.888,0.153-5.851,0.316
		c-0.557,0.022-1.466,0.671-1.749,1.241c1.358,0.424,2.652,0.863,3.949,1.28c0.347,0.116,1.006-0.138,1.262,0.094
		c2.132,2.017,9.838,5.723,12.686,5.723h12.555c0.043,0,2.71-0.721,3.21,0.413h0.003c0.046,0.117,0.055,0.266,0.055,0.42
		c0,0.998-0.65,3.429,1.759,3.429c0.626,0,1.581-1.055,1.866-1.482c1.319,1.092,1.73,2.162,2.146,3.31
		c0.778,0.253,1.478-0.122,2.337,0.755C115.981,32.679,114.464,30.785,113.345,29.154z M39.495,17.932
		c0.633-0.634,0.868-1.15,1.502-1.784c1.854-1.854,3.356-2.534,5.89-3.262c3.098-0.891,4.977-0.821,7.862-2.252
		c-1.876,1.877-2.981,2.981-5.234,4.39c-1.171,0.726-1.947,0.985-3.192,1.595c-1.571,0.775-2.369,1.409-4.012,1.971
		c-1.994,0.682-3.097,1.151-5.045,1.948C37.945,19.387,38.556,18.871,39.495,17.932z M54.558,23.768
		c-0.657,0.259-1.009,0.634-1.688,0.846c-2.277,0.705-3.709,0.822-6.103,0.822c-2.98,0-4.669,0.07-7.651,0.093
		c-0.304-0.093-0.916,0.022-0.82-0.282c0.07-0.258,0.422-0.234,0.655-0.353c0.446-0.21,0.729-0.375,1.199-0.562
		c1.572-0.681,2.559-1.033,4.224-1.315c3.004-0.517,4.764-0.657,7.814-0.657c1.737,0,4.025-0.336,5.762-0.336
		C57.434,22.797,55.45,23.416,54.558,23.768z M96.535,26.078c-3.027,0-4.743-0.845-7.534-2.064
		c-1.457-0.634-2.348-0.797-3.827-1.385l0.565-0.282c1.782-0.022,2.814-0.093,4.6-0.093c2.954,0,4.601,0.562,7.461,1.384
		c1.854,0.54,3.828,1.487,5.704,1.957C101.297,25.664,98.739,26.078,96.535,26.078z M99.972,19.169
		c-1.83-0.752-2.677-1.596-4.506-2.348c-2.111-0.87-3.379-1.337-5.139-2.816c-1.102-0.916-1.876-1.361-2.606-2.605
		c4.225,1.76,7.064,1.477,11.219,3.543c2.229,1.103,2.793,2.629,4.318,4.6c0.469,0.633,0.82,0.962,1.196,1.667
		C103.047,19.873,101.756,19.896,99.972,19.169z"/>
	<path fill="#005B9E" d="M124.487,50.803c-0.868-3.473-2.042-5.35-4.389-8.048c-1.477-1.713-2.299-2.699-4.223-3.919
		c-1.715-1.08-2.675-1.738-4.484-2.629c0,0.188,0.283,1.244,0.565,1.69c0.397,0.61,0.61,1.056,1.03,1.666
		c1.315,1.9,2.279,2.768,3.921,4.411C119.56,46.626,124.487,50.803,124.487,50.803L124.487,50.803z M116.745,21.646
		c6.262,7.673,13.836,16.511,13.836,24.733c0,1.853,0.184,2.502,0.184,2.964c0,1.206-1.111,5.744-1.111,6.116
		c0,0.554,2.41,0.971,2.41,2.501c0,1.019-1.17,1.498-2.062,1.867c-0.165,0.657-0.902,1.838-0.902,2.302
		c0,0.463,0.554,1.574,0.554,2.038c0,0.463-1.129,2.648-2.152,3.981c-0.256-1.933-0.068-3.787-0.239-5.596
		c-1.424-0.688-2.794-0.957-2.794-2.277c0-0.463,1.48-3.336,1.48-3.799c0-1.183-5.656-6.177-6.074-6.456
		c-3.058-2.038-8.135-6.099-10.173-9.526c-1.227-2.085-1.486-4.866-3.917-6.972c-0.533-0.464-2.068-0.604-2.249-1.453
		c0.413-0.228,1.103-0.424,1.566-0.424c3.499,0,9.481,2.982,12.213,4.88c6.741,4.701,10.115,11.498,11.332,17.17
		c0.094-0.32,0.453-0.741,0.453-1.205c0-0.462-1.646-4.201-1.991-6.284c-0.904-5.374-2.781-11.33-7.556-16.971
		c-0.114,0.159-0.09-0.093-0.09,0.371c0,2.733,3.512,8.299,4.42,10.263v0.66c-1.963-1.021-6.76-4.424-6.527-6.763
		c0.021-0.348-0.531-0.523-0.624-0.895c-0.255-0.902-0.605-2.71-0.605-3.173C116.125,29.239,116.312,27.657,116.745,21.646
		L116.745,21.646z"/>
	<path fill="#005B9E" d="M17.162,50.345l-0.211,1.373c2.31-1.462,3.751-3.507,5.682-5.438c2.809-2.808,4.946-3.668,7.141-6.915
		c0.613-0.906,1.474-2.552,1.971-3.547c-3.451,2.281-6.061,3.257-8.899,6.271c-1.054,1.111-1.621,1.903-2.702,2.985
		C18.648,46.563,17.776,48.327,17.162,50.345L17.162,50.345z M25.264,21.832l0.434,7.499c0,4.54-1.596,7.49-7.565,11.188
		c1.458-3.442,3.123-6.959,4.355-10.455v-0.829c-1.86,2.377-3.841,5.627-5.022,8.035c-0.998,2.038-1.523,4.779-2.034,6.724
		c-0.625,2.386-2.335,6.763-2.349,7.226v2.137c0.104-0.029,0.17,0.182,0.266,0.344c0.769-3.222,2.423-6.719,4.136-9.776
		c1.344-2.407,4.822-5.683,7.509-7.582c2.201-1.553,8.416-4.695,11.357-4.695c0.464,0,1.504,0.188,2.317,0.462
		c-4.541,1.203-4.698,6.357-6.946,9.252c-1.504,1.945-3.833,4.206-5.872,5.943c-0.348,0.302-9.789,7.088-9.789,9.172
		c0,0.278,0.571,2.107,1.395,2.862c0.078,0.154,0.087,0.473,0.087,0.936c0,1.088-0.479,1.946-2.638,2.117
		c-0.107,0.201-0.511,1.766-0.193,5.935c-0.43-0.342-2.17-4.369-2.17-4.623c0-0.464,0.37-1.204,0.37-1.668
		c0-2.386-2.967-2.408-2.967-4.262c0-1.413,1.874-1.723,2.601-2.162c-1.298-3.786-1.116-3.676-1.116-6.547
		C11.429,38.481,15.527,33.418,25.264,21.832L25.264,21.832z"/>
	<path fill="#005B9E" d="M13.401,81.849c-0.117-2.698-0.165-3.929-1.033-6.532c-0.398-1.197-0.821-2.184-1.125-3.38
		c-0.916-3.52-0.916-5.741-2.887-8.861l-0.188-0.377c-0.07,0.493-0.286,2.192-0.286,2.685c0,2.981,0.333,3.229,0.333,6.209
		c0,2.698,0.892,4.27,2.393,6.522C11.547,79.548,12.063,80.817,13.401,81.849L13.401,81.849z M14.508,74.455
		c0.098-0.16,0.07-0.467,0.072-2.882c0.811-5.057,2.767-9.399,5.804-14.31c0.648-1.065,1.874-1.965,2.881-2.049
		C22.729,57.336,21.99,60,21.99,60.464s0.812,3.514,0.928,5.368c0.231,3.15,0.185,4.176,0.185,4.638
		c0,4.888-5.33,15.57-4.851,18.045c-1.599-0.563-1.45-3.173-1.45-4.333c0-5.165,2.295-12.621,3.458-17.979v-1.761
		c-2.442,2.503-2.025,6.058-2.79,8.396c-0.301,0.95-0.467,2.14-0.929,3.228c-0.256,0.555-0.85,1.169-0.85,1.631
		c0,0.464,0.555,3.15,0.555,3.613s-0.37,2.502-0.37,2.965c0,0.464,0.739,3.597,1.063,5.57c1.521-0.608,3.384,0.938,3.384,2.398
		c0,0.463-0.927,1.573-0.927,2.037c0,0.465,1.477,3.025,2.003,4.611c-1.22-0.736-2.323-1.287-3.433-1.892
		c1.437-3.795-4.5-2.581-4.5-5.129c0-0.787,1.204-1.608,1.855-1.962C8.39,81.228,5.499,74.035,5.499,66.113
		c0-0.463,0.37-4.448,0.37-4.911c0-1.018-1.113-5.303-1.113-5.651c0-0.856,1.445,0.619,2.81,2.819
		c1.413,1.853,3.649,3.802,4.159,5.586C12.769,67.524,13.462,70.997,14.508,74.455L14.508,74.455z"/>
	<path fill="#005B9E" d="M136.142,60.925c0-0.463,0.364-3.222,0.898-5.715c-1.401,0.181-1.995,2.304-2.62,3.159
		c-0.812,1.113-1.943,2.268-2.778,3.333c-2.897,3.706-2.583,8.824-4.157,12.752v-3.069c-0.868-4.639-3.24-9.252-5.695-13.931
		c-0.511-0.997-1.956-1.773-2.948-2.266l0.001,0.837c0.58,1.647,1.175,3.487,1.175,4.809c0,0.463-0.786,3.513-0.927,5.18
		c-0.208,2.41-0.185,3.437-0.185,3.899c0,3.452,1.581,7.077,2.903,10.412c0.97,2.455,1.358,5.358,1.977,8.021
		c1.62-1.338,1.419-2.59,1.419-4.073c0-6.369-3.52-14.567-3.52-18.715c0-0.462-0.009-0.792,0.105-1.111
		c0.982,1.196,1.821,2.662,2.052,3.635c0.093,0.347,0.14,0.747,0.186,0.932c0.115,0.348,0.14,0.74,0.186,0.926
		c0.116,0.347,0.137,0.752,0.183,1.1c0.278,1.645,0.514,3.396,1.048,5.018c0.183,0.579,0.875,1.177,0.875,1.64
		s-0.557,3.149-0.557,3.612s0.368,2.409,0.368,2.872c0,0.787-1.216,5.494-1.258,5.599c-0.514,0.054-1.07,0.054-1.439,0.101
		c-1.089,0.139-1.749,1.736-1.749,2.362c0,0.463,0.925,1.573,0.925,2.036c0,0.466-1.477,2.852-1.813,4.433
		c1.218-0.741,2.314-1.288,3.21-1.688c0.108-0.596-0.26-1.851,0.596-2.338c0.302-0.163,3.94-1.007,3.94-2.722
		c0-0.672-1.094-1.315-1.854-2.045c6.468-8.414,9.822-15.328,9.822-23.99C136.51,65.465,136.142,61.388,136.142,60.925z
		 M133.762,62.942V65.7c0,2.182-0.14,3.426-0.492,5.585c-0.143,0.939-0.471,1.431-0.751,2.347c-0.377,1.173-0.493,1.878-0.941,3.003
		c-0.75,1.902-1.9,2.981-3.072,4.671L133.762,62.942v-0.621l0.07,0.375L133.762,62.942z"/>
	<path fill="#005B9E" d="M119.713,83.536c1.389,1.297,1.23,4.142,1.23,5.556c0,7.318-3.387,17.738-9.84,23.94
		c6.367-3.457,13.817-10.701,18.843-17.494c-4.153,1.606-8.103,8.458-12.312,10.574c0.723-1.772,1.491-3.754,2.625-5.492
		c0.442-0.672,11.823-9.121,13.584-9.098h1.169c-4.099,7.803-11.908,20.075-21.727,23.806c-1.806,0.67-3.889,1.364-5.715,2.135
		c-0.26,0.528-0.279,1.474-0.419,1.775c-0.346,0.834-1.797,1.539-2.239,1.539c-0.463,0-1.573-0.927-2.036-0.927
		s-4.54,1.666-5.003,1.666c-0.464,0-0.598-0.194-1.002-0.414v-0.662c1.336-0.583,2.805-1.503,4.247-2.378
		c-0.179-0.302-0.373-0.715-0.373-1.179c0-1.62,1.298-2.408,2.408-2.408c0.74,0,1.258-0.075,1.771,0.74
		c0.48-0.527,1.39-1.53,2.154-2.155c0.3-0.255,0.85-0.04,1.107-0.296c5.418-5.211,6.996-11.109,9.173-16.391
		c0.717-1.761,1.177-3.699,1.729-5.516c0,0,0.027-0.128-0.079-0.287c-4.102,6.467-6.366,13.57-9.817,20.333
		c-0.212,0.395-0.899,0.968-1.731,1.335c-0.045-0.266-0.229-0.358-0.229-0.822c0-0.463,0.927-2.048,1.042-3.159
		c0.742-7.342,5.582-14.55,9.102-18.766C118.626,87.99,119.185,85.502,119.713,83.536L119.713,83.536z"/>
	<path fill="#005B9E" d="M40.89,118.065c0.18-0.302,0.374-0.625,0.374-1.085c0-1.229-0.788-2.503-2.409-2.503
		c-0.464,0-0.946-0.09-1.761,0.74c-2.436-2.474-3.681-2.79-5.371-4.921c-2.664-3.336-4.178-6.857-5.615-10.401
		c-1.114-2.709-3.004-8.117-3.004-8.582c0-0.463-0.027-0.212,0.084-0.371c3.801,5.429,5.945,11.693,8.563,17.182
		c0.58,1.229,0.989,3.309,2.569,4.13l0.453-0.424v-0.941c0.004-0.463-1.179-2.845-1.434-4.119c-0.464-2.201-0.589-4.657-1.609-6.465
		c-2.292-4.122-3.237-7.528-7.5-11.375c-1.25-1.134-1.432-3.781-1.94-5.209c-0.759,0.745-1.41,3.727-1.409,4.723
		c0,0.464,0.186,0.556,0.186,3.345c1.437,7.051,2.601,14.143,10.205,21.065c-6.931-2.655-14.212-11.407-19.299-17.134
		c5.014,1.544,7.927,7.274,12.214,10.412v-0.664c-0.908-1.689-1.447-3.531-2.583-5.036c-0.881-1.159-11.17-9.118-14.25-9.118
		c-0.464,0-0.278,0.188-0.546,0.237c3.899,5.217,5.761,10.507,10.695,15.487c5.513,5.536,11.383,8.453,17.285,10.719
		c-0.627,1.41,1.01,3.021,2.307,3.021c0.463,0,1.483-0.926,1.945-0.926c0.465,0,4.634,1.667,5.097,1.667
		c0.462,0,1.009-0.424,1.2-0.862C43.806,119.86,42.332,118.938,40.89,118.065z"/>
	<path fill="#005B9E" d="M98.795,122.261l-4.451,0.187c-3.134,0.44-7.152,1.045-10.209,1.902c-1.878,0.531-5.071,2.174-5.534,2.174
		c-0.462,0-0.306-0.158-0.462-0.274c3.857-3.268,7.795-4.134,11.616-5.732c2.084-0.856,4.084-2.158,6.023-3.277
		c-0.66,2.523-3.712,3.842-5.225,4.184c0.619,0.277,1.202,0.283,1.666,0.283c4.958,0,9.428-8.88,12.039-12.01h-0.682
		c-3.528,4.028-7.864,4.673-11.292,5.761c-2.432,0.765-4.824,1.856-7.231,2.78c-2.55,0.997-5.988,4.823-8.475,6.249
		c-0.525-0.617-1.753-1.484-2.239-1.484c-0.721,0-2.501,0.882-2.501,2.225c0,0.463,0.388,1.631,0.927,2.309
		c-0.53,0.497-1.301,1.396-1.762,1.396c-0.464,0-1.406-1.07-1.761-1.564c0.53-0.5,0.927-1.399,0.927-1.862
		c0-1.482-1.25-2.316-2.501-2.316c-0.464,0-1.032-0.003-1.355,0.252c-0.579,0.461-0.726,1.054-1.037,1.231
		c-8.634-10.16-18.162-7.134-26.85-14.981h-0.675c2.881,3.962,7.379,12.016,12.034,12.018c0.464,0,1.049-0.007,1.667-0.289
		c-1.565-0.222-5.374-2.978-5.374-4.066c0-0.463,0.113-0.28,0.113-0.28c5.853,4.685,11.779,4.194,17.678,9.171l-0.294,0.283
		c-6.407-3.047-13.735-4.009-20.175-4.449l-4.628-0.184c-4.231-0.879-8.25-0.145-13.23-3.514v0.674
		c6.504,6.91,15.029,11.873,22.116,11.549l9.455-0.186c1.856-0.186,3.931-0.327,5.761-0.813c0.926-0.23,2.106-1.226,2.569-1.226
		c0.466,0,2.554,1.102,3.615,1.576c-1.78,0.89-6.222,3.449-8.519,5.586c2.119,0.228,2.96,1.546,3.98,1.546
		c0.462,0,0.373-0.221,0.373-0.221c0.27-0.769,0.584-1.719,1.047-2.416c0.232-0.348,4.463-3.295,5.065-3.295
		c0.462,0,2.457,1.124,3.475,1.704c1.971,1.132,2.035,3.056,2.991,4.222c1.359-0.654,2.605-1.618,3.995-1.533
		c-2.036-2.025-5.688-3.961-8.515-5.596c1.251-0.662,2.538-1.213,3.776-1.763c0.646,0.779,2.274,1.484,2.97,1.6
		c1.459,0.278,4.209,0.626,4.673,0.626h12.739c5.906,0,14.312-5.936,19.358-11.359v-0.674
		C111.858,121.351,104.929,121.797,98.795,122.261z M52.812,128.553c-2.724,0-4.125,0.23-6.636-0.755
		c-1.267-0.493-2.667-0.667-3.957-1.158c-3.098-1.173-4.544-1.862-7.689-2.942c0,0,1.971-0.211,3.355-0.094
		c1.455,0.14,2.229,0.445,3.686,0.444h2.768c1.173,0,1.832,0.21,3.003,0.28c2.042,0.143,4.051,0.518,5.975,1.152
		c2.65,0.868,5.018,1.158,7.142,2.026C57.95,128.664,55.486,128.553,52.812,128.553z M104.179,126.252
		c-1.104,0.635-1.877,0.779-3.026,1.344c-1.689,0.822-2.886,0.564-4.765,0.753c-0.562,0.047-3.42,0.414-3.982,0.414
		c-0.798,0-6.415-0.791-7.587-0.791c-1.385,0-2.205-0.21-3.543-0.54c0,0,5.89-0.822,7.626-1.289
		c3.025-0.823,4.765-1.315,7.885-1.316c2.933,0,4.846-0.405,7.779-0.405c1.032,0,2.44-0.301,3.376-0.676
		C106.817,124.399,105.285,125.619,104.179,126.252z"/>
	<path fill="#005B9E" d="M113.695,60.94c-0.194-0.286-0.244-0.331-0.412-0.246c-0.151,0.076-0.501,0.251-1.775-0.125
		c-1.441-0.427-2.554-1.051-3.627-1.655c-1.532-0.86-2.978-1.674-5.146-1.765c-2.191-0.093-4.37,0.907-6.123,1.71
		c-1.202,0.553-2.241,1.031-2.952,0.999c-1.746-0.079-2.391-0.677-3.204-1.435c-1.09-1.017-2.451-2.282-6.962-3.084
		c-2.422-0.431-4.463-0.195-6.432,0.031c-1.589,0.182-3.086,0.354-4.705,0.18l-0.761-0.075c-1.585-0.151-2.241-0.212-4.595-1.611
		l-0.097-0.056l0.013,0.111l0.273,2.477l0.004,0.041c0.001,0,0.04,0.007,0.04,0.007l0.951,0.202
		c1.562,0.335,2.691,0.576,4.536,0.613c1.56,0.031,3.056-0.111,4.506-0.25c2.227-0.211,4.331-0.412,6.481,0.014
		c1.45,0.287,2.226,0.8,3.399,1.577l0.367,0.244l3.013,21.154c-1.778-0.15-2.828-0.132-4.618,0.085
		c-2.134,0.256-3.665,1.097-5.146,1.91c-1.44,0.794-2.933,1.613-4.989,1.9c-2.141,0.3-3.383,0.333-5.543,0.146l-0.065-0.007
		l0.006,0.064l0.108,1.64l0.003,0.042l0.04,0.011c4.657,1.1,7.945-0.539,10.844-1.985c1.452-0.725,2.822-1.407,4.2-1.65l0.003-0.001
		l0.006-0.002c1.361-0.497,2.934-0.481,4.6-0.463c2.536,0.027,5.155,0.056,7.522-1.663c2.055-1.493,2.407-2.141,2.991-3.213
		c0.443-0.813,0.994-1.83,2.483-3.631c0.973-1.183,3.206-1.708,4.837-2.093c0.809-0.19,1.446-0.341,1.781-0.524
		c2.643-1.459,4.506-3.542,4.99-5.57C114.87,63.609,114.585,62.244,113.695,60.94z"/>
	<path fill="#010101" d="M77.369,65.306c-0.257,1.22-0.331,1.588-0.554,3.062c-0.036,0.238,0.051,0.29,0.149,0.443
		c0.259,0.407,1.124,0.27,1.847,0.222c0.664-0.045,1.45,0.225,1.658-0.406c0.06-0.179,0.064-0.367,0.036-0.481
		c-0.406-1.657-0.071-1.584-0.812-3.394c-0.208-0.506-1.632-0.82-2.1-0.148C77.427,64.839,77.439,64.979,77.369,65.306
		L77.369,65.306z M71.228,78.296c1.213-6.851,1.401-9.593,2.378-15.904c0.116-0.753,0.356-1.341,0.865-1.91
		c0.628-0.702,2.329-0.515,3.971-0.486c1.812,0.034,4.119-0.31,4.491,0.724c0.107,0.302,0.266,0.618,0.373,0.936
		c1.991,5.753,2.619,9.738,4.282,14.493c0.167,0.477,0.158,0.729,0,1.147c-0.306,0.806-1.155,0.754-1.994,0.959
		c-0.755,0.187-1.285,0.438-1.99,0.109c-0.371-0.171-0.691-0.251-0.812-0.664c-0.367-1.257-0.367-3.911-1.027-3.838
		c-1.288,0.144-4.906-0.23-5.166,0.323c-0.387,0.835-0.704,4.241-1.03,4.66c-0.45,0.569-1.067,0.438-1.789,0.509
		c-0.976,0.097-2.274,0.114-2.494-0.362C71.169,78.746,71.166,78.647,71.228,78.296L71.228,78.296z"/>
	<g>
		<path fill="#010101" d="M38.934,93.79c-0.652,0.62-1.531,2.524-1.423,4.101c0.054,0.792,0.347,1.382,0.87,1.756
			c0.223,0.161,0.441,0.219,0.668,0.174c0.587-0.115,1.161-0.931,1.905-2.099l-0.465-5.481
			C40.005,92.743,39.495,93.256,38.934,93.79z"/>
		<path fill="#010101" d="M70.368,85.712l-3.42-31.904l-0.001-0.007l-0.001-0.005c-0.554-1.634-1.396-2.964-2.576-4.066
			c-1.111-1.037-2.532-1.88-4.348-2.577c-2.779-1.071-6.343-1.114-10.304-0.129c-3.392,0.842-6.969,2.413-10.078,4.418l-0.022,0.015
			l-0.001,0.029l-0.141,2.745l-0.002,0.044l0.043,0.012c6.138,1.784,6.521,8.846,6.859,15.075l0.062,1.141
			c0.333,5.75,0.319,10.03-0.776,13.598c-0.583,1.903-1.492,3.641-2.861,5.452l0.489,4.667c2.29-3.056,5.851-6.518,12.103-8.071
			l0.728-0.182c5.089-1.271,6.993-1.746,14.18-0.194l0.078,0.017L70.368,85.712z"/>
	</g>
	<g>
		<path fill="none" d="M39.453,47.033c-0.093-0.781-0.96-1.313-1.935-1.191c-0.977,0.123-1.691,0.855-1.6,1.636
			c0.095,0.78,0.96,1.313,1.936,1.19C38.833,48.546,39.547,47.813,39.453,47.033z"/>
		<path fill="#010101" d="M38.269,49.938c0.078-0.009,0.15-0.034,0.227-0.047l5.53,58.866l1.536-0.146l-5.568-59.263
			c1.043-0.623,1.686-1.628,1.557-2.687c-0.191-1.563-1.972-2.632-3.976-2.387c-2.004,0.247-3.471,1.713-3.281,3.277
			c0.113,0.917,0.78,1.656,1.71,2.065l5.366,56.554l0.8-0.078l-5.332-56.204C37.288,49.979,37.771,49.999,38.269,49.938z
			 M35.919,47.478c-0.093-0.782,0.623-1.513,1.6-1.636c0.974-0.122,1.842,0.41,1.935,1.191c0.094,0.781-0.621,1.513-1.598,1.635
			C36.88,48.792,36.014,48.258,35.919,47.478z"/>
	</g>
</g>
</svg>
