<?xml version="1.0" encoding="UTF-8"?>
<!-- Generator: Adobe Illustrator 15.1.0, SVG Export Plug-In . SVG Version: 6.00 Build 0)  -->
<!DOCTYPE svg PUBLIC "-//W3C//DTD SVG 1.1//EN" "http://www.w3.org/Graphics/SVG/1.1/DTD/svg11.dtd">
<svg version="1.1" id="Ebene_1" xmlns="http://www.w3.org/2000/svg" xmlns:xlink="http://www.w3.org/1999/xlink" x="0px" y="0px" width="141.732px" height="141.732px" viewBox="0 0 141.732 141.732" enable-background="new 0 0 141.732 141.732" xml:space="preserve">
<g>
	<g>
		<circle fill="#0E67B2" cx="70.866" cy="70.866" r="69.637"/>
		<path fill="#0E67B2" d="M70.866,141.732C31.79,141.732,0,109.942,0,70.866S31.791,0,70.866,0s70.866,31.791,70.866,70.866    S109.941,141.732,70.866,141.732z M70.866,2.456c-37.721,0-68.41,30.688-68.41,68.41c0,37.723,30.688,68.409,68.41,68.409    c37.723,0,68.409-30.688,68.409-68.409S108.589,2.456,70.866,2.456z"/>
	</g>
	<path fill="#0E67B2" stroke="#0E67B2" stroke-width="2.5" d="M70.867,70.866"/>
</g>
<g>
	<circle fill="#FFFFFF" stroke="#FFFFFF" stroke-width="2" cx="70.847" cy="70.791" r="66.582"/>
	<path fill="#FFFFFF" stroke="#FFFFFF" stroke-width="2" d="M70.847,70.791"/>
</g>
<g>
	<circle fill="#E21F4E" cx="70.845" cy="70.786" r="63.891"/>
	<path fill="#E21F4E" d="M70.845,70.785"/>
</g>
<path fill="#FFFFFF" d="M12.602,56.814l3.705-10.326l3.034,1.087l-2.244,6.254l3.115,1.118l2.178-6.066l3.034,1.089l-2.178,6.066  l5.61,2.014l-1.461,4.071L12.602,56.814z"/>
<path fill="#FFFFFF" d="M35.187,35.956c2.278,2.431,2.659,4.97,0.772,7.955c-2.133,3.379-5.989,5.436-11.123,2.193  c-5.134-3.241-4.794-7.832-2.803-10.986c2.157-3.416,5.291-3.5,7.353-2.669l-1.457,3.754c-0.744-0.312-2.263-0.801-3.299,0.841  c-0.624,0.989-0.949,2.952,2.522,5.145c2.184,1.379,4.632,2.298,5.952,0.208c0.943-1.494-0.073-2.737-0.774-3.57L35.187,35.956z"/>
<path fill="#FFFFFF" d="M37.949,20.684l5.799-3.246c1.194-0.668,4.854-2.717,6.773,0.712c1.434,2.562-0.159,4.011-0.755,4.572  l0.054,0.097c1.223-0.483,3.352-0.839,4.785,1.724c2.059,3.681-1.89,5.891-3.316,6.688l-5.664,3.17L37.949,20.684z M46.533,22.912  c0.944-0.527,1.276-1.245,0.758-2.17c-0.593-1.06-1.207-1.069-2.247-0.488l-1.965,1.102l1.487,2.659L46.533,22.912z M49.935,28.447  c0.963-0.539,1.274-1.473,0.769-2.378c-0.657-1.175-1.466-1.127-2.583-0.502l-2.042,1.143l1.66,2.968L49.935,28.447z"/>
<path fill="#FFFFFF" d="M74.079,26.375l-4.518,0.521l-1.313-3.094l-5.812,0.671l-0.662,3.321l-4.298,0.496l3.921-16.278l5.418-0.625  L74.079,26.375z M66.929,20.844l-1.607-3.526c-0.416-0.908-0.766-1.824-0.922-2.406l-0.088,0.01  c-0.054,0.874-0.25,1.874-0.395,2.559l-0.806,3.805L66.929,20.844z"/>
<path fill="#FFFFFF" d="M79.244,21.687l-4.079-10.67l4.884,0.784l1.464,4.393c0.254,0.779,0.418,1.565,0.497,2.338l0.107,0.019  c0.279-0.625,0.995-1.74,1.315-2.203l2.587-3.586l4.707,0.755l-7.211,8.857l-0.923,5.754l-4.272-0.686L79.244,21.687z"/>
<path fill="#FFFFFF" d="M94.582,15.2l9.674,5.083l-1.499,2.854l-5.923-3.111l-1.354,2.58l5.57,2.926l-1.5,2.854l-5.569-2.928  l-1.458,2.775l6.137,3.224l-1.499,2.854l-9.889-5.196L94.582,15.2z"/>
<path fill="#FFFFFF" d="M111.035,25.11l4.875,5.295c0.81,0.877,3.545,3.851,0.266,6.87c-1.445,1.331-3.062,1.857-4.917,1.016  l-2.753,7.276l-3.23-3.508l2.67-5.999l-1.106-1.202l-4.435,4.082l-2.932-3.183L111.035,25.11z M109.1,32.655l1.496,1.625  c0.374,0.406,1.286,1.396,2.602,0.186c0.665-0.612,0.903-1.463-0.054-2.502l-1.509-1.641L109.1,32.655z"/>
<path fill="#FFFFFF" d="M124.553,42.901l1.663,5.147l-6.104,6.031c-0.754,0.754-1.731,1.604-2.795,2.343l0.062,0.188  c0.651-0.349,1.725-0.765,3.111-1.213l7.332-2.369l1.235,3.824l-14.96,4.833l-1.67-5.169l6.363-6.302  c0.931-0.927,2.056-1.756,2.555-2.009L121.3,48.06c-0.766,0.293-1.396,0.566-2.278,0.852l-8.194,2.647l-1.235-3.824L124.553,42.901z  "/>
<circle fill="#FFFFFF" cx="70.845" cy="70.785" r="39.96"/>
<circle fill="#FFFFFF" cx="70.835" cy="70.782" r="37.202"/>
<circle fill="#FFFFFF" cx="70.835" cy="70.781" r="36.83"/>
<g>
	<polygon fill="#0E67B2" points="81.844,51.242 80.393,68.393 88.536,82.359 89.987,65.207  "/>
	<polygon fill="#0E67B2" points="72.229,54.409 70.778,71.561 78.923,85.525 80.372,68.375  "/>
	<polygon fill="#0E67B2" points="91.476,48.104 90.024,65.257 98.168,79.222 99.617,62.07  "/>
	<path fill="#0E67B2" d="M99.656,62.119l7.659,13.134c0.18-1.478,0.283-2.979,0.283-4.504c0-7.983-2.547-15.367-6.863-21.4   L99.656,62.119z"/>
	<path fill="#0E67B2" d="M98.184,79.266l-1.45,17.167L88.57,82.434l-1.452,17.167l-8.18-14.03l-1.452,17.167l-8.197-14.059   l1.451-17.166l-8.162-13.996l1.454-17.181l8.162,13.998l1.451-17.166l8.181,14.029l1.281-15.159   c-3.859-1.373-8.014-2.127-12.346-2.127c-14.426,0-26.906,8.296-32.952,20.373l5.487,9.409l1.451-17.166l8.164,14l1.447-17.125   l8.199,14.059l-1.452,17.182l-8.164-14l-1.447,17.125L43.332,63.77l-1.45,17.15l8.143,13.964l1.447-17.105l8.162,13.998   l1.45-17.166l8.198,14.06l-1.452,17.181l-8.162-13.997l-1.153,13.641c3.833,1.353,7.954,2.097,12.25,2.097   c14.098,0,26.342-7.924,32.533-19.558L98.184,79.266z"/>
	<path fill="#0E67B2" d="M84.834,36.701l6.624,11.358l0.621-7.344C89.836,39.12,87.411,37.769,84.834,36.701z"/>
	<path fill="#0E67B2" d="M55.431,104.243l-5.396-9.253l-0.496,5.86C51.386,102.156,53.355,103.292,55.431,104.243z"/>
	<path fill="#0E67B2" d="M41.842,80.87L34.07,67.544c-0.091,1.058-0.146,2.124-0.146,3.205c0,8.041,2.583,15.473,6.953,21.529   L41.842,80.87z"/>
</g>
<path fill="#FFFFFF" d="M27.971,83.444l3.011,5.774l-5.925,5.729c-0.33,0.321-1.236,1.068-1.957,1.594l0.069,0.138  c0.718-0.249,2.035-0.587,2.675-0.698l7.935-1.397l2.93,5.617l-13.936,7.269l-1.919-3.681l8.023-4.186  c1.037-0.54,2.595-1.278,3.185-1.486l-0.123-0.233c-0.598,0.188-2.507,0.637-3.668,0.843l-9.163,1.718l-1.47-2.818l7.252-7.192  c0.708-0.693,1.71-1.541,2.159-1.923l-0.103-0.195c-0.508,0.312-2.268,1.381-3.403,1.974l-7.651,3.991l-1.858-3.562L27.971,83.444z"/>
<path fill="#FFFFFF" d="M52.219,111.608l5.162,1.615l1.399,8.462c0.18,1.051,0.31,2.341,0.298,3.632l0.19,0.06  c0.091-0.733,0.371-1.85,0.805-3.239l2.3-7.353l3.833,1.198l-4.689,14.999l-5.184-1.621l-1.47-8.831  c-0.22-1.294-0.246-2.689-0.165-3.244l-0.146-0.045c-0.202,0.793-0.343,1.466-0.619,2.352l-2.569,8.215l-3.834-1.198L52.219,111.608  z"/>
<path fill="#FFFFFF" d="M83.039,124.808c-0.078,3.328-1.585,5.406-5.021,6.214c-3.891,0.915-8.08-0.323-9.47-6.23  c-1.391-5.908,2.068-8.943,5.699-9.798c3.933-0.925,6.226,1.211,7.11,3.247l-3.668,1.656c-0.312-0.743-1.051-2.156-2.941-1.712  c-1.14,0.268-2.746,1.438-1.806,5.437c0.591,2.516,1.693,4.887,4.099,4.319c1.721-0.405,1.866-2.003,1.95-3.09L83.039,124.808z"/>
<path fill="#FFFFFF" d="M82.624,114.354l3.815-2.044l2.771,5.178l4.574-2.449l-2.772-5.176l3.814-2.043l7.42,13.857l-3.813,2.042  l-3.127-5.839l-4.574,2.45l3.127,5.837l-3.815,2.043L82.624,114.354z"/>
<path fill="#FFFFFF" d="M97.578,106.357l8.021-7.422l2.188,2.364l-4.91,4.544l1.979,2.14l4.619-4.273l2.188,2.365l-4.619,4.273  l2.13,2.301l5.09-4.707l2.188,2.366l-8.199,7.586L97.578,106.357z"/>
<path fill="#FFFFFF" d="M107.441,96.458l2.582-4.752l8.574,0.263c1.065,0.024,2.354,0.147,3.62,0.407l0.096-0.174  c-0.704-0.229-1.744-0.721-3.024-1.416l-6.769-3.678l1.917-3.53l13.81,7.502l-2.593,4.771l-8.949-0.267  c-1.312-0.033-2.687-0.277-3.214-0.465l-0.074,0.137c0.74,0.352,1.372,0.618,2.188,1.062l7.562,4.108l-1.916,3.53L107.441,96.458z"/>
<g>
	<path fill="#FFFFFF" d="M38.503,102.036l3.418,2.655l-6.07,7.81c-1.017,1.309-1.341,2.733,0.089,3.845   c1.534,1.192,2.858,0.46,3.834-0.794l6.069-7.811l3.276,2.547l-6.069,7.811c-2.412,3.104-5.69,3.436-9.09,0.794   c-2.858-2.224-4.386-5.368-1.526-9.045L38.503,102.036z"/>
	<g>
		<polygon fill="#FFFFFF" points="45.039,107.041 41.16,109.729 42.841,105.329   "/>
	</g>
</g>
<style xmlns="http://www.w3.org/1999/xhtml" charset="utf-8" type="text/css" class="firebugResetStyles">/* See license.txt for terms of usage */
/** reset styling **/
.firebugResetStyles {
    z-index: 2147483646 !important;
    top: 0 !important;
    left: 0 !important;
    display: block !important;
    border: 0 none !important;
    margin: 0 !important;
    padding: 0 !important;
    outline: 0 !important;
    min-width: 0 !important;
    max-width: none !important;
    min-height: 0 !important;
    max-height: none !important;
    position: fixed !important;
    transform: rotate(0deg) !important;
    transform-origin: 50% 50% !important;
    border-radius: 0 !important;
    box-shadow: none !important;
    background: transparent none !important;
    pointer-events: none !important;
    white-space: normal !important;
}
style.firebugResetStyles {
    display: none !important;
}

.firebugBlockBackgroundColor {
    background-color: transparent !important;
}

.firebugResetStyles:before, .firebugResetStyles:after {
    content: "" !important;
}
/**actual styling to be modified by firebug theme**/
.firebugCanvas {
    display: none !important;
}

/* * * * * * * * * * * * * * * * * * * * * * * * * * * * * * * * * * * * * * * * * * * * * * * * */
.firebugLayoutBox {
    width: auto !important;
    position: static !important;
}

.firebugLayoutBoxOffset {
    opacity: 0.8 !important;
    position: fixed !important;
}

.firebugLayoutLine {
    opacity: 0.4 !important;
    background-color: #000000 !important;
}

.firebugLayoutLineLeft, .firebugLayoutLineRight {
    width: 1px !important;
    height: 100% !important;
}

.firebugLayoutLineTop, .firebugLayoutLineBottom {
    width: 100% !important;
    height: 1px !important;
}

.firebugLayoutLineTop {
    margin-top: -1px !important;
    border-top: 1px solid #999999 !important;
}

.firebugLayoutLineRight {
    border-right: 1px solid #999999 !important;
}

.firebugLayoutLineBottom {
    border-bottom: 1px solid #999999 !important;
}

.firebugLayoutLineLeft {
    margin-left: -1px !important;
    border-left: 1px solid #999999 !important;
}

/* * * * * * * * * * * * * * * * * * * * * * * * * * * * * * * * * * * * * * * * * * * * * * * * */
.firebugLayoutBoxParent {
    border-top: 0 none !important;
    border-right: 1px dashed #E00 !important;
    border-bottom: 1px dashed #E00 !important;
    border-left: 0 none !important;
    position: fixed !important;
    width: auto !important;
}

.firebugRuler{
    position: absolute !important;
}

.firebugRulerH {
    top: -15px !important;
    left: 0 !important;
    width: 100% !important;
    height: 14px !important;
    background: url("data:image/png,%89PNG%0D%0A%1A%0A%00%00%00%0DIHDR%00%00%13%88%00%00%00%0E%08%02%00%00%00L%25a%0A%00%00%00%04gAMA%00%00%D6%D8%D4OX2%00%00%00%19tEXtSoftware%00Adobe%20ImageReadyq%C9e%3C%00%00%04%F8IDATx%DA%EC%DD%D1n%E2%3A%00E%D1%80%F8%FF%EF%E2%AF2%95%D0D4%0E%C1%14%B0%8Fa-%E9%3E%CC%9C%87n%B9%81%A6W0%1C%A6i%9A%E7y%0As8%1CT%A9R%A5J%95*U%AAT%A9R%A5J%95*U%AAT%A9R%A5J%95*U%AAT%A9R%A5J%95*U%AAT%A9R%A5J%95*U%AAT%A9R%A5J%95*U%AAT%A9R%A5J%95*U%AATE9%FE%FCw%3E%9F%AF%2B%2F%BA%97%FDT%1D~K(%5C%9D%D5%EA%1B%5C%86%B5%A9%BDU%B5y%80%ED%AB*%03%FAV9%AB%E1%CEj%E7%82%EF%FB%18%BC%AEJ8%AB%FA'%D2%BEU9%D7U%ECc0%E1%A2r%5DynwVi%CFW%7F%BB%17%7Dy%EACU%CD%0E%F0%FA%3BX%FEbV%FEM%9B%2B%AD%BE%AA%E5%95v%AB%AA%E3E5%DCu%15rV9%07%B5%7F%B5w%FCm%BA%BE%AA%FBY%3D%14%F0%EE%C7%60%0EU%AAT%A9R%A5J%95*U%AAT%A9R%A5J%95*U%AAT%A9R%A5J%95*U%AAT%A9R%A5J%95*U%AAT%A9R%A5JU%88%D3%F5%1F%AE%DF%3B%1B%F2%3E%DAUCNa%F92%D02%AC%7Dm%F9%3A%D4%F2%8B6%AE*%BF%5C%C2Ym~9g5%D0Y%95%17%7C%C8c%B0%7C%18%26%9CU%CD%13i%F7%AA%90%B3Z%7D%95%B4%C7%60%E6E%B5%BC%05%B4%FBY%95U%9E%DB%FD%1C%FC%E0%9F%83%7F%BE%17%7DkjMU%E3%03%AC%7CWj%DF%83%9An%BCG%AE%F1%95%96yQ%0Dq%5Dy%00%3Et%B5'%FC6%5DS%95pV%95%01%81%FF'%07%00%00%00%00%00%00%00%00%00%F8x%C7%F0%BE%9COp%5D%C9%7C%AD%E7%E6%EBV%FB%1E%E0(%07%E5%AC%C6%3A%ABi%9C%8F%C6%0E9%AB%C0'%D2%8E%9F%F99%D0E%B5%99%14%F5%0D%CD%7F%24%C6%DEH%B8%E9rV%DFs%DB%D0%F7%00k%FE%1D%84%84%83J%B8%E3%BA%FB%EF%20%84%1C%D7%AD%B0%8E%D7U%C8Y%05%1E%D4t%EF%AD%95Q%BF8w%BF%E9%0A%BF%EB%03%00%00%00%00%00%00%00%00%00%B8vJ%8E%BB%F5%B1u%8Cx%80%E1o%5E%CA9%AB%CB%CB%8E%03%DF%1D%B7T%25%9C%D5(%EFJM8%AB%CC'%D2%B2*%A4s%E7c6%FB%3E%FA%A2%1E%80~%0E%3E%DA%10x%5D%95Uig%15u%15%ED%7C%14%B6%87%A1%3B%FCo8%A8%D8o%D3%ADO%01%EDx%83%1A~%1B%9FpP%A3%DC%C6'%9C%95gK%00%00%00%00%00%00%00%00%00%20%D9%C9%11%D0%C0%40%AF%3F%EE%EE%92%94%D6%16X%B5%BCMH%15%2F%BF%D4%A7%C87%F1%8E%F2%81%AE%AAvzr%DA2%ABV%17%7C%E63%83%E7I%DC%C6%0Bs%1B%EF6%1E%00%00%00%00%00%00%00%00%00%80cr%9CW%FF%7F%C6%01%0E%F1%CE%A5%84%B3%CA%BC%E0%CB%AA%84%CE%F9%BF)%EC%13%08WU%AE%AB%B1%AE%2BO%EC%8E%CBYe%FE%8CN%ABr%5Dy%60~%CFA%0D%F4%AE%D4%BE%C75%CA%EDVB%EA(%B7%F1%09g%E5%D9%12%00%00%00%00%00%00%00%00%00H%F6%EB%13S%E7y%5E%5E%FB%98%F0%22%D1%B2'%A7%F0%92%B1%BC%24z3%AC%7Dm%60%D5%92%B4%7CEUO%5E%F0%AA*%3BU%B9%AE%3E%A0j%94%07%A0%C7%A0%AB%FD%B5%3F%A0%F7%03T%3Dy%D7%F7%D6%D4%C0%AAU%D2%E6%DFt%3F%A8%CC%AA%F2%86%B9%D7%F5%1F%18%E6%01%F8%CC%D5%9E%F0%F3z%88%AA%90%EF%20%00%00%00%00%00%00%00%00%00%C0%A6%D3%EA%CFi%AFb%2C%7BB%0A%2B%C3%1A%D7%06V%D5%07%A8r%5D%3D%D9%A6%CAu%F5%25%CF%A2%99%97zNX%60%95%AB%5DUZ%D5%FBR%03%AB%1C%D4k%9F%3F%BB%5C%FF%81a%AE%AB'%7F%F3%EA%FE%F3z%94%AA%D8%DF%5B%01%00%00%00%00%00%00%00%00%00%8E%FB%F3%F2%B1%1B%8DWU%AAT%A9R%A5J%95*U%AAT%A9R%A5J%95*U%AAT%A9R%A5J%95*U%AAT%A9R%A5J%95*U%AAT%A9R%A5J%95*U%AAT%A9R%A5J%95*U%AAT%A9R%A5J%95*UiU%C7%BBe%E7%F3%B9%CB%AAJ%95*U%AAT%A9R%A5J%95*U%AAT%A9R%A5J%95*U%AAT%A9R%A5J%95*U%AAT%A9R%A5J%95*U%AAT%A9R%A5J%95*U%AAT%A9R%A5J%95*U%AAT%A9R%A5*%AAj%FD%C6%D4%5Eo%90%B5Z%ADV%AB%D5j%B5Z%ADV%AB%D5j%B5Z%ADV%AB%D5j%B5Z%ADV%AB%D5j%B5Z%ADV%AB%D5j%B5Z%ADV%AB%D5j%B5Z%ADV%AB%D5j%B5%86%AF%1B%9F%98%DA%EBm%BBV%AB%D5j%B5Z%ADV%AB%D5j%B5Z%ADV%AB%D5j%B5Z%ADV%AB%D5j%B5Z%ADV%AB%D5j%B5Z%ADV%AB%D5j%B5Z%ADV%AB%D5j%B5Z%AD%D6%E4%F58%01%00%00%00%00%00%00%00%00%00%00%00%00%00%40%85%7F%02%0C%008%C2%D0H%16j%8FX%00%00%00%00IEND%AEB%60%82") repeat-x !important;
    border-top: 1px solid #BBBBBB !important;
    border-right: 1px dashed #BBBBBB !important;
    border-bottom: 1px solid #000000 !important;
}

.firebugRulerV {
    top: 0 !important;
    left: -15px !important;
    width: 14px !important;
    height: 100% !important;
    background: url("data:image/png,%89PNG%0D%0A%1A%0A%00%00%00%0DIHDR%00%00%00%0E%00%00%13%88%08%02%00%00%00%0E%F5%CB%10%00%00%00%04gAMA%00%00%D6%D8%D4OX2%00%00%00%19tEXtSoftware%00Adobe%20ImageReadyq%C9e%3C%00%00%06~IDATx%DA%EC%DD%D1v%A20%14%40Qt%F1%FF%FF%E4%97%D9%07%3BT%19%92%DC%40(%90%EEy%9A5%CB%B6%E8%F6%9Ac%A4%CC0%84%FF%DC%9E%CF%E7%E3%F1%88%DE4%F8%5D%C7%9F%2F%BA%DD%5E%7FI%7D%F18%DDn%BA%C5%FB%DF%97%BFk%F2%10%FF%FD%B4%F2M%A7%FB%FD%FD%B3%22%07p%8F%3F%AE%E3%F4S%8A%8F%40%EEq%9D%BE8D%F0%0EY%A1Uq%B7%EA%1F%81%88V%E8X%3F%B4%CEy%B7h%D1%A2E%EBohU%FC%D9%AF2fO%8BBeD%BE%F7X%0C%97%A4%D6b7%2Ck%A5%12%E3%9B%60v%B7r%C7%1AI%8C%BD%2B%23r%00c0%B2v%9B%AD%CA%26%0C%1Ek%05A%FD%93%D0%2B%A1u%8B%16-%95q%5Ce%DCSO%8E%E4M%23%8B%F7%C2%FE%40%BB%BD%8C%FC%8A%B5V%EBu%40%F9%3B%A72%FA%AE%8C%D4%01%CC%B5%DA%13%9CB%AB%E2I%18%24%B0n%A9%0CZ*Ce%9C%A22%8E%D8NJ%1E%EB%FF%8F%AE%CAP%19*%C3%BAEKe%AC%D1%AAX%8C*%DEH%8F%C5W%A1e%AD%D4%B7%5C%5B%19%C5%DB%0D%EF%9F%19%1D%7B%5E%86%BD%0C%95%A12%AC%5B*%83%96%CAP%19%F62T%86%CAP%19*%83%96%CA%B8Xe%BC%FE)T%19%A1%17xg%7F%DA%CBP%19*%C3%BA%A52T%86%CAP%19%F62T%86%CA%B0n%A9%0CZ%1DV%C6%3D%F3%FCH%DE%B4%B8~%7F%5CZc%F1%D6%1F%AF%84%F9%0F6%E6%EBVt9%0E~%BEr%AF%23%B0%97%A12T%86%CAP%19%B4T%86%CA%B8Re%D8%CBP%19*%C3%BA%A52huX%19%AE%CA%E5%BC%0C%7B%19*CeX%B7h%A9%0C%95%E1%BC%0C%7B%19*CeX%B7T%06%AD%CB%5E%95%2B%BF.%8F%C5%97%D5%E4%7B%EE%82%D6%FB%CF-%9C%FD%B9%CF%3By%7B%19%F62T%86%CA%B0n%D1R%19*%A3%D3%CA%B0%97%A12T%86uKe%D0%EA%B02*%3F1%99%5DB%2B%A4%B5%F8%3A%7C%BA%2B%8Co%7D%5C%EDe%A8%0C%95a%DDR%19%B4T%C66%82fA%B2%ED%DA%9FC%FC%17GZ%06%C9%E1%B3%E5%2C%1A%9FoiB%EB%96%CA%A0%D5qe4%7B%7D%FD%85%F7%5B%ED_%E0s%07%F0k%951%ECr%0D%B5C%D7-g%D1%A8%0C%EB%96%CA%A0%A52T%C6)*%C3%5E%86%CAP%19%D6-%95A%EB*%95q%F8%BB%E3%F9%AB%F6%E21%ACZ%B7%22%B7%9B%3F%02%85%CB%A2%5B%B7%BA%5E%B7%9C%97%E1%BC%0C%EB%16-%95%A12z%AC%0C%BFc%A22T%86uKe%D0%EA%B02V%DD%AD%8A%2B%8CWhe%5E%AF%CF%F5%3B%26%CE%CBh%5C%19%CE%CB%B0%F3%A4%095%A1%CAP%19*Ce%A8%0C%3BO*Ce%A8%0C%95%A12%3A%AD%8C%0A%82%7B%F0v%1F%2FD%A9%5B%9F%EE%EA%26%AF%03%CA%DF9%7B%19*Ce%A8%0C%95%A12T%86%CA%B8Ze%D8%CBP%19*Ce%A8%0C%95%D1ae%EC%F7%89I%E1%B4%D7M%D7P%8BjU%5C%BB%3E%F2%20%D8%CBP%19*Ce%A8%0C%95%A12T%C6%D5*%C3%5E%86%CAP%19*Ce%B4O%07%7B%F0W%7Bw%1C%7C%1A%8C%B3%3B%D1%EE%AA%5C%D6-%EBV%83%80%5E%D0%CA%10%5CU%2BD%E07YU%86%CAP%19*%E3%9A%95%91%D9%A0%C8%AD%5B%EDv%9E%82%FFKOee%E4%8FUe%A8%0C%95%A12T%C6%1F%A9%8C%C8%3D%5B%A5%15%FD%14%22r%E7B%9F%17l%F8%BF%ED%EAf%2B%7F%CF%ECe%D8%CBP%19*Ce%A8%0C%95%E1%93~%7B%19%F62T%86%CAP%19*Ce%A8%0C%E7%13%DA%CBP%19*Ce%A8%0CZf%8B%16-Z%B4h%D1R%19f%8B%16-Z%B4h%D1R%19%B4%CC%16-Z%B4h%D1R%19%B4%CC%16-Z%B4h%D1%A2%A52%CC%16-Z%B4h%D1%A2%A52h%99-Z%B4h%D1%A2%A52h%99-Z%B4h%D1%A2EKe%98-Z%B4h%D1%A2EKe%D02%5B%B4h%D1%A2EKe%D02%5B%B4h%D1%A2E%8B%96%CA0%5B%B4h%D1%A2E%8B%96%CA%A0e%B6h%D1%A2E%8B%96%CA%A0e%B6h%D1%A2E%8B%16-%95a%B6h%D1%A2E%8B%16-%95A%CBl%D1%A2E%8B%16-%95A%CBl%D1%A2E%8B%16-Z*%C3l%D1%A2E%8B%16-Z*%83%96%D9%A2E%8B%16-Z*%83%96%D9%A2E%8B%16-Z%B4T%86%D9%A2E%8B%16-Z%B4T%06-%B3E%8B%16-Z%B4T%06-%B3E%8B%16-Z%B4h%A9%0C%B3E%8B%16-Z%B4h%A9%0CZf%8B%16-Z%B4h%A9%0CZf%8B%16-Z%B4h%D1R%19f%8B%16-Z%B4h%D1R%19%B4%CC%16-Z%B4h%D1R%19%B4%CC%16-Z%B4h%D1%A2%A52%CC%16-Z%B4h%D1%A2%A52h%99-Z%B4h%D1%A2%A52h%99-Z%B4h%D1%A2EKe%98-Z%B4h%D1%A2EKe%D02%5B%B4h%D1%A2EKe%D02%5B%B4h%D1%A2E%8B%96%CA0%5B%B4h%D1%A2E%8B%96%CA%A0e%B6h%D1%A2E%8B%96%CA%A0e%B6h%D1%A2E%8B%16-%95a%B6h%D1%A2E%8B%16-%95A%CBl%D1%A2E%8B%16-%95A%CBl%D1%A2E%8B%16-Z*%C3l%D1%A2E%8B%16-Z*%83%96%D9%A2E%8B%16-Z*%83%96%D9%A2E%8B%16-Z%B4T%86%D9%A2E%8B%16-Z%B4T%06-%B3E%8B%16-Z%B4T%06-%B3E%8B%16-Z%B4h%A9%0C%B3E%8B%16-Z%B4h%A9%0CZf%8B%16-Z%B4h%A9%0CZf%8B%16-Z%B4h%D1R%19f%8B%16-Z%B4h%D1R%19%B4%CC%16-Z%B4h%D1R%19%B4%CC%16-Z%B4h%D1%A2%A52%CC%16-Z%B4h%D1%A2%A52h%99-Z%B4h%D1%A2%A52h%99-Z%B4h%D1%A2EKe%98-Z%B4h%D1%A2EKe%D02%5B%B4h%D1%A2EKe%D02%5B%B4h%D1%A2E%8B%96%CA0%5B%B4h%D1%A2E%8B%96%CA%A0e%B6h%D1%A2E%8B%96%CA%A0e%B6h%D1%A2E%8B%16-%95a%B6h%D1%A2E%8B%16-%95A%CBl%D1%A2E%8B%16-%95A%CBl%D1%A2E%8B%16-Z*%C3l%D1%A2E%8B%16-Z*%83%96%D9%A2E%8B%16-Z*%83%96%D9%A2E%8B%16-Z%B4T%86%D9%A2E%8B%16-Z%B4T%06-%B3E%8B%16-Z%B4%AE%A4%F5%25%C0%00%DE%BF%5C'%0F%DA%B8q%00%00%00%00IEND%AEB%60%82") repeat-y !important;
    border-left: 1px solid #BBBBBB !important;
    border-right: 1px solid #000000 !important;
    border-bottom: 1px dashed #BBBBBB !important;
}

.overflowRulerX &gt; .firebugRulerV {
    left: 0 !important;
}

.overflowRulerY &gt; .firebugRulerH {
    top: 0 !important;
}

/* * * * * * * * * * * * * * * * * * * * * * * * * * * * * * * * * * * * * * * * * * * * * * * * */
.fbProxyElement {
    position: fixed !important;
    pointer-events: auto !important;
}
</style><div xmlns="http://www.w3.org/1999/xhtml" class="firebugResetStyles firebugBlockBackgroundColor firebugLayoutBox firebugLayoutBoxOffset" style="left: 109.583px ! important; top: 42.9px ! important;"><div class="firebugResetStyles firebugLayoutBox" style="padding: 0px ! important; background-color: rgb(237, 255, 100) ! important;"><div class="firebugResetStyles firebugLayoutBox" style="padding: 0px ! important; background-color: rgb(68, 68, 68) ! important;"><div class="firebugResetStyles firebugLayoutBox" style="padding: 0px ! important; background-color: SlateBlue ! important;"><div class="firebugResetStyles firebugLayoutBox" style="width: 19.5px ! important; height: 18.8167px ! important; background-color: SkyBlue ! important;"/></div></div></div></div></svg>