<?xml version="1.0" encoding="UTF-8"?>
<!-- Generator: Adobe Illustrator 15.1.0, SVG Export Plug-In . SVG Version: 6.00 Build 0)  -->
<!DOCTYPE svg PUBLIC "-//W3C//DTD SVG 1.1//EN" "http://www.w3.org/Graphics/SVG/1.1/DTD/svg11.dtd">
<svg version="1.1" id="Ebene_1" xmlns="http://www.w3.org/2000/svg" xmlns:xlink="http://www.w3.org/1999/xlink" x="0px" y="0px" width="141.733px" height="141.732px" viewBox="0 0 141.733 141.732" enable-background="new 0 0 141.733 141.732" xml:space="preserve">
<path fill="#FFFFFF" d="M40.607,21.213c0.752-0.78,2.423-2.413,5.508-2.308c1.933-0.892,4.14-0.541,4.961-0.06  c0,0,1.393-0.033,2.289,0.398c5.502-1.846,11.389-2.843,17.499-2.843c6.111,0,11.998,0.997,17.5,2.843  c0.897-0.431,2.289-0.398,2.289-0.398c0.821-0.481,3.031-0.834,4.962,0.06c3.085-0.104,4.757,1.526,5.507,2.308  c0.429-1.194,1.169-2.195,2.914-2.792c0.622-3.231,4.826-4.691,10.757-1.708c2.646-2.398,6.526,0.157,7.798,3.623  c1.952-0.491,5.048,1.325,4.841,7.148c1.978,0.103,2.748,2.185,2.186,5.559c1.177-0.25,6.954-1.323,11.096,3.937  c1.975,2.51,0.828,5.718-1.272,7.281c-0.14,0.393-1.02,3.896-3.672,5.323c-0.158,1.776,2.918,5.574,4.076,8.072  c3.255,7.025,1.638,18.958-10.422,20.999c0.534,0.5,1.759,2.181,2.159,3.575c0.52,1.807,0.129,3.548-0.78,5.042  c-0.998,1.64-4.717,3.964-5.643,5.133c1.727,1.021,3.688,3.11,2.809,7.052l-3.428,15.412c-0.562,2.51-2.234,4.634-4.966,5.187  c-1.386,0.277-2.83-0.015-3.703-0.244c-5.992-1.585-10.33-0.354-16.974,1.8c-3.464,1.119-7.233,2.363-11.708,3.331  c-4.582,0.993-9.883,1.698-16.32,1.698c-6.437,0-11.739-0.708-16.317-1.698c-4.477-0.968-8.248-2.214-11.709-3.331  c-6.645-2.152-10.981-3.385-16.978-1.8c-0.872,0.229-2.316,0.521-3.703,0.244c-2.729-0.55-4.402-2.674-4.966-5.187l-3.426-15.412  c-0.877-3.94,1.082-6.03,2.807-7.052c-0.923-1.169-4.646-3.493-5.641-5.133c-0.909-1.494-1.3-3.237-0.781-5.042  c0.4-1.396,1.626-3.075,2.16-3.575C0.25,76.614-1.366,64.682,1.888,57.657c1.157-2.498,4.233-6.295,4.076-8.072  c-2.651-1.427-3.531-4.931-3.67-5.322c-2.102-1.564-3.249-4.771-1.274-7.282c4.14-5.261,9.918-4.187,11.096-3.937  c-0.562-3.372,0.207-5.454,2.187-5.559c-0.208-5.824,2.888-7.642,4.84-7.148c1.271-3.466,5.152-6.021,7.798-3.623  c5.926-2.983,10.134-1.523,10.756,1.709C39.439,19.018,40.182,20.019,40.607,21.213L40.607,21.213z"/>
<path fill="#FEE100" d="M55.768,119.167c-4.267-0.923-7.859-2.116-11.16-3.186c-6.462-2.095-12.12-3.842-19.554-2.089  c-1.518,0.378-2.042,0.366-2.38-1.172l-3.082-13.873c-0.282-1.291,0.099-1.561,1.343-1.839c9.182-1.973,16.752-0.617,24.369,1.324  c3.99,1.018,7.951,2.181,12.1,3.091c4.22,0.926,8.636,1.593,13.46,1.593c4.827,0,9.24-0.667,13.462-1.593  c4.148-0.91,8.11-2.073,12.101-3.091c7.615-1.941,15.188-3.297,24.368-1.324c1.244,0.278,1.625,0.548,1.343,1.839l-3.082,13.873  c-0.338,1.54-0.865,1.55-2.387,1.17c-7.432-1.751-13.086-0.004-19.546,2.091c-3.301,1.068-6.894,2.26-11.158,3.186  c-4.236,0.918-9.144,1.568-15.098,1.568S60.005,120.084,55.768,119.167L55.768,119.167z M55.599,39.645l-0.401-0.243l0.103-0.459  c0.268-1.217,0.103-2.3-1.771-2.36l-0.464-0.014l-1.419-4.458l0.391-0.277c1.286-0.913,0.988-2.057-0.753-2.686l-0.434-0.155V28.53  c0-0.741,0.448-1.152,0.765-1.441c0.076-0.069,0.159-0.143,0.245-0.224c0.076-0.07,0.154-0.148,0.234-0.235  c0.151-0.167,0.305-0.366,0.446-0.631l0.114-0.212l0.225-0.088c5.569-2.188,11.637-3.391,17.988-3.391  c6.353,0,12.419,1.202,17.989,3.392l0.224,0.088L89.193,26c0.145,0.265,0.295,0.464,0.447,0.631  c0.079,0.087,0.158,0.164,0.233,0.235c0.084,0.08,0.167,0.153,0.244,0.224c0.317,0.29,0.765,0.701,0.765,1.441v0.463l-0.433,0.155  c-1.743,0.629-2.042,1.772-0.754,2.686l0.39,0.277l-1.421,4.458L88.2,36.584c-1.873,0.06-2.037,1.144-1.771,2.359l0.102,0.459  l-0.399,0.243c-0.562,0.342-1.056,1.691-0.729,2.677l0.484,1.467l-1.395-0.671c-4.123-1.982-8.745-3.093-13.63-3.093  c-4.884,0-9.507,1.11-13.628,3.093l-1.392,0.669l0.485-1.467C56.652,41.337,56.16,39.986,55.599,39.645L55.599,39.645z"/>
<path fill="#EC2227" d="M18.659,45.951v-0.002c-0.174-0.262-0.314-0.59-0.421-0.979c-0.097-0.354-0.14-0.697-0.144-0.964  c0.437,0.131,0.93,0.187,1.354,0.102c0.9-0.179,1.35-0.971,0.863-1.997c-0.089-0.19-0.141-0.323-0.173-0.431  c-0.033-0.107-0.046-0.191-0.063-0.277c-0.104-0.511-0.337-0.814-1.211-0.373c-0.061,0.029-0.255,0.118-0.721,0.04  c-0.2-0.033-0.408-0.186-0.589-0.59c-0.182-0.401-0.28-0.945-0.3-1.5c-0.015-0.396,0.014-0.761,0.061-1.041  c1.119,0.601,2.831,0.604,2.683-1.427c-0.02-0.264-0.033-0.433-0.035-0.588c-0.002-0.137,0.008-0.256,0.028-0.428  c0.052-0.417-0.118-0.774-0.718-0.811c-0.1-0.006-0.242,0.007-0.409,0.026c-0.104,0.012-0.223,0.028-0.344,0.033  c-0.109,0.005-0.185-0.001-0.233-0.013c-0.185-0.04-0.755-0.584-0.874-0.982c-0.199-0.687-0.04-1.64,0.259-2.364  c0.043-0.104,0.087-0.2,0.129-0.282c0.364,0.381,0.848,0.607,1.282,0.679c0.562,0.093,1.614-0.095,1.571-1.203  c-0.018-0.438,0.043-0.765,0.104-0.97c0.048-0.167,0.544-1.134,0.544-1.134l-0.944-0.105c-0.083-0.009-0.591-0.09-0.683-0.16  c-0.266-0.204-0.41-0.856-0.354-1.428c0.062-0.655,0.552-1.552,1.057-2.078c0.138,0.584,0.593,1.04,1.007,1.28  c0.399,0.228,1.387,0.536,1.854-0.342c0.147-0.28,0.318-0.479,0.445-0.607c0.061-0.062,0.11-0.104,0.146-0.135  c0.016-1.132-0.482-1.484-0.613-1.845c-0.166-0.453,0.247-1.104,1.349-1.631c0.347-0.165,0.68-0.271,0.938-0.323  c-0.056,0.282-0.07,0.548-0.021,0.791c0.104,0.487,0.451,0.762,0.854,0.853c0.32,0.07,0.68,0.026,0.963-0.019  c0.286-0.045,0.612-0.115,0.957-0.172c0.24-0.04,0.478-0.049,0.652-0.046c0.17,0.001,1.52,0.129,1.52,0.129  s-0.672-1.227-0.728-1.399c-0.027-0.09-0.044-0.162-0.046-0.211c0.021-0.018,0.016,0.018,0.07-0.018  c0.126-0.078,0.288-0.154,0.469-0.226c0.396-0.16,0.882-0.302,1.331-0.379c0.221-0.038,0.4-0.058,0.541-0.062  c-0.269,0.627-0.039,1.173,0.428,1.521c0.207,0.151,0.447,0.264,0.658,0.347c0.204,0.081,0.423,0.153,0.632,0.226  c0.349,0.121,0.905,0.193,1.407,0.35c0.478,0.147,0.607,0.3,0.636,0.402c0.006,0.021-0.001,0.049-0.003,0.082  c-0.004,0.095-0.02,0.2-0.037,0.312c-0.043,0.253-0.108,0.521-0.163,0.72l-0.195,0.727l0.746,0.098  c0.593,0.078,0.93,0.147,0.987,0.173c0.132,0.051,0.25,0.128,0.372,0.233c0.065,0.057,0.128,0.116,0.188,0.178  c0.069,0.07,0.136,0.142,0.201,0.21c0.134,0.143,0.303,0.322,0.498,0.469c0.205,0.155,0.461,0.295,0.781,0.346  c0.268,0.041,1.382,0.125,1.703,0.162c0.451,0.054,0.944,0.16,1.452,0.3l0.557,0.151l0.223-0.533  c0.693-1.669,1.507-2.34,2.072-2.581c0.285-0.123,0.518-0.142,0.661-0.122c0.073,0.009,0.114,0.022,0.127,0.03  c-0.018-0.028-0.036-0.068-0.081-0.092l1.105,0.022c0.101-0.15,0.699-0.429,1.548-0.449c0.379-0.008,0.699,0.041,0.905,0.122  c0.101,0.041,0.146,0.078,0.162,0.092c2.341-0.147,3.457,1.027,2.966,2.036c-0.145,0.298-0.303,0.518-0.46,0.698  c-0.081,0.095-0.163,0.178-0.242,0.254c-0.087,0.084-0.172,0.159-0.252,0.23c-0.095,0.085-0.183,0.166-0.262,0.247  c-0.087,0.09-0.18,0.191-0.261,0.312c-0.174,0.255-0.281,0.553-0.281,0.917v0.463l0.434,0.156c1.753,0.632,2.064,1.796,0.691,2.729  c-0.502,0.341-0.939,0.673-1.341,0.963c-0.396,0.286-0.72,0.509-1.021,0.663c-0.544,0.276-0.99,0.332-1.63,0.006l-0.395-0.2  l-0.334,0.29c-1.595,1.387-2.354,2.983-2.731,4.682l-0.3,1.349l1.234-0.621c0.281-0.143,0.557-0.272,0.826-0.391  c9.729-4.255,9.269-0.814,9.02,0.322l-0.103,0.459l0.403,0.243c0.426,0.26,0.866,1.156,0.828,2.095  c-0.033,0.846-0.419,1.406-1.344,1.406h-0.597l-0.057,0.595c-0.089,0.944-1.856,1.667-3.474,0.549l-0.287-0.198l-0.325,0.127  c-0.896,0.352-1.948,0.668-2.775,0.657l-0.286-0.003l-0.197,0.205c-0.241,0.251-0.483,0.544-0.725,0.868l0.005-0.001  c-0.437,0.586-0.876,1.273-1.318,1.998c-0.687,1.124-1.411,2.396-2.192,3.634c-1.578,2.504-3.257,4.641-5.134,5.299l-0.261,0.093  l-0.116,0.25c-0.614,1.312-1.486,2.306-2.309,2.933c-1.821,1.389-5.507,5.055-5.507,8.725v0.656h0.656  c5.071,0,5.578,3.11,5.578,4.92c0,2.254-1.615,3.792-3.476,4.999c-0.936,0.608-1.873,1.096-2.572,1.518  c-0.359,0.216-0.699,0.438-0.956,0.669c-0.229,0.204-0.542,0.55-0.542,1.019c0,2.056,6.19,5.935,7.501,5.935  c1.921,0,2.843,1.125,3.138,1.502c1.333,1.704,1.112,4.845-1.45,4.845h-0.246l-0.262,0.232c-0.037,0.03-0.09,0.072-0.163,0.122  c-0.155,0.104-0.406,0.244-0.762,0.35c-0.701,0.208-1.866,0.306-3.59-0.338l-0.311-0.115l-0.276,0.185  c-0.845,0.549-2.933,0.388-3.455-0.49l-0.293-0.491l-0.527,0.224c-0.857,0.363-2.029,0.501-2.831,0.529  c-0.223-0.001-0.331-0.056-0.518-0.374c-0.264-0.443-0.495-1.097-0.91-1.923c-0.895-1.78-2.539-4.265-6.609-7.188  c-1.598-1.148-1.674-1.65-1.562-2.046c0.084-0.292,0.312-0.66,0.747-1.195c0.438-0.536,1.009-1.155,1.667-1.915  c1.667-1.928,1.824-3.852,1.324-5.5l-0.055-0.181l-0.143-0.124c-0.291-0.253-0.561-0.49-0.781-0.713  c-0.148-0.147-0.289-0.304-0.419-0.456l-0.243-0.286l-0.37,0.062c-2.218,0.381-4.312,0.086-5.245-0.209  C5.749,71.25,4.141,64.909,6.53,59.753c0.436-0.94,1.007-1.915,1.553-2.791c0.561-0.902,1.096-1.703,1.438-2.268  c1.006-1.657,1.687-3.515,1.583-6.252c-0.032-0.834-0.143-1.681-0.356-2.499l0.001,0.001l0,0c-0.016-0.059-0.031-0.115-0.047-0.174  l-0.135-0.478H10.07c-1.669,0-2.181-0.778-2.583-1.828c-0.23-0.609-0.404-1.253-0.654-1.819c-0.271-0.617-0.672-1.248-1.396-1.635  c-0.145-0.077-0.18-0.152-0.186-0.18c-0.009-0.025-0.007-0.051,0.015-0.08c0.625-0.935,2.764-1.875,3.623-1.875  c1.743,0,2.947,0.136,4.07,1.259c1.063,1.064,1.326,2.229,1.326,3.298c0,0.959-0.392,1.799-1.129,2.296l-0.367,0.248l0.094,0.434  c0.036,0.172,0.07,0.35,0.105,0.536l-0.002-0.001l0,0c0.494,2.653,0.702,6.541-1.583,9.993c-1.854,2.802-4.582,6.94-3.182,10.767  c0.92,2.516,3.494,4.265,7.185,3.92l0.625-0.06l-0.03-0.628c-0.105-2.188,0.923-4.625,2.867-6.866c1.917-2.21,3.81-6.48,4.1-9.666  l0.065-0.738l-0.739,0.021c-0.879,0.025-1.885-0.499-2.394-1.031c-0.061-0.062-0.106-0.121-0.145-0.171  c0.046,0,0.104-0.001,0.181-0.001c0.741,0,1.219-0.492,1.491-0.984c0.272-0.491,0.422-1.102,0.498-1.656  c0.077-0.571,0.084-1.143,0.046-1.571c-0.021-0.216-0.054-0.431-0.11-0.609c-0.162-0.509-0.533-0.635-0.754-0.635  c-0.244,0-0.447,0.077-0.593,0.154c-0.121,0.062-0.241,0.144-0.363,0.227c-0.075,0.053-0.15,0.104-0.232,0.146  c-0.059,0.03-0.085,0.034-0.095,0.035C19.354,46.636,18.96,46.396,18.659,45.951 M123.07,45.949L123.07,45.949  c-0.301,0.447-0.694,0.687-1.161,0.646c-0.011-0.001-0.037-0.004-0.096-0.035c-0.082-0.041-0.158-0.096-0.233-0.146  c-0.122-0.084-0.241-0.165-0.361-0.227c-0.147-0.075-0.353-0.152-0.595-0.152c-0.222,0-0.592,0.127-0.752,0.635  c-0.06,0.179-0.093,0.393-0.108,0.61c-0.04,0.428-0.031,0.999,0.046,1.569c0.074,0.557,0.224,1.165,0.496,1.656  c0.272,0.492,0.755,0.984,1.493,0.984c0.063,0,0.122,0.003,0.17,0.007c-0.038,0.053-0.084,0.11-0.137,0.165  c-0.51,0.532-1.515,1.058-2.392,1.032l-0.741-0.021l0.065,0.737c0.289,3.185,2.18,7.455,4.097,9.665  c1.945,2.242,2.976,4.679,2.869,6.869l-0.028,0.626l0.624,0.06c3.69,0.346,6.265-1.405,7.186-3.92  c1.4-3.827-1.327-7.964-3.183-10.766c-2.284-3.451-2.076-7.341-1.584-9.993h-0.002l0,0c0.034-0.185,0.071-0.362,0.107-0.535  l0.092-0.434l-0.368-0.247c-0.736-0.497-1.127-1.337-1.127-2.297c-0.003-1.068,0.265-2.233,1.325-3.298  c1.124-1.123,2.327-1.259,4.069-1.259c0.859,0,3,0.94,3.624,1.875c0.02,0.029,0.02,0.054,0.015,0.08  c-0.006,0.025-0.043,0.102-0.187,0.18c-0.722,0.388-1.122,1.019-1.396,1.637c-0.25,0.564-0.423,1.21-0.654,1.817  c-0.397,1.049-0.912,1.828-2.581,1.828h-0.496l-0.138,0.479c-0.019,0.058-0.03,0.114-0.048,0.173h0.002  c-0.215,0.818-0.325,1.666-0.354,2.499c-0.104,2.735,0.577,4.594,1.584,6.252c0.344,0.564,0.875,1.363,1.438,2.266  c0.546,0.877,1.118,1.854,1.555,2.792c2.389,5.153,0.779,11.497-5.044,13.343c-0.933,0.296-3.027,0.591-5.244,0.21l-0.371-0.062  l-0.241,0.286c-0.131,0.155-0.271,0.308-0.42,0.456c-0.223,0.224-0.49,0.461-0.781,0.713l-0.143,0.123l-0.057,0.182  c-0.5,1.649-0.344,3.572,1.323,5.498c0.66,0.762,1.23,1.381,1.667,1.917c0.435,0.535,0.664,0.903,0.75,1.196  c0.11,0.391,0.036,0.896-1.564,2.046c-4.069,2.923-5.715,5.406-6.607,7.188c-0.414,0.825-0.647,1.479-0.909,1.922  c-0.188,0.318-0.3,0.372-0.519,0.375c-0.802-0.029-1.974-0.169-2.832-0.529l-0.524-0.227l-0.296,0.493  c-0.521,0.876-2.611,1.038-3.452,0.49l-0.276-0.184l-0.311,0.115c-1.725,0.643-2.89,0.545-3.59,0.337  c-0.356-0.104-0.606-0.243-0.762-0.348c-0.07-0.052-0.128-0.096-0.162-0.123c-3.07-0.232-3.29-3.374-1.959-5.077  c0.296-0.377,1.217-1.501,3.138-1.501c1.309,0,7.502-3.884,7.502-5.936c0-0.469-0.313-0.812-0.543-1.021  c-0.257-0.227-0.595-0.449-0.956-0.666c-0.704-0.422-1.641-0.91-2.575-1.519c-1.856-1.207-3.477-2.748-3.477-4.999  c0-1.812,0.51-4.921,5.578-4.921h0.655v-0.656c0-3.67-3.686-7.335-5.509-8.725c-0.821-0.627-1.691-1.619-2.306-2.933l-0.117-0.249  l-0.261-0.092c-1.879-0.659-3.557-2.793-5.137-5.299c-0.78-1.238-1.507-2.508-2.189-3.634c-0.441-0.726-0.878-1.412-1.321-1.998  l0.002-0.002l0,0c-0.242-0.324-0.481-0.617-0.725-0.868l-0.195-0.206l-0.284,0.004c-0.83,0.011-1.885-0.306-2.776-0.657  l-0.324-0.127l-0.289,0.198c-1.615,1.118-3.383,0.395-3.473-0.549l-0.059-0.594h-0.596c-0.924,0-1.31-0.562-1.344-1.408  c-0.036-0.938,0.402-1.834,0.83-2.095l0.4-0.242l-0.102-0.459c-0.251-1.138-0.712-4.577,9.019-0.323  c0.271,0.118,0.548,0.25,0.828,0.392l1.236,0.621l-0.301-1.349c-0.377-1.698-1.138-3.295-2.733-4.682l-0.334-0.291l-0.393,0.201  c-0.641,0.326-1.086,0.271-1.631-0.007c-0.303-0.153-0.627-0.376-1.021-0.663c-0.401-0.292-0.84-0.623-1.341-0.964  c-1.374-0.935-1.065-2.098,0.689-2.729l0.435-0.157v-0.461c0-0.365-0.107-0.664-0.282-0.917c-0.08-0.119-0.172-0.223-0.262-0.312  c-0.079-0.081-0.167-0.162-0.265-0.247c-0.08-0.071-0.164-0.146-0.252-0.231c-0.078-0.076-0.16-0.159-0.242-0.253  c-0.155-0.181-0.312-0.401-0.458-0.698c-0.492-1.009,0.624-2.183,2.051-1.54l0.923-0.521c0.015-0.018,0.053-0.028,0.152-0.068  c0.205-0.081,0.525-0.131,0.906-0.122c0.849,0.02,1.445,0.297,1.548,0.448l1.105-0.021c-0.046,0.021-0.063,0.062-0.082,0.092  c0.015-0.006,0.055-0.021,0.128-0.03c0.143-0.018,0.376,0,0.662,0.122c0.562,0.241,1.377,0.913,2.071,2.583l0.224,0.533l0.558-0.15  c0.511-0.142,1-0.247,1.449-0.3c0.322-0.038,1.438-0.121,1.704-0.163c0.319-0.051,0.577-0.188,0.781-0.346  c0.195-0.147,0.363-0.326,0.498-0.469c0.064-0.067,0.133-0.141,0.2-0.211c0.061-0.061,0.12-0.12,0.186-0.177  c0.124-0.104,0.241-0.184,0.374-0.232c0.061-0.021,0.393-0.097,0.987-0.173l0.747-0.098L106.1,24.31  c-0.054-0.199-0.12-0.468-0.163-0.722c-0.021-0.109-0.031-0.216-0.036-0.311c-0.002-0.032-0.01-0.062-0.004-0.083  c0.03-0.103,0.16-0.254,0.637-0.402c0.503-0.156,1.059-0.229,1.405-0.35c0.211-0.071,0.429-0.145,0.633-0.226  c0.212-0.084,0.452-0.195,0.658-0.347c0.472-0.352,0.704-0.908,0.42-1.542c0.13,0.013,0.309,0.04,0.55,0.081  c0.448,0.078,0.935,0.219,1.331,0.378c0.183,0.074,0.345,0.148,0.469,0.226c0.023,0.017,0.048,0.029,0.063,0.042  c-0.008,0.054-0.02,0.123-0.042,0.186c-0.056,0.174-0.728,1.4-0.728,1.4s1.349-0.129,1.52-0.13c0.178-0.001,0.413,0.007,0.654,0.047  c0.347,0.058,0.673,0.127,0.957,0.173c0.282,0.046,0.642,0.09,0.961,0.019c0.401-0.089,0.75-0.365,0.854-0.852  c0.053-0.241,0.036-0.509-0.02-0.789c0.259,0.05,0.59,0.156,0.938,0.321c1.103,0.527,1.517,1.179,1.352,1.629  c-0.131,0.361-0.627,0.712-0.647,0.728l-0.771,0.515c0,0,0.788,0.586,0.806,0.603c0.036,0.028,0.088,0.073,0.148,0.134  c0.126,0.128,0.296,0.329,0.443,0.608c0.466,0.876,1.451,0.569,1.854,0.342c0.414-0.237,0.871-0.696,0.995-1.295  c0.516,0.543,1.008,1.438,1.07,2.094c0.056,0.572-0.092,1.225-0.355,1.428c-0.094,0.071-0.6,0.15-0.683,0.16l-0.942,0.106  c0,0,0.496,0.966,0.546,1.133c0.059,0.207,0.118,0.531,0.101,0.97c-0.044,1.111,1.011,1.295,1.571,1.203  c0.434-0.072,0.918-0.299,1.283-0.68c0.041,0.081,0.085,0.177,0.129,0.282c0.299,0.727,0.459,1.68,0.259,2.365  c-0.114,0.398-0.688,0.941-0.875,0.983c-0.049,0.011-0.125,0.018-0.234,0.012c-0.119-0.005-0.235-0.021-0.346-0.034  c-0.166-0.021-0.309-0.031-0.408-0.025c-0.6,0.035-0.769,0.393-0.717,0.81c0.021,0.174,0.03,0.294,0.027,0.428  c-0.002,0.154-0.019,0.325-0.034,0.587c-0.149,2.029,1.567,2.028,2.681,1.427c0.05,0.28,0.076,0.646,0.062,1.041  c-0.021,0.555-0.118,1.099-0.3,1.5c-0.182,0.403-0.389,0.555-0.591,0.59c-0.469,0.079-0.664-0.01-0.722-0.04  c-0.876-0.442-1.104-0.14-1.21,0.372c-0.02,0.086-0.031,0.169-0.062,0.277c-0.032,0.107-0.085,0.241-0.176,0.431  c-0.484,1.026-0.035,1.818,0.866,1.998c0.422,0.084,0.917,0.027,1.354-0.103c-0.005,0.269-0.049,0.609-0.144,0.965  c-0.102,0.388-0.247,0.718-0.423,0.979"/>
<g>
	<path fill="#010101" d="M97.086,69.906c0-1.531-1.241-2.776-2.772-2.781h-5.458v8.975h2.138v-3.417h1.604l2.562,3.417h2.564   l-2.632-3.524C96.249,72.237,97.086,71.171,97.086,69.906z M94.097,70.759h-3.104V69.05h3.104c0.469,0.002,0.85,0.386,0.85,0.854   C94.946,70.373,94.566,70.756,94.097,70.759z"/>
	<path fill="#010101" d="M53.979,73.384c0-0.766-0.316-1.458-0.825-1.952c0.382-0.456,0.613-1.043,0.615-1.685   c0-1.445-1.168-2.616-2.613-2.619h-6.149v8.979h6.252C52.762,76.105,53.979,74.884,53.979,73.384z M47.144,69.054h3.739   c0.412,0,0.748,0.338,0.748,0.75c0,0.413-0.336,0.748-0.748,0.748h-3.739V69.054z M47.144,74.183v-1.711h3.85   c0.473,0,0.853,0.387,0.853,0.855c0,0.473-0.38,0.854-0.853,0.854L47.144,74.183L47.144,74.183z"/>
	<path fill="#010101" d="M72.94,45.532h-6.15v6.146h0.001v2.831h6.254c1.502-0.002,2.72-1.223,2.72-2.726   c0-0.036,0-0.07-0.005-0.105h0.002c-0.025-0.724-0.338-1.374-0.821-1.847c0.384-0.454,0.611-1.041,0.611-1.683   C75.553,46.705,74.385,45.534,72.94,45.532z M68.928,47.455h3.737c0.414,0,0.75,0.337,0.75,0.749c0,0.414-0.336,0.749-0.75,0.749   h-3.737V47.455z M73.631,51.728c0,0.474-0.383,0.856-0.854,0.856h-3.85v-0.908h0.001v-0.802h3.85c0.454,0,0.824,0.354,0.852,0.803   h-0.001C73.63,51.695,73.631,51.71,73.631,51.728z"/>
	<polygon fill="#010101" points="77.743,76.099 85.865,76.099 85.865,74.178 79.881,74.178 79.881,72.467 85.649,72.467    85.649,70.543 79.881,70.544 79.881,69.048 85.865,69.048 85.865,67.125 77.743,67.125  "/>
	<path fill="#010101" d="M59.657,67.125l-4.487,8.975h2.294l0.723-1.493h5.023l0.722,1.493h2.294l-4.489-8.975H59.657z    M59.122,72.68l1.577-3.261l1.576,3.261H59.122z"/>
	<path fill="#010101" d="M67.614,65.202l0.724-1.497h5.022l0.722,1.497h2.298l-3.062-6.118l-1.431-2.859h-2.08l-1.429,2.859   l-3.059,6.118H67.614z M70.849,58.522l0.271,0.562h0.002l1.304,2.698h-3.153l1.305-2.698h-0.001L70.849,58.522z"/>
	<path fill="#010101" d="M66.79,98.114h2.139v-3.419h2.457l2.562,3.419h2.566l-2.696-3.617c1.017-0.415,1.729-1.413,1.729-2.577   c0-1.531-1.233-2.772-2.762-2.783h-5.995L66.79,98.114L66.79,98.114z M68.928,91.062h3.635c0.468,0.005,0.848,0.386,0.848,0.855   c0,0.467-0.379,0.849-0.846,0.854h-3.637V91.062z"/>
	<polygon fill="#010101" points="74.91,79.949 74.91,78.024 66.79,78.024 66.79,83.159 66.79,87 74.91,87 74.91,85.077    68.928,85.077 68.928,83.367 74.696,83.367 74.696,83.159 74.696,81.444 68.928,81.444 68.928,79.949  "/>
	<polygon fill="#010101" points="69.78,72.967 69.78,76.099 71.919,76.099 71.919,72.967 76.471,67.125 73.898,67.125 70.85,71.211    67.801,67.125 65.229,67.125  "/>
	<polygon fill="#010101" points="58.817,28.387 57.259,28.865 55.321,30.61 56.073,31.93 57.477,30.638 57.503,30.63 57.992,32.232    59.407,36.862 59.406,36.862 59.625,37.579 61.456,37.02 61.408,36.862 59.992,32.232 59.993,32.232  "/>
	<path fill="#010101" d="M63.579,35.044c-0.432,0.086-0.684,0.132-0.947,0.134l0.215,1.525c0.244-0.012,0.637-0.062,1.011-0.147   c1.391-0.245,2.531-0.834,3.296-1.732c0.572-0.683,0.947-1.543,1.059-2.589l-1.862-0.001c-0.061,0.742-0.372,1.408-0.932,1.923   C64.952,34.598,64.282,34.907,63.579,35.044z"/>
	<path fill="#010101" d="M68.166,30.493c-0.297-2.128-1.686-3.707-4.001-3.381c-1.995,0.278-3.245,1.943-2.997,3.714   c0.077,0.556,0.284,1.029,0.583,1.405L66.3,32.23c0.005-0.008,0.01-0.016,0.017-0.021l0.034,0.008c0,0.005-0.001,0.01-0.001,0.015   h0.001h1.861C68.268,31.701,68.255,31.121,68.166,30.493z M66.06,30.857c-0.188,0.412-0.615,0.78-1.292,0.875   c-0.945,0.133-1.542-0.48-1.658-1.297c-0.136-0.957,0.357-1.749,1.192-1.865c1.113-0.156,1.666,0.817,1.8,1.838   C66.128,30.597,66.108,30.735,66.06,30.857z"/>
	<path fill="#010101" d="M37.401,28.117c0,0-0.851-1.378-2.116-1.377c-0.514,0-1.769,1.48-1.173,2.022   C34.608,29.214,37.401,28.117,37.401,28.117z M35.365,27.453c0.306,0,0.557,0.167,0.781,0.342c-0.554,0.182-1.17,0.373-1.422,0.431   C34.897,27.8,35.298,27.453,35.365,27.453z"/>
	<path fill="#010101" d="M64.448,33.217c0.867-0.122,1.472-0.463,1.853-0.986H61.75C62.364,33.007,63.367,33.372,64.448,33.217z"/>
	<path fill="#010101" d="M72.651,35.984c2.15,0.113,3.362-1.429,3.687-3.752l0,0c0.033-0.252,0.06-0.512,0.071-0.781   c0.139-2.604-0.826-4.675-3.203-4.799c-2.32-0.121-3.624,1.797-3.767,4.503c-0.018,0.371-0.012,0.731,0.017,1.075h-0.001   C69.627,34.359,70.665,35.881,72.651,35.984z M71.413,31.219c0.107-2.079,0.769-3.138,1.669-3.091   c0.98,0.052,1.435,1.191,1.325,3.249c-0.016,0.306-0.042,0.59-0.078,0.854l0,0c-0.212,1.539-0.761,2.327-1.597,2.284   c-0.75-0.04-1.252-0.813-1.327-2.283C71.39,31.925,71.392,31.587,71.413,31.219z"/>
	<path fill="#010101" d="M136.6,40.593c0.552-0.294,0.662-0.826,0.409-1.202c-0.766-1.146-5.562-3.664-8.7-0.717   c-1.259,1.179-1.523,2.571-1.523,3.764c0,0.658,0.158,1.291,0.474,1.832h0.002c0.23,0.394,0.544,0.738,0.944,1.009   c-0.35,1.654-0.655,3.96-0.236,6.398l0.001,0.001h-0.001c0.262,1.531,0.81,3.116,1.811,4.626c0.566,0.855,1.183,1.793,1.731,2.78   h-0.001c1.313,2.346,2.269,4.964,1.38,7.396c-0.002,0.004-0.003,0.008-0.004,0.012h0.001c-0.814,2.213-3.111,3.83-6.588,3.474   c0.054-1.133-0.168-2.307-0.626-3.474c-0.519-1.314-1.336-2.62-2.402-3.85c-0.778-0.897-1.558-2.165-2.22-3.559   c-0.891-1.88-1.564-3.99-1.724-5.739c1.383,0.085,2.91-0.906,3.301-1.667h-0.001c0.238-0.465,0.06-0.845-0.836-0.845   c-1.614,0-1.567-4.146-1.173-4.146c0.405,0,0.749,0.521,1.231,0.562c1.611,0.139,2.323-1.72,2.427-2.979v-0.001   c0.061-0.716-0.078-1.238-0.356-1.087c-0.855,0.466-2.545,0.547-1.913-0.794c0.22-0.46,0.245-0.646,0.289-0.854   c0.047-0.229,0.211,0.381,1.4,0.181c2.013-0.339,1.544-5.346,0.812-4.643c-0.876,0.844-2.001,0.77-2.119-0.208h-0.001   c-0.011-0.094-0.014-0.194-0.005-0.306c0.041-0.561,0.058-0.726,0.003-1.145c-0.021-0.196,0.687,0.074,1.2-0.041   c0.476-0.106,1.195-0.874,1.359-1.44c0.151-0.524,0.142-1.127,0.038-1.697h0.003c-0.244-1.36-1.002-2.528-1.268-1.963   c-0.454,0.969-2.021,1.221-1.984,0.332c0.039-1.025-0.287-1.583-0.287-1.583s0.737-0.083,1.008-0.292   c0.562-0.43,0.667-1.417,0.61-2.01c-0.158-1.694-2.348-4.109-2.348-2.349c0,0.86-1.309,1.591-1.645,0.961   c-0.369-0.694-0.841-1.007-0.841-1.007s0.686-0.458,0.899-1.047c0.752-2.069-4.022-3.629-3.659-2.474   c0.555,1.768-0.519,1.327-1.896,1.102c-0.564-0.095-1.108-0.039-1.108-0.039s0.425-0.762,0.188-1.148   c-0.413-0.682-4.614-1.791-3.678-0.264c0.498,0.812-0.454,1.087-1.251,1.361c-0.69,0.237-2.197,0.285-2.462,1.189   c-0.09,0.303,0.082,1.038,0.2,1.469c-0.577,0.073-0.998,0.154-1.145,0.213c-0.867,0.341-1.162,1.283-1.899,1.399   c-0.266,0.041-1.362,0.122-1.681,0.16c-0.479,0.055-1.005,0.17-1.55,0.317c-1.476-3.551-3.66-3.318-3.943-2.854   c-0.601-0.896-3.676-1.086-3.806,0.029c-0.846-0.383-2.104-0.182-2.744,0.5c-5.54-2.098-11.554-3.241-17.834-3.241   c-6.278,0-12.291,1.146-17.838,3.239c-0.638-0.682-1.896-0.882-2.743-0.5c-0.131-1.117-3.206-0.926-3.805-0.029   c-0.285-0.465-2.469-0.696-3.946,2.854c-0.543-0.148-1.068-0.263-1.549-0.317c-0.318-0.038-1.415-0.119-1.678-0.16   c-0.739-0.115-1.034-1.06-1.901-1.399c-0.146-0.059-0.566-0.14-1.142-0.213c0.118-0.432,0.29-1.167,0.201-1.469   c-0.266-0.904-1.772-0.952-2.463-1.189c-0.799-0.272-1.749-0.549-1.25-1.361c0.938-1.527-3.266-0.419-3.679,0.264   c-0.233,0.387,0.188,1.148,0.188,1.148s-0.542-0.056-1.107,0.039c-1.378,0.226-2.451,0.667-1.895-1.102   c0.363-1.154-4.413,0.404-3.66,2.473c0.215,0.591,0.898,1.048,0.898,1.048s-0.472,0.312-0.84,1.007   c-0.336,0.63-1.644-0.101-1.644-0.961c0-1.763-2.19,0.654-2.349,2.349c-0.057,0.592,0.05,1.579,0.61,2.01   c0.271,0.209,1.007,0.292,1.007,0.292s-0.326,0.558-0.286,1.583c0.034,0.889-1.53,0.637-1.983-0.332   c-0.266-0.565-1.022,0.6-1.269,1.957l0.008,0.008h-0.008c-0.102,0.569-0.112,1.174,0.038,1.696c0.165,0.567,0.885,1.333,1.361,1.44   c0.511,0.115,1.222-0.156,1.198,0.041c-0.053,0.417-0.038,0.583,0.003,1.145c0.009,0.11,0.007,0.21-0.004,0.305   c-0.119,0.979-1.241,1.052-2.118,0.209c-0.732-0.703-1.198,4.304,0.812,4.643c1.188,0.2,1.354-0.41,1.399-0.181   c0.043,0.208,0.07,0.396,0.287,0.854c0.633,1.34-1.057,1.259-1.911,0.794c-0.279-0.15-0.417,0.37-0.357,1.085h-0.001   c0.104,1.26,0.814,3.117,2.427,2.98c0.48-0.042,0.823-0.562,1.229-0.562c0.396,0,0.444,4.145-1.17,4.145   c-0.892,0-1.075,0.38-0.834,0.844h0.01l-0.007,0.002c0.392,0.761,1.917,1.752,3.299,1.667c-0.157,1.75-0.83,3.858-1.72,5.739   h-0.001c-0.661,1.396-1.442,2.662-2.22,3.56c-1.067,1.229-1.886,2.534-2.401,3.85h-0.001c-0.459,1.166-0.679,2.341-0.626,3.474   c-3.476,0.355-5.774-1.261-6.588-3.474c-0.002-0.004-0.003-0.009-0.004-0.012c-0.89-2.432,0.067-5.05,1.38-7.396l-0.001-0.001   h0.001c0.552-0.987,1.166-1.924,1.733-2.78c1-1.51,1.548-3.096,1.811-4.625v-0.001c0.418-2.438,0.111-4.744-0.239-6.398   c0.401-0.271,0.714-0.614,0.946-1.008h0.001c0.315-0.541,0.472-1.173,0.472-1.832c0-1.192-0.264-2.583-1.521-3.764   c-3.144-2.947-7.938-0.429-8.702,0.716c-0.252,0.377-0.142,0.909,0.41,1.203c1.248,0.665,1.337,2.364,1.991,3.673l0,0   c0.472,0.945,1.237,1.687,2.948,1.687c0.229,0.814,0.349,1.669,0.381,2.518c0.048,1.239-0.073,2.283-0.317,3.205h0.002   l-0.001,0.001c-0.265,1.004-0.675,1.866-1.17,2.679c-0.638,1.051-1.938,2.917-2.834,4.729c-0.065,0.132-0.13,0.265-0.19,0.396   c-1.037,2.237-1.364,4.725-0.941,7.011h0.002c0.596,3.23,2.687,6.063,6.382,7.233c1.043,0.333,3.28,0.637,5.629,0.218   c0.145,0.177,0.301,0.347,0.468,0.512c0.2,0.201,0.438,0.414,0.695,0.639c0.476,1.465,0.387,3.193-1.16,4.982   c-1.189,1.371-2.094,2.288-2.449,3.082h0.005l-0.008,0.005c-0.436,0.979-0.035,1.782,1.709,3.034   c6.102,4.379,6.552,7.684,7.386,8.991c-1.29,0.188-2.607,0.438-3.962,0.759c-0.651,0.151-1.979,0.514-1.542,2.472l0.312,1.406   h0.003l3.117,14.022c0.511,2.281,2.211,1.727,3.024,1.508c14.839-3.926,21.998,6.689,46.256,6.689   c24.26,0,31.418-10.614,46.259-6.689c0.812,0.219,2.514,0.773,3.022-1.508l3.119-14.025l-0.003-0.005h0.002l0.312-1.403   c0.435-1.959-0.893-2.322-1.542-2.476c-1.354-0.319-2.673-0.57-3.965-0.757c0.834-1.309,1.285-4.613,7.39-8.994   c1.743-1.253,2.143-2.051,1.706-3.033l0,0c-0.354-0.795-1.259-1.712-2.447-3.08c-1.548-1.789-1.637-3.519-1.161-4.982   c0.257-0.225,0.495-0.438,0.695-0.639c0.167-0.166,0.324-0.337,0.468-0.512c2.348,0.419,4.585,0.115,5.63-0.217   c3.694-1.171,5.788-4.004,6.382-7.233v-0.001l0,0c0.422-2.286,0.097-4.772-0.942-7.011c-0.062-0.132-0.125-0.265-0.19-0.396   c-0.896-1.812-2.195-3.678-2.832-4.729c-0.494-0.814-0.904-1.675-1.169-2.68h-0.003l0.003-0.001   c-0.244-0.921-0.365-1.965-0.319-3.204c0.032-0.848,0.15-1.704,0.383-2.518c1.71,0,2.477-0.741,2.949-1.687l-0.002-0.001h0.002   C135.264,42.958,135.353,41.259,136.6,40.593z M106.985,23.292c1.056-0.219,1.655-0.387,2.387-0.812   c0.636-0.368,1-1.027,0.877-1.358c-0.143-0.37,0.975,0.009,1.079,0.213c0.186,0.346-0.769,1.76-0.769,1.76s1.313-0.104,2.117-0.062   c1.147,0.061,1.841,0.358,2.648,0.27c0.971-0.105,1.506-0.869,1.439-1.422c-0.043-0.337,1.263,0.588,1.224,0.976   c-0.027,0.301-0.464,0.826-1.528,1.522c1.857,1.084,1.394,2.402,2.995,2.465c0.47,0.02,1.729-0.345,1.859-1.024   c0.082-0.41,0.956,1.118,0.435,1.887c-0.271,0.401-0.563,0.36-1.894,0.449c0.535,1.055,0.621,1.557,0.621,2.444   c0,0.854,0.274,1.171,0.926,1.576c0.03,0.021,0.064,0.04,0.104,0.058h-0.002c0.42,0.21,1.157,0.323,1.755,0.002h0.006   c0.124-0.067,0.242-0.154,0.35-0.263c0.065-0.063,0.127,0.058,0.178,0.259h-0.003c0.096,0.392,0.136,1.084,0.025,1.36   c-0.159,0.406-0.392,0.629-1.053,0.609c-1.002-0.029-1.566-0.231-1.551-0.045c0.04,0.522,0.068,1.339-0.021,2.708l0,0   c-0.002,0.042-0.006,0.084-0.01,0.127c-0.111,1.572,1.592,2.283,2.756,1.668c0.299-0.156,0.02,1.838-0.528,1.892   c-1.027,0.103-1.98-0.838-2.022-0.562c-0.257,1.613-0.611,1.782-0.712,2.561c-0.105,0.842,0.218,1.397,0.651,1.723h-0.002   c0.511,0.38,1.183,0.449,1.521,0.304c0.432-0.188-0.132,1.779-1.043,1.418c-0.316-0.127-0.75-0.521-1.17-0.521   c-0.667,0-1.073,0.232-1.347,1.101c-0.14,0.44-0.212,1.394-0.064,2.367c0.092,0.615,0.22,1.222,0.542,1.805   c0.19,0.341,0.549,0.72,0.879,0.804c0.11,0.03,0.148,0.077,0.131,0.134h0.002c-0.08,0.25-1.272,0.669-1.922,0.289   c-0.095-0.057-0.186-0.157-0.273-0.289h-0.002c-0.5-0.762-0.859-2.566-0.974-2.85c-0.389-0.972-1.054-1.263-1.609-1.263   c-0.814,0-1.461,0.489-1.659,1.26c-0.137,0.514-0.033,1.054,0.034,1.374c0.059,0.257,0.269,1.03,0.388,1.479   c0.038,0.142,0.063,0.25,0.075,0.298c0.446,2.148-1.912,2.228-1.662,1.959c0.295-0.313,0.316-1.211,0.159-2.257v-0.001   c-0.038-0.249-0.084-0.505-0.142-0.764c-0.066-0.311-0.331-1.409-0.581-1.835c-0.387-0.656-0.928-0.838-1.281-0.838   c-1.854,0-2.14,1.48-2.129,2.328c0.002,0.182,0.026,0.65,0.052,1.11h0.003c0.021,0.454,0.045,0.897,0.045,1.04   c0,2.531-3.211,1.881-2.665,1.635c0.574-0.258,0.95-1.113,1.152-2.675l-0.002-0.002h0.002c0.02-0.144,0.034-0.294,0.051-0.449   c0.153-1.531-0.253-3.062-0.377-3.097c-1.289-0.394-2.604-0.429-3.399,1.158c-0.2,0.398-0.378,1.095-0.632,1.307   c-0.526,0.437-1.599-0.015-1.846-0.716c1.165-0.437,1.217-2.123,0.667-3.243c-0.252-0.51-0.467-1.212-0.621-1.998   c-0.185,0.204-1.283,1.03-1.838,0.849c-0.247-0.082-0.501-0.748-0.571-1.217v-0.002h-0.003c-0.049-0.313-0.016-0.542,0.158-0.443   c0.927,0.519,2.041-0.65,2.459-1.198c0.225-0.295,0.692-0.926,0.761-2.094c0.047-0.815,0.122-1.833,1.016-2.559   c2.109,0.117,4.469,0.143,5.04-0.169c0.509-0.275,0.92-0.625,1.275-0.941h0.009c0.466-0.421,0.829-0.786,1.161-0.851   c1.361-0.263,2.881-0.82,3.527-2.317c0.265-0.609,0.346-1.053,0.317-1.462h0.005c-0.051-0.794-0.499-1.48-0.8-3.034   c1.676-1.292,1.603-2.528,0.757-3.255c-0.356-0.31-1.494-0.492-2.569-0.492c-0.298-1.199-3.331-1.273-5.592-1.104   c-0.051-0.177-0.106-0.387-0.154-0.55C106.493,23.479,106.493,23.393,106.985,23.292z M112.772,82.657   c0,0.146-0.054,0.315-0.151,0.503c-0.914,1.707-5.646,4.776-6.691,4.776c-2.225,0-3.317,1.323-3.654,1.752   c-1.157,1.481-1.605,5.132,1.047,5.803c-5.67,0.963-11.032,2.667-16.668,4.052c6.435-3.634,11.491-9.42,14.193-16.38h-0.001   c1.402-3.608,2.171-7.533,2.171-11.639c0-1.71-0.134-3.39-0.39-5.029c-0.405-2.583-1.121-5.064-2.103-7.406   c-1.121-2.673-2.593-5.161-4.361-7.407v0.001h-0.01l0.009-0.003c-1.86-2.374-4.054-4.476-6.501-6.244   c0.525-0.093,1.04-0.293,1.486-0.599c0.906,0.355,2.062,0.714,3.023,0.702c1.201,1.252,2.499,3.739,3.994,6.143l0.005,0.001h-0.005   c1.576,2.532,3.379,4.974,5.525,5.784c0.278,0.604,0.608,1.146,0.964,1.624l0,0c0.488,0.655,1.029,1.188,1.558,1.59   c1.388,1.058,3.698,3.327,4.729,5.815h0.001c0.323,0.785,0.521,1.589,0.521,2.385c-5.596,0-6.234,3.593-6.234,5.577   C105.226,79.681,112.772,81.292,112.772,82.657z M39.455,89.688c-0.337-0.429-1.428-1.751-3.653-1.751   c-1.047,0-5.778-3.07-6.691-4.777l-0.002-0.001h0.002c-0.099-0.187-0.154-0.355-0.154-0.502c0-1.366,7.549-2.978,7.549-8.205   c0-1.982-0.641-5.577-6.236-5.577c0-0.795,0.197-1.602,0.521-2.385c1.029-2.489,3.343-4.761,4.729-5.816   c0.528-0.401,1.069-0.935,1.558-1.59l-0.002-0.002h0.004c0.355-0.478,0.687-1.021,0.963-1.623c2.149-0.811,3.949-3.25,5.527-5.784   l0,0c1.497-2.404,2.792-4.889,3.993-6.141c0.962,0.012,2.117-0.348,3.023-0.702c0.444,0.305,0.961,0.506,1.485,0.599   c-2.45,1.77-4.639,3.872-6.503,6.245h0.002l-0.002,0.001c-1.765,2.247-3.237,4.735-4.357,7.407   c-0.984,2.34-1.697,4.822-2.104,7.406l0,0c-0.258,1.64-0.391,3.318-0.391,5.03c0,4.104,0.769,8.027,2.17,11.636h0.002l-0.003,0.004   c2.702,6.96,7.759,12.745,14.193,16.38c-5.635-1.383-10.999-3.088-16.667-4.053C41.062,94.82,40.613,91.169,39.455,89.688z    M36.771,54.009c-0.066-0.341-1.217,0.293-1.572-2.333h-0.003c-0.021-0.168-0.042-0.353-0.059-0.549   c-0.087-1.09,0.096-1.956,0.146-1.964c1.63-0.267,1.209,1.741,2.362,2.514h0.001c0.1,0.066,0.212,0.126,0.338,0.172   c0.861,0.316,1.596,0.189,2.172-0.172h-0.001c0.925-0.582,1.446-1.769,1.435-2.721c-1.285,0.07-1.454-0.882-1.043-1.675   c0.173-0.333,0.264-0.958,0.264-0.958s0.533,0.422,1.224,0.32c0.854-0.125,1.364-1.275,1.545-2.375l-0.003-0.003   c0.209-1.264-0.019-2.458-0.652-1.934c-0.73,0.602-1.501,0.269-1.99-0.314c2.215-0.847,4.534-2.252,5.634-2.737   c4.879-2.153,6.945-2.14,7.7-1.85c0.258,0.1,0.489,0.394,0.383,1.016c-0.603-0.271-1.523-0.219-1.523-0.219   c-0.873,0.062-0.778,1.372,0.096,1.31c2.098,0.015,2.572,1.401,2.492,2.187c-0.042,0.409-0.104,0.761-0.759,0.698   c-0.603-1.215-1.516-1.588-1.516-1.588c-0.79-0.378-1.354,0.807-0.564,1.185c0.376,0.196,0.99,0.722,0.897,1.417   c-0.043,0.32-0.204,0.574-0.644,0.643c-0.546,0.084-1.247-0.026-1.766-0.383l-0.604-0.416c0,0-2.299,1.049-3.784,0.866   l-0.116,0.121h0.173l-0.167,0.003l-0.298,0.311c-0.811,0.846-1.604,2.099-2.362,3.359c-0.708,1.177-1.458,2.486-2.27,3.735l0,0   c-0.059,0.091-0.12,0.186-0.179,0.274c-1.841,2.777-3.533,4.413-5.218,4.413c-0.767,0-1.317-0.241-1.702-0.634   C35.988,55.53,36.929,54.807,36.771,54.009z M45.159,38.424c0.119-0.536,0.278-1.059,0.493-1.563h0.001   c0.421-0.991,1.057-1.917,2.029-2.764c1.175,0.599,2.002,0.216,3.052-0.521l0.813,2.553c-0.744,0.15-1.604,0.388-2.595,0.73h-0.007   c-0.872,0.302-1.845,0.683-2.929,1.157C45.737,38.141,45.45,38.279,45.159,38.424z M44.104,83.161L44.1,83.157h0.005   c-1.552-3.564-2.413-7.501-2.413-11.636c0-1.714,0.148-3.396,0.432-5.029c0.453-2.604,1.249-5.089,2.344-7.408   c1.287-2.728,2.984-5.224,5.013-7.407l-0.001-0.001h0.001c3.01-3.24,6.746-5.797,10.951-7.407l-0.072-0.003h0.066   c3.238-1.242,6.756-1.921,10.434-1.921c3.675,0,7.191,0.679,10.432,1.921l0.014,0.001h-0.008c4.207,1.61,7.941,4.167,10.951,7.408   l0.015,0.003h-0.014c2.028,2.185,3.727,4.679,5.015,7.407c1.094,2.319,1.893,4.804,2.343,7.407   c0.285,1.634,0.434,3.313,0.434,5.029c0,4.135-0.862,8.072-2.416,11.636c-3.574,8.209-10.814,14.45-19.657,16.664h0.182   l-0.18,0.004c-2.275,0.567-4.655,0.871-7.104,0.871c-2.45,0-4.829-0.304-7.104-0.871h-0.008   C54.916,97.612,47.678,91.368,44.104,83.161z M105.192,56.366c-1.684,0-3.376-1.635-5.214-4.414   c-0.061-0.091-0.122-0.185-0.183-0.274h-0.002l0.002-0.001c-0.812-1.249-1.562-2.56-2.271-3.736   c-0.758-1.261-1.55-2.515-2.361-3.36l-0.298-0.311h-0.06l0.055-0.003l-0.114-0.121c-1.483,0.184-3.783-0.866-3.783-0.866   l-0.604,0.417c-0.517,0.354-1.219,0.467-1.767,0.383c-0.438-0.069-0.6-0.323-0.644-0.644c-0.094-0.694,0.521-1.219,0.898-1.417   c0.792-0.378,0.225-1.562-0.564-1.185c0,0-0.915,0.374-1.519,1.588c-0.654,0.062-0.714-0.289-0.755-0.698   c-0.08-0.786,0.393-2.173,2.492-2.186c0.875,0.062,0.969-1.247,0.096-1.311c0,0-0.92-0.052-1.524,0.219   c-0.104-0.622,0.126-0.917,0.386-1.016c0.754-0.291,2.819-0.305,7.698,1.85c1.101,0.485,3.422,1.891,5.638,2.737   c-0.489,0.584-1.261,0.917-1.99,0.314c-0.634-0.524-0.861,0.67-0.652,1.934h0.003c0.183,1.1,0.69,2.25,1.546,2.375   c0.691,0.101,1.225-0.32,1.225-0.32s0.091,0.625,0.265,0.958c0.41,0.793,0.24,1.744-1.042,1.675   c-0.012,0.953,0.509,2.14,1.434,2.721h0.002l-0.005,0.002c0.577,0.361,1.312,0.487,2.174,0.172c0.126-0.047,0.236-0.104,0.34-0.172   l-0.005-0.001h0.007c1.15-0.772,0.73-2.781,2.361-2.514c0.05,0.008,0.234,0.874,0.146,1.964c-0.019,0.196-0.038,0.379-0.061,0.549   h0.001l-0.001,0.002c-0.357,2.627-1.508,1.992-1.573,2.334c-0.159,0.799,0.782,1.52,1.937,1.721   C106.512,56.124,105.961,56.366,105.192,56.366z M96.567,38.423c-0.292-0.146-0.577-0.284-0.857-0.407   c-1.086-0.474-2.058-0.856-2.931-1.157h-0.008c-0.988-0.343-1.846-0.578-2.588-0.729l0.812-2.553   c1.05,0.736,1.878,1.119,3.054,0.521c0.972,0.846,1.604,1.771,2.025,2.761l0,0C96.291,37.366,96.448,37.887,96.567,38.423z    M100.887,27.417c0.326-0.038,1.453-0.123,1.725-0.165c0.429-0.067,0.758-0.229,1.012-0.42c0.194-0.147,0.815-0.973,1.14-1.045   c2.453-0.541,5.229-0.284,5.874-0.142c0.843,0.189,1.062,0.976,1.062,0.976c0.464,0,1.481-0.009,1.909,0.081   c0.496,0.104,0.683,0.137,0.694,0.477c0.023,0.593-1.453,1.526-1.453,1.526s0.312,1.757,0.857,3.256   c0.032,0.09,0.06,0.177,0.068,0.27h-0.004c0.032,0.24-0.023,0.517-0.229,0.995c-0.397,0.919-1.365,1.422-2.667,1.627   c-0.957,0.15-2.167,1.663-2.758,1.9c-0.148,0.061-0.642,0.092-1.22,0.104h-0.145c-0.464,0.01-0.974,0.008-1.407,0h-0.084   c-0.254-0.005-0.483-0.012-0.655-0.019c-1.756-0.068-3.56-0.203-4.162-0.34c-0.188-0.043-0.381-0.455-0.479-0.694h4.286v-3.332   c0,0-3.386,0.018-4.404-0.105c-0.254-0.03-0.655-0.043-1.145,0.038c-0.063,0.013-0.231-0.021-0.238-0.125   c-0.002-0.017-0.006-0.03-0.009-0.049h0.005c-0.091-0.61-0.052-1.874-0.052-1.874s-0.766-0.741-0.766-2.039   C98.79,27.888,99.969,27.522,100.887,27.417z M89.647,25.249c0.163-0.61,1.421-0.406,1.421-0.406   c0.567,0.154,1.015,0.998,1.188,1.407c0.352,0.849,1.625,0.322,1.272-0.528c0,0-0.346-0.805-0.846-1.343   c0.028-0.29,1.164-0.195,1.516,0.062c0.309,0.394,0.557,0.998,0.628,1.354c0.164,0.905,1.521,0.658,1.355-0.247   c0,0-0.082-0.404-0.275-0.83c0.629-0.037,1.413,0.764,2.047,2.231c-0.479,0.167-0.956,0.346-1.404,0.523   c-0.227,1.195-0.001,2.421,0.68,3.291c0,0.457-0.012,0.986,0.044,1.465h-0.005c0.095,0.844,0.387,1.53,1.284,1.394   c0.306-0.046,0.842-0.12,1.152-0.083c1.063,0.127,2.619,0.102,3.364,0.105v0.979H98.75c-0.311,0.304-0.09,1.434,0.442,2.231h-0.004   c0.275,0.415,0.636,0.739,1.052,0.812c0.329,0.059,0.989,0.131,1.804,0.197c-0.6,0.969-0.659,2.175-0.729,2.865   c-1.205-0.456-2.281-1.013-3.277-1.539c-0.108-0.785-0.28-1.567-0.553-2.333h0.002c-0.476-1.33-1.26-2.608-2.577-3.753   l-0.669-0.581l-0.789,0.4c-0.428,0.219-0.65,0.189-1.037-0.006c-0.252-0.129-0.54-0.324-0.932-0.609   c-0.038-0.026-0.074-0.055-0.112-0.081l0.004-0.001c-0.378-0.275-0.799-0.586-1.264-0.897c-0.995-0.668-0.594-1.174,0.48-1.541   l0.946-0.354V28.68c0-1.188-0.544-1.695-1.021-2.121C90.432,26.487,89.517,25.747,89.647,25.249z M53.12,26.31   c5.495-2.158,11.481-3.345,17.748-3.345c6.268,0,12.252,1.187,17.748,3.345c0.683,1.27,1.613,1.363,1.613,2.221   c-1.801,0.646-2.861,2.298-1.098,3.699H89.13c0.057,0.048,0.119,0.093,0.183,0.14l-1.133,3.558   c-1.133,0.037-1.793,0.408-2.144,0.932h-0.008c-0.424,0.629-0.405,1.476-0.238,2.223c-0.88,0.534-1.409,2.237-1.013,3.444   c-4.211-2.023-8.931-3.158-13.913-3.158c-4.983,0-9.704,1.134-13.913,3.158c0.397-1.207-0.133-2.911-1.012-3.444   c0.165-0.746,0.182-1.592-0.24-2.22c0,0,0-0.001-0.001-0.002h-0.001c-0.353-0.523-1.013-0.896-2.146-0.933l-1.134-3.558   c0.064-0.047,0.127-0.092,0.186-0.139l-0.002-0.001h0.005c1.761-1.401,0.701-3.052-1.098-3.698   C51.508,27.674,52.438,27.581,53.12,26.31z M45.835,24.719c-0.195,0.426-0.278,0.83-0.278,0.83   c-0.164,0.903,1.191,1.15,1.357,0.247c0.069-0.354,0.316-0.959,0.626-1.353c0.352-0.259,1.486-0.353,1.516-0.062   c-0.498,0.54-0.848,1.343-0.848,1.343c-0.351,0.851,0.924,1.377,1.275,0.528c0.172-0.41,0.62-1.253,1.188-1.407   c0,0,1.258-0.204,1.421,0.406c0.132,0.499-0.784,1.238-0.872,1.316c-0.478,0.423-1.022,0.932-1.022,2.119v0.755l0.947,0.354   c1.077,0.367,1.477,0.873,0.482,1.541c-0.463,0.311-0.886,0.621-1.264,0.897l-0.004,0.001c-0.038,0.026-0.075,0.055-0.112,0.08   c-0.394,0.286-0.682,0.48-0.934,0.609c-0.384,0.195-0.607,0.224-1.034,0.006l-0.79-0.4l-0.667,0.581   c-1.314,1.144-2.101,2.421-2.575,3.754h-0.002c-0.272,0.767-0.443,1.549-0.556,2.336c-0.994,0.525-2.071,1.083-3.274,1.538   c-0.069-0.689-0.13-1.896-0.727-2.866c0.813-0.066,1.472-0.141,1.8-0.196c0.415-0.074,0.775-0.397,1.052-0.812   c0.534-0.798,0.754-1.932,0.444-2.234h-4.319v-0.979c0.746-0.006,2.303,0.021,3.363-0.106c0.312-0.038,0.85,0.037,1.154,0.083   c0.897,0.138,1.189-0.549,1.285-1.392l-0.002-0.002h0.006c0.052-0.479,0.043-1.008,0.043-1.466c0.68-0.87,0.906-2.096,0.679-3.291   c-0.449-0.177-0.923-0.355-1.405-0.523C44.422,25.482,45.207,24.682,45.835,24.719z M36.978,25.784   c0.323,0.071,0.942,0.896,1.138,1.044c0.253,0.191,0.582,0.354,1.01,0.421c0.271,0.042,1.399,0.127,1.727,0.165   c0.918,0.104,2.097,0.471,3.246,0.903c0,1.296-0.766,2.039-0.766,2.039s0.038,1.264-0.053,1.874l-0.004,0.002   c-0.002,0.019-0.005,0.032-0.007,0.049c-0.005,0.104-0.175,0.137-0.239,0.126c-0.489-0.082-0.891-0.068-1.144-0.038   c-1.021,0.122-4.404,0.106-4.404,0.106v3.332h4.287c-0.103,0.239-0.292,0.651-0.481,0.694c-0.604,0.136-2.406,0.271-4.162,0.341   c-0.191,0.008-0.451,0.015-0.741,0.021c-0.438,0.007-0.946,0.009-1.409,0v-0.002h-0.071c-0.61-0.014-1.134-0.043-1.29-0.106   c-0.591-0.238-1.8-1.75-2.755-1.899c-1.305-0.206-2.271-0.709-2.668-1.627c-0.207-0.478-0.262-0.754-0.23-0.992l0.003-0.005   c0.011-0.092,0.035-0.179,0.068-0.271c0.543-1.499,0.859-3.254,0.859-3.254s-1.479-0.935-1.457-1.527   c0.015-0.34,0.2-0.373,0.697-0.477c0.428-0.089,1.444-0.081,1.907-0.081c0,0,0.222-0.787,1.063-0.977   C31.744,25.5,34.522,25.243,36.978,25.784z M20.952,51.677l-0.002-0.002h0.001c-0.019-0.056,0.021-0.103,0.132-0.132   c0.331-0.084,0.688-0.463,0.878-0.804c0.323-0.583,0.451-1.19,0.544-1.805c0.146-0.973,0.073-1.926-0.066-2.365   c-0.272-0.867-0.677-1.101-1.345-1.101c-0.419,0-0.854,0.396-1.172,0.521c-0.911,0.361-1.476-1.606-1.04-1.418   c0.335,0.146,1.006,0.075,1.516-0.303H20.4c0.438-0.325,0.759-0.88,0.653-1.722c-0.1-0.778-0.455-0.947-0.71-2.562   c-0.043-0.274-0.998,0.666-2.025,0.562c-0.549-0.055-0.826-2.047-0.529-1.892c1.165,0.614,2.866-0.096,2.757-1.667   c-0.003-0.043-0.008-0.085-0.011-0.128h0.002c-0.092-1.368-0.061-2.186-0.021-2.708c0.014-0.188-0.549,0.015-1.551,0.045   c-0.661,0.019-0.896-0.204-1.054-0.609c-0.108-0.275-0.068-0.968,0.025-1.359l0.004-0.005c0.048-0.203,0.112-0.324,0.177-0.261   c0.108,0.106,0.229,0.193,0.353,0.261l0.031,0.004h-0.036c0.598,0.324,1.336,0.21,1.756,0h-0.028l0.032-0.004   c0.038-0.019,0.073-0.038,0.104-0.059c0.651-0.405,0.927-0.723,0.927-1.577c0-0.887,0.086-1.388,0.622-2.444   c-1.331-0.086-1.623-0.046-1.896-0.447c-0.521-0.769,0.354-2.296,0.437-1.889c0.133,0.682,1.39,1.043,1.86,1.026   c1.603-0.063,1.136-1.38,2.996-2.465c-1.069-0.696-1.5-1.221-1.53-1.522c-0.039-0.387,1.268-1.313,1.225-0.977   c-0.07,0.553,0.468,1.316,1.437,1.423c0.812,0.089,1.502-0.209,2.65-0.27c0.805-0.044,2.118,0.062,2.118,0.062   s-0.952-1.415-0.771-1.76c0.107-0.206,1.22-0.583,1.081-0.213c-0.124,0.33,0.242,0.989,0.877,1.358   c0.731,0.423,1.331,0.591,2.389,0.811c0.491,0.101,0.491,0.187,0.396,0.504c-0.05,0.163-0.108,0.375-0.157,0.549   c-2.26-0.168-5.294-0.094-5.591,1.104c-1.075,0-2.212,0.184-2.57,0.492c-0.843,0.729-0.917,1.963,0.76,3.255   c-0.303,1.557-0.751,2.239-0.801,3.036l0.001,0.001h-0.004c-0.024,0.412,0.056,0.854,0.319,1.463   c0.647,1.498,2.167,2.057,3.528,2.317c0.333,0.064,0.693,0.429,1.161,0.849h-0.003c0.354,0.318,0.771,0.671,1.28,0.946   c0.57,0.311,2.932,0.286,5.041,0.169c0.895,0.725,0.966,1.741,1.017,2.558c0.065,1.168,0.536,1.8,0.759,2.095   c0.418,0.548,1.533,1.716,2.459,1.198c0.173-0.099,0.207,0.13,0.159,0.442h0.007l-0.005,0.004   c-0.071,0.469-0.325,1.134-0.572,1.214c-0.553,0.184-1.653-0.644-1.836-0.847c-0.156,0.785-0.371,1.487-0.622,1.998   c-0.551,1.121-0.5,2.806,0.667,3.245c-0.247,0.7-1.318,1.151-1.844,0.714c-0.256-0.21-0.433-0.906-0.632-1.306   c-0.795-1.587-2.109-1.551-3.399-1.159c-0.123,0.036-0.53,1.563-0.377,3.098c0.016,0.154,0.033,0.306,0.052,0.449h0.002   c0.201,1.562,0.578,2.417,1.151,2.676c0.546,0.246-2.665,0.896-2.665-1.635c0-0.143,0.021-0.586,0.047-1.039   c0.022-0.46,0.048-0.93,0.05-1.112c0.01-0.847-0.273-2.327-2.128-2.327c-0.354,0-0.896,0.184-1.282,0.838   c-0.25,0.426-0.511,1.524-0.58,1.836c-0.057,0.258-0.103,0.516-0.141,0.763c-0.157,1.047-0.135,1.944,0.16,2.259   c0.251,0.269-2.109,0.189-1.662-1.959c0.009-0.048,0.038-0.157,0.075-0.299H26.97h0.001c0.116-0.446,0.329-1.221,0.385-1.478   c0.071-0.319,0.171-0.86,0.037-1.375c-0.199-0.771-0.847-1.261-1.662-1.261c-0.556,0-1.221,0.292-1.609,1.264   c-0.114,0.283-0.476,2.089-0.976,2.85c-0.088,0.133-0.18,0.233-0.274,0.29C22.225,52.346,21.032,51.927,20.952,51.677z    M11.755,72.539c-3.072-0.975-4.908-3.308-5.495-6.048c-0.443-2.066-0.175-4.365,0.808-6.486c0.141-0.305,0.298-0.614,0.462-0.92   c0.333-0.62,0.701-1.235,1.058-1.808c0.562-0.904,1.097-1.707,1.439-2.274c0.604-0.993,1.097-2.06,1.392-3.325l-0.002-0.001   c0.22-0.955,0.326-2.021,0.279-3.252c-0.033-0.931-0.258-2.427-0.673-3.674c-1.398,0.055-2.034-0.074-2.43-0.481   c0,0,0,0-0.001-0.001l0,0l0,0c-0.229-0.236-0.379-0.565-0.549-1.008c-0.237-0.619-0.412-1.271-0.668-1.847   c-0.25-0.566-0.622-1.201-1.266-1.671c1.14-0.862,4.396-2.095,6.46-0.157c0.915,0.857,1.126,1.854,1.126,2.853   c0.002,1.067-0.459,1.506-1.017,1.833h0.001c-0.177,0.103-0.361,0.194-0.545,0.292c0.511,2.231,0.812,4.706,0.357,7.114h-0.001   c-0.256,1.354-0.75,2.685-1.581,3.938c-0.67,1.012-1.445,2.195-2.11,3.469h0.003l-0.002,0.001   c-0.277,0.532-0.535,1.079-0.756,1.637c-0.704,1.77-1.104,3.773-0.515,5.771c0.041,0.14,0.087,0.277,0.14,0.418   c1.047,2.868,3.961,4.708,7.935,4.29c0.133,0.551,0.337,1.088,0.62,1.604C14.311,73.046,12.551,72.792,11.755,72.539z    M18.362,73.464c-1.843-1.843-2.117-4.344-0.908-6.974c0.449-0.979,1.104-1.975,1.959-2.959c0.874-1.009,1.865-2.628,2.678-4.448   h0.001c0.904-2.03,1.587-4.31,1.634-6.264c0.342-0.3,0.591-0.705,0.784-1.144h-0.001c0.566-1.289,0.657-2.868,1.225-2.868   c1.018,0,0.14,1.792-0.05,2.868l0.001,0.001l0,0c-0.01,0.055-0.02,0.107-0.023,0.159c-0.41,3.656,3.311,3.93,4.393,2.668   c0.604-0.705-0.885,0.08-0.39-2.828l-0.001-0.001c0.026-0.155,0.06-0.321,0.098-0.5c0.121-0.555,0.4-1.69,0.645-1.69   c1.112,0,0.925,1.052,0.818,2.191h0.002c-0.037,0.389-0.064,0.789-0.027,1.161c0.153,1.563,0.933,2.399,1.862,2.748   c0.477,1.164,1.423,2.057,3.179,2.146c-0.333,0.532-0.707,0.982-1.082,1.35h0.002l-0.005,0.001   c-0.185,0.181-0.372,0.341-0.553,0.479c-1.464,1.114-4.305,3.814-5.374,6.928h0.001c-0.261,0.759-0.417,1.542-0.421,2.335   c-2.147,0.208-3.003,0.831-3.003,0.831c-0.751,0.53-0.022,1.543,0.795,1.126c1.534-0.783,3.944-0.549,4.653-0.484   c3.301,0.3,3.788,2.524,3.788,4.141c0,1.854-1.319,3.205-3.146,4.394c-0.926,0.604-1.855,1.084-2.551,1.504   c-0.364,0.22-0.755,0.469-1.066,0.75c-0.255,0.228-0.783,0.757-0.783,1.556c0,0.167,0.027,0.339,0.078,0.518h0.004l-0.004,0.002   c0.752,2.623,6.765,6.14,8.146,6.14c1.584,0,2.32,0.908,2.567,1.224c0.397,0.51,0.729,1.601,0.59,2.507   c-0.089,0.572-0.36,1.064-1.112,1.146c0.021-1.085-0.357-2.294-0.979-3.11c-0.555-0.731-1.652,0.103-1.098,0.834   c0.433,0.569,0.784,1.504,0.657,2.794c-0.87,0.506-1.888,0.55-3.15,0.11c0.144-1.077-0.346-2.439-0.937-3.294   c-0.523-0.756-1.657,0.029-1.135,0.784c0.434,0.625,0.733,1.461,0.708,2.193c-1.116,0.917-2.692,0.354-2.876-0.006   c-0.277-0.548-0.539-1.141-0.863-1.786c-0.354-0.702-0.775-1.46-1.354-2.283c-1.175-1.666-2.94-3.529-5.929-5.62   c-0.692-0.483-1.237-0.803-0.528-1.636h0.003c0.022-0.028,0.047-0.057,0.072-0.084c0.347-0.381,0.728-0.831,1.167-1.305   c1.82-1.973,1.015-4.002-0.048-5.336c-0.516-0.648-1.149-1.234-1.703-1.723C19.246,74.258,18.734,73.838,18.362,73.464z    M17.035,85.126c-1.349-0.98-1.465-1.244-0.936-1.968l-0.001-0.002h0.002c0.07-0.101,0.154-0.204,0.249-0.322   c0.427-0.535,1-1.146,1.653-1.9c1.3-1.502,1.768-3.025,1.731-4.438c1.315,1.293,2.295,2.8,0.856,4.356   c-0.812,0.88-1.518,1.609-1.828,2.308l-0.002,0.001c-0.396,0.891-0.15,1.731,1.336,2.777c4.827,3.394,6.199,6.017,7.172,8.069   c-0.204,0.086-0.461,0.172-0.774,0.246c-0.615,0.146-1.125,0.194-1.609,0.236c-0.258,0.021-0.416-0.69-1.038-1.936   C22.91,90.676,21.176,88.133,17.035,85.126z M120.654,97.644c1.021,0.229,1.021,0.236,0.841,1.059l-0.248,1.119h0.006l-0.006,0.004   l-2.832,12.756c-0.223,1.008-0.226,1.014-1.588,0.676c-7.629-1.803-13.443,0.007-19.903,2.098   c-3.284,1.063-6.855,2.251-11.099,3.169c-4.197,0.909-9.06,1.554-14.961,1.554c-5.899,0-10.761-0.645-14.959-1.554   c-4.242-0.918-7.812-2.104-11.096-3.169c-6.463-2.092-12.279-3.899-19.906-2.098c-1.363,0.338-1.367,0.332-1.588-0.676   l-2.833-12.756H20.48l-0.248-1.118c-0.179-0.82-0.179-0.828,0.843-1.059c9.031-1.936,16.48-0.609,24.064,1.324   c1.083,0.276,2.165,0.563,3.246,0.854h0.017c2.911,0.778,5.836,1.576,8.86,2.24c4.267,0.936,8.728,1.604,13.603,1.604   s9.337-0.67,13.604-1.604c3.032-0.666,5.963-1.466,8.875-2.244l-0.059-0.003h0.06c1.083-0.29,2.163-0.576,3.246-0.854   C104.173,97.034,111.621,95.708,120.654,97.644z M123.729,80.933c0.653,0.754,1.226,1.365,1.653,1.9   c0.095,0.118,0.178,0.225,0.25,0.324h0.002c0.523,0.722,0.407,0.985-0.939,1.966c-4.14,3.008-5.874,5.55-6.812,7.429   c-0.623,1.244-0.779,1.957-1.039,1.936c-0.484-0.043-0.994-0.092-1.609-0.236c-0.311-0.074-0.57-0.159-0.773-0.246   c0.974-2.054,2.345-4.677,7.172-8.069c1.485-1.044,1.73-1.886,1.337-2.776l-0.002-0.002l0,0c-0.312-0.697-1.015-1.428-1.825-2.306   c-1.441-1.558-0.461-3.063,0.854-4.356C121.961,77.908,122.428,79.431,123.729,80.933z M123.368,73.466   c-0.373,0.373-0.885,0.79-1.403,1.248c-0.556,0.487-1.189,1.073-1.703,1.72c-1.064,1.337-1.868,3.366-0.047,5.338   c0.437,0.475,0.815,0.924,1.164,1.306c0.023,0.025,0.05,0.055,0.069,0.082h0.001c0.712,0.832,0.166,1.15-0.525,1.635   c-2.99,2.09-4.753,3.954-5.928,5.62c-0.58,0.822-1.003,1.58-1.354,2.283c-0.324,0.646-0.588,1.239-0.865,1.786   c-0.183,0.36-1.76,0.922-2.875,0.006c-0.024-0.732,0.273-1.567,0.707-2.193c0.522-0.756-0.61-1.541-1.133-0.785   c-0.59,0.854-1.078,2.219-0.938,3.294c-1.263,0.438-2.277,0.396-3.147-0.109c-0.128-1.291,0.223-2.226,0.656-2.794   c0.556-0.732-0.542-1.566-1.099-0.834c-0.62,0.815-0.998,2.024-0.979,3.107c-0.753-0.079-1.024-0.571-1.111-1.145   c-0.141-0.908,0.19-1.999,0.59-2.509c0.247-0.312,0.982-1.224,2.568-1.224c1.38,0,7.391-3.515,8.146-6.138h0.001   c0.053-0.181,0.077-0.351,0.077-0.518c0-0.799-0.526-1.328-0.783-1.557c-0.312-0.28-0.701-0.53-1.064-0.751   c-0.696-0.418-1.624-0.9-2.552-1.504c-1.827-1.188-3.146-2.537-3.146-4.392c0-1.617,0.486-3.843,3.789-4.141   c0.709-0.063,3.116-0.299,4.651,0.483c0.816,0.418,1.546-0.595,0.796-1.125c0,0-0.855-0.623-3.003-0.831   c-0.004-0.792-0.159-1.575-0.42-2.335h-0.002c-1.072-3.114-3.91-5.813-5.372-6.928c-0.185-0.14-0.369-0.299-0.555-0.479   c-0.376-0.366-0.749-0.818-1.081-1.35c1.756-0.093,2.701-0.983,3.18-2.147c0.928-0.348,1.709-1.186,1.859-2.747   c0.037-0.372,0.012-0.772-0.024-1.163l0,0c-0.109-1.141-0.297-2.191,0.816-2.191c0.244,0,0.522,1.135,0.644,1.69   c0.038,0.178,0.071,0.344,0.098,0.5l0,0c0.496,2.91-0.995,2.125-0.39,2.829c1.083,1.263,4.803,0.989,4.393-2.667   c-0.004-0.053-0.015-0.104-0.021-0.161h-0.002c-0.189-1.075-1.068-2.868-0.053-2.868c0.567,0,0.659,1.578,1.226,2.868h0.003   c0.193,0.438,0.44,0.843,0.785,1.144c0.048,1.954,0.729,4.232,1.636,6.264h-0.004c0.812,1.819,1.802,3.44,2.677,4.448   c0.855,0.985,1.51,1.98,1.959,2.959h0.002C125.485,69.122,125.213,71.622,123.368,73.466z M134.355,41.411   c-0.255,0.575-0.429,1.229-0.666,1.848c-0.172,0.442-0.322,0.772-0.552,1.01h0.001l-0.002,0.001   c-0.395,0.408-1.029,0.538-2.43,0.481c-0.413,1.246-0.638,2.743-0.672,3.674c-0.048,1.231,0.062,2.298,0.278,3.252l0,0   c0.293,1.267,0.787,2.334,1.39,3.326c0.347,0.567,0.879,1.37,1.44,2.274c0.356,0.572,0.725,1.188,1.057,1.808h0.001   c0.164,0.308,0.32,0.616,0.466,0.92c0.982,2.122,1.247,4.42,0.808,6.486l-0.002,0.001c-0.588,2.74-2.423,5.072-5.492,6.047   c-0.797,0.254-2.557,0.508-4.471,0.265c0.282-0.516,0.485-1.054,0.619-1.604c3.974,0.419,6.887-1.422,7.936-4.29   c0.051-0.142,0.097-0.279,0.138-0.418h-0.001c0.591-1.997,0.191-4.002-0.514-5.771c-0.221-0.557-0.479-1.104-0.754-1.637   c-0.664-1.272-1.441-2.457-2.11-3.469c-0.83-1.254-1.324-2.586-1.58-3.938l0,0v-0.001c-0.457-2.41-0.151-4.883,0.355-7.114   c-0.185-0.097-0.368-0.188-0.544-0.293v-0.001c-0.559-0.326-1.018-0.766-1.016-1.833c0-0.997,0.212-1.993,1.125-2.853   c2.065-1.938,5.319-0.705,6.459,0.157C134.979,40.209,134.604,40.845,134.355,41.411z"/>
	<path fill="#010101" d="M92.017,107.347c0.686-0.194,1.439-0.124,1.822-0.042l-0.028-1.601c-0.526-0.108-1.38-0.095-2.271,0.16   c-1.857,0.532-2.729,1.905-2.341,3.265c0.25,0.907,1.125,1.553,2.823,1.569c0.999,0.021,1.335,0.146,1.461,0.585   c0.118,0.414-0.128,0.795-0.922,1.021c-0.703,0.203-1.7,0.159-2.221,0.017l0.033,1.67c0.688,0.14,1.624,0.114,2.623-0.171   c2.159-0.619,2.926-1.961,2.542-3.296c-0.333-1.122-1.16-1.639-2.735-1.675c-1.047-0.027-1.456-0.132-1.574-0.547   C91.106,107.888,91.393,107.528,92.017,107.347z"/>
	<path fill="#010101" d="M84.014,32.232l0.896-3.343l-2.393-0.643l-4.489,3.983l2.208-0.001l1.225-1.078   c0.434-0.444,0.806-0.874,1.245-1.363l0.05,0.019c-0.178,0.544-0.337,1.062-0.476,1.576l-0.227,0.848l0,0l-0.354,1.32l-2.26-0.604   l0.017-0.024l0.782-0.689h-2.209h-0.001l-0.468,0.414l-0.333,1.236l4.09,1.095l-0.507,1.886h0.005l-0.068,0.257l1.828,0.49   l0.201-0.747h-0.002l0.374-1.396l1.116,0.299l0.384-1.425l-1.118-0.299L84.014,32.232L84.014,32.232z"/>
	<path fill="#010101" d="M64.031,109.455c-0.015,0.671-0.061,1.405-0.16,2.552l-0.463,5.109l2.247,0.195l0.343-3.908   c0.016-0.179,0.043-0.355,0.084-0.51c0.228-0.792,0.898-1.281,1.874-1.197c0.269,0.023,0.46,0.068,0.66,0.128l0.186-2.092   c-0.176-0.056-0.29-0.069-0.499-0.09c-0.817-0.069-1.833,0.358-2.335,1.483l-0.058-0.004l0.055-1.5L64.031,109.455z"/>
	<path fill="#010101" d="M61.201,113.529c0.075-0.169,0.18-0.487,0.249-0.853c0.329-1.69-0.133-3.932-2.749-4.441   c-2.702-0.523-4.338,1.399-4.704,3.283c-0.453,2.332,0.776,4.15,3.386,4.659c1.113,0.218,2.102,0.215,2.929,0.046l-0.021-1.552   c-0.703,0.101-1.398,0.089-2.28-0.084c-1.203-0.233-2.159-0.978-2.017-2.089L61.201,113.529z M58.293,109.674   c1.273,0.246,1.324,1.4,1.215,1.935l-3.237-0.631C56.485,110.329,57.142,109.449,58.293,109.674z"/>
	<path fill="#010101" d="M76.023,117.204l2.807-0.101l-3.585-4.457l2.866-3.21l-2.746,0.099l-1.733,2.451   c-0.196,0.281-0.404,0.611-0.584,0.912l-0.029,0.001l-0.238-6.82l-2.252,0.077l0.393,11.225l2.251-0.079l-0.086-2.475l0.649-0.813   L76.023,117.204z"/>
	<path fill="#010101" d="M107.617,28.762c0.596-0.543-0.657-2.022-1.172-2.022c-1.266,0-2.115,1.377-2.115,1.377   S107.123,29.214,107.617,28.762z M106.365,27.453c0.068,0,0.469,0.348,0.643,0.772c-0.253-0.059-0.87-0.249-1.423-0.431   C105.809,27.62,106.06,27.453,106.365,27.453z"/>
	<path fill="#010101" d="M48.719,105.481l-2.301-0.837l0.157,8.238l2.128,0.773l5.508-6.175l-2.247-0.816l-2.384,3.115   c-0.421,0.554-0.766,1.04-1.104,1.567l-0.049-0.021c0.076-0.602,0.137-1.214,0.155-1.914L48.719,105.481z"/>
	<path fill="#010101" d="M84.328,114.398c-0.967,0.188-1.52-0.464-1.751-1.662l-0.779-4.014l-2.216,0.432l0.854,4.395   c0.479,2.46,1.947,3.074,3.42,2.79c1.467-0.284,2.05-1.273,2.256-1.827l0.05-0.009l0.326,1.14l1.925-0.376   c-0.153-0.602-0.334-1.386-0.521-2.354l-1.005-5.18l-2.216,0.432l0.866,4.456c0.037,0.19,0.041,0.376,0.011,0.536   C85.446,113.651,85.078,114.253,84.328,114.398z"/>
	<path fill="#010101" d="M113.117,110.073v-4.474c0-2.457-1.404-3.396-2.891-3.396c-1.374,0-2.209,0.801-2.521,1.326h-0.052   l-0.104-1.146h-1.961c0.033,0.673,0.062,1.465,0.062,2.406v5.278l0,0h2.254v-4.424c0-0.203,0.021-0.429,0.084-0.584   c0.188-0.506,0.67-1.048,1.445-1.048c1.006,0,1.428,0.765,1.428,1.873v4.184h2.257v0.004H113.117z"/>
	<polygon fill="#010101" points="16.743,32.232 16.744,32.228 16.743,32.228  "/>
	<path fill="#010101" d="M103.77,106.397c-0.328-1.69-1.597-3.599-4.215-3.089c-2.703,0.524-3.497,2.923-3.131,4.808   c0.453,2.333,2.273,3.561,4.884,3.051c1.112-0.217,2.023-0.589,2.731-1.054l-0.601-1.433c-0.616,0.355-1.263,0.605-2.147,0.777   c-1.201,0.234-2.367-0.098-2.649-1.182l5.216-0.998C103.862,107.094,103.84,106.76,103.77,106.397z M98.331,106.76   c-0.046-0.68,0.234-1.742,1.386-1.967c1.272-0.247,1.754,0.803,1.854,1.338L98.331,106.76z"/>
	<path fill="#010101" d="M44.022,108.567c0.081-0.166,0.195-0.479,0.28-0.84c0.388-1.681,0.003-3.937-2.595-4.534   c-2.68-0.621-4.384,1.243-4.815,3.114c-0.534,2.313,0.631,4.175,3.22,4.774c1.104,0.254,2.093,0.287,2.925,0.147l0.033-1.554   c-0.706,0.076-1.401,0.041-2.277-0.162c-1.194-0.274-2.124-1.053-1.941-2.158L44.022,108.567z M41.249,104.613   c1.266,0.292,1.276,1.445,1.148,1.975l-3.214-0.741C39.42,105.206,40.109,104.348,41.249,104.613z"/>
	<polygon fill="#010101" points="28.689,110.186 35.526,109.949 35.461,108.062 30.875,108.222 30.583,99.825 30.572,99.506    28.319,99.584 28.327,99.824 28.326,99.824  "/>
</g>
<style xmlns="http://www.w3.org/1999/xhtml" charset="utf-8" type="text/css" class="firebugResetStyles">/* See license.txt for terms of usage */
/** reset styling **/
.firebugResetStyles {
    z-index: 2147483646 !important;
    top: 0 !important;
    left: 0 !important;
    display: block !important;
    border: 0 none !important;
    margin: 0 !important;
    padding: 0 !important;
    outline: 0 !important;
    min-width: 0 !important;
    max-width: none !important;
    min-height: 0 !important;
    max-height: none !important;
    position: fixed !important;
    transform: rotate(0deg) !important;
    transform-origin: 50% 50% !important;
    border-radius: 0 !important;
    box-shadow: none !important;
    background: transparent none !important;
    pointer-events: none !important;
    white-space: normal !important;
}
style.firebugResetStyles {
    display: none !important;
}

.firebugBlockBackgroundColor {
    background-color: transparent !important;
}

.firebugResetStyles:before, .firebugResetStyles:after {
    content: "" !important;
}
/**actual styling to be modified by firebug theme**/
.firebugCanvas {
    display: none !important;
}

/* * * * * * * * * * * * * * * * * * * * * * * * * * * * * * * * * * * * * * * * * * * * * * * * */
.firebugLayoutBox {
    width: auto !important;
    position: static !important;
}

.firebugLayoutBoxOffset {
    opacity: 0.8 !important;
    position: fixed !important;
}

.firebugLayoutLine {
    opacity: 0.4 !important;
    background-color: #000000 !important;
}

.firebugLayoutLineLeft, .firebugLayoutLineRight {
    width: 1px !important;
    height: 100% !important;
}

.firebugLayoutLineTop, .firebugLayoutLineBottom {
    width: 100% !important;
    height: 1px !important;
}

.firebugLayoutLineTop {
    margin-top: -1px !important;
    border-top: 1px solid #999999 !important;
}

.firebugLayoutLineRight {
    border-right: 1px solid #999999 !important;
}

.firebugLayoutLineBottom {
    border-bottom: 1px solid #999999 !important;
}

.firebugLayoutLineLeft {
    margin-left: -1px !important;
    border-left: 1px solid #999999 !important;
}

/* * * * * * * * * * * * * * * * * * * * * * * * * * * * * * * * * * * * * * * * * * * * * * * * */
.firebugLayoutBoxParent {
    border-top: 0 none !important;
    border-right: 1px dashed #E00 !important;
    border-bottom: 1px dashed #E00 !important;
    border-left: 0 none !important;
    position: fixed !important;
    width: auto !important;
}

.firebugRuler{
    position: absolute !important;
}

.firebugRulerH {
    top: -15px !important;
    left: 0 !important;
    width: 100% !important;
    height: 14px !important;
    background: url("data:image/png,%89PNG%0D%0A%1A%0A%00%00%00%0DIHDR%00%00%13%88%00%00%00%0E%08%02%00%00%00L%25a%0A%00%00%00%04gAMA%00%00%D6%D8%D4OX2%00%00%00%19tEXtSoftware%00Adobe%20ImageReadyq%C9e%3C%00%00%04%F8IDATx%DA%EC%DD%D1n%E2%3A%00E%D1%80%F8%FF%EF%E2%AF2%95%D0D4%0E%C1%14%B0%8Fa-%E9%3E%CC%9C%87n%B9%81%A6W0%1C%A6i%9A%E7y%0As8%1CT%A9R%A5J%95*U%AAT%A9R%A5J%95*U%AAT%A9R%A5J%95*U%AAT%A9R%A5J%95*U%AAT%A9R%A5J%95*U%AAT%A9R%A5J%95*U%AAT%A9R%A5J%95*U%AATE9%FE%FCw%3E%9F%AF%2B%2F%BA%97%FDT%1D~K(%5C%9D%D5%EA%1B%5C%86%B5%A9%BDU%B5y%80%ED%AB*%03%FAV9%AB%E1%CEj%E7%82%EF%FB%18%BC%AEJ8%AB%FA'%D2%BEU9%D7U%ECc0%E1%A2r%5DynwVi%CFW%7F%BB%17%7Dy%EACU%CD%0E%F0%FA%3BX%FEbV%FEM%9B%2B%AD%BE%AA%E5%95v%AB%AA%E3E5%DCu%15rV9%07%B5%7F%B5w%FCm%BA%BE%AA%FBY%3D%14%F0%EE%C7%60%0EU%AAT%A9R%A5J%95*U%AAT%A9R%A5J%95*U%AAT%A9R%A5J%95*U%AAT%A9R%A5J%95*U%AAT%A9R%A5JU%88%D3%F5%1F%AE%DF%3B%1B%F2%3E%DAUCNa%F92%D02%AC%7Dm%F9%3A%D4%F2%8B6%AE*%BF%5C%C2Ym~9g5%D0Y%95%17%7C%C8c%B0%7C%18%26%9CU%CD%13i%F7%AA%90%B3Z%7D%95%B4%C7%60%E6E%B5%BC%05%B4%FBY%95U%9E%DB%FD%1C%FC%E0%9F%83%7F%BE%17%7DkjMU%E3%03%AC%7CWj%DF%83%9An%BCG%AE%F1%95%96yQ%0Dq%5Dy%00%3Et%B5'%FC6%5DS%95pV%95%01%81%FF'%07%00%00%00%00%00%00%00%00%00%F8x%C7%F0%BE%9COp%5D%C9%7C%AD%E7%E6%EBV%FB%1E%E0(%07%E5%AC%C6%3A%ABi%9C%8F%C6%0E9%AB%C0'%D2%8E%9F%F99%D0E%B5%99%14%F5%0D%CD%7F%24%C6%DEH%B8%E9rV%DFs%DB%D0%F7%00k%FE%1D%84%84%83J%B8%E3%BA%FB%EF%20%84%1C%D7%AD%B0%8E%D7U%C8Y%05%1E%D4t%EF%AD%95Q%BF8w%BF%E9%0A%BF%EB%03%00%00%00%00%00%00%00%00%00%B8vJ%8E%BB%F5%B1u%8Cx%80%E1o%5E%CA9%AB%CB%CB%8E%03%DF%1D%B7T%25%9C%D5(%EFJM8%AB%CC'%D2%B2*%A4s%E7c6%FB%3E%FA%A2%1E%80~%0E%3E%DA%10x%5D%95Uig%15u%15%ED%7C%14%B6%87%A1%3B%FCo8%A8%D8o%D3%ADO%01%EDx%83%1A~%1B%9FpP%A3%DC%C6'%9C%95gK%00%00%00%00%00%00%00%00%00%20%D9%C9%11%D0%C0%40%AF%3F%EE%EE%92%94%D6%16X%B5%BCMH%15%2F%BF%D4%A7%C87%F1%8E%F2%81%AE%AAvzr%DA2%ABV%17%7C%E63%83%E7I%DC%C6%0Bs%1B%EF6%1E%00%00%00%00%00%00%00%00%00%80cr%9CW%FF%7F%C6%01%0E%F1%CE%A5%84%B3%CA%BC%E0%CB%AA%84%CE%F9%BF)%EC%13%08WU%AE%AB%B1%AE%2BO%EC%8E%CBYe%FE%8CN%ABr%5Dy%60~%CFA%0D%F4%AE%D4%BE%C75%CA%EDVB%EA(%B7%F1%09g%E5%D9%12%00%00%00%00%00%00%00%00%00H%F6%EB%13S%E7y%5E%5E%FB%98%F0%22%D1%B2'%A7%F0%92%B1%BC%24z3%AC%7Dm%60%D5%92%B4%7CEUO%5E%F0%AA*%3BU%B9%AE%3E%A0j%94%07%A0%C7%A0%AB%FD%B5%3F%A0%F7%03T%3Dy%D7%F7%D6%D4%C0%AAU%D2%E6%DFt%3F%A8%CC%AA%F2%86%B9%D7%F5%1F%18%E6%01%F8%CC%D5%9E%F0%F3z%88%AA%90%EF%20%00%00%00%00%00%00%00%00%00%C0%A6%D3%EA%CFi%AFb%2C%7BB%0A%2B%C3%1A%D7%06V%D5%07%A8r%5D%3D%D9%A6%CAu%F5%25%CF%A2%99%97zNX%60%95%AB%5DUZ%D5%FBR%03%AB%1C%D4k%9F%3F%BB%5C%FF%81a%AE%AB'%7F%F3%EA%FE%F3z%94%AA%D8%DF%5B%01%00%00%00%00%00%00%00%00%00%8E%FB%F3%F2%B1%1B%8DWU%AAT%A9R%A5J%95*U%AAT%A9R%A5J%95*U%AAT%A9R%A5J%95*U%AAT%A9R%A5J%95*U%AAT%A9R%A5J%95*U%AAT%A9R%A5J%95*U%AAT%A9R%A5J%95*UiU%C7%BBe%E7%F3%B9%CB%AAJ%95*U%AAT%A9R%A5J%95*U%AAT%A9R%A5J%95*U%AAT%A9R%A5J%95*U%AAT%A9R%A5J%95*U%AAT%A9R%A5J%95*U%AAT%A9R%A5J%95*U%AAT%A9R%A5*%AAj%FD%C6%D4%5Eo%90%B5Z%ADV%AB%D5j%B5Z%ADV%AB%D5j%B5Z%ADV%AB%D5j%B5Z%ADV%AB%D5j%B5Z%ADV%AB%D5j%B5Z%ADV%AB%D5j%B5Z%ADV%AB%D5j%B5%86%AF%1B%9F%98%DA%EBm%BBV%AB%D5j%B5Z%ADV%AB%D5j%B5Z%ADV%AB%D5j%B5Z%ADV%AB%D5j%B5Z%ADV%AB%D5j%B5Z%ADV%AB%D5j%B5Z%ADV%AB%D5j%B5Z%AD%D6%E4%F58%01%00%00%00%00%00%00%00%00%00%00%00%00%00%40%85%7F%02%0C%008%C2%D0H%16j%8FX%00%00%00%00IEND%AEB%60%82") repeat-x !important;
    border-top: 1px solid #BBBBBB !important;
    border-right: 1px dashed #BBBBBB !important;
    border-bottom: 1px solid #000000 !important;
}

.firebugRulerV {
    top: 0 !important;
    left: -15px !important;
    width: 14px !important;
    height: 100% !important;
    background: url("data:image/png,%89PNG%0D%0A%1A%0A%00%00%00%0DIHDR%00%00%00%0E%00%00%13%88%08%02%00%00%00%0E%F5%CB%10%00%00%00%04gAMA%00%00%D6%D8%D4OX2%00%00%00%19tEXtSoftware%00Adobe%20ImageReadyq%C9e%3C%00%00%06~IDATx%DA%EC%DD%D1v%A20%14%40Qt%F1%FF%FF%E4%97%D9%07%3BT%19%92%DC%40(%90%EEy%9A5%CB%B6%E8%F6%9Ac%A4%CC0%84%FF%DC%9E%CF%E7%E3%F1%88%DE4%F8%5D%C7%9F%2F%BA%DD%5E%7FI%7D%F18%DDn%BA%C5%FB%DF%97%BFk%F2%10%FF%FD%B4%F2M%A7%FB%FD%FD%B3%22%07p%8F%3F%AE%E3%F4S%8A%8F%40%EEq%9D%BE8D%F0%0EY%A1Uq%B7%EA%1F%81%88V%E8X%3F%B4%CEy%B7h%D1%A2E%EBohU%FC%D9%AF2fO%8BBeD%BE%F7X%0C%97%A4%D6b7%2Ck%A5%12%E3%9B%60v%B7r%C7%1AI%8C%BD%2B%23r%00c0%B2v%9B%AD%CA%26%0C%1Ek%05A%FD%93%D0%2B%A1u%8B%16-%95q%5Ce%DCSO%8E%E4M%23%8B%F7%C2%FE%40%BB%BD%8C%FC%8A%B5V%EBu%40%F9%3B%A72%FA%AE%8C%D4%01%CC%B5%DA%13%9CB%AB%E2I%18%24%B0n%A9%0CZ*Ce%9C%A22%8E%D8NJ%1E%EB%FF%8F%AE%CAP%19*%C3%BAEKe%AC%D1%AAX%8C*%DEH%8F%C5W%A1e%AD%D4%B7%5C%5B%19%C5%DB%0D%EF%9F%19%1D%7B%5E%86%BD%0C%95%A12%AC%5B*%83%96%CAP%19%F62T%86%CAP%19*%83%96%CA%B8Xe%BC%FE)T%19%A1%17xg%7F%DA%CBP%19*%C3%BA%A52T%86%CAP%19%F62T%86%CA%B0n%A9%0CZ%1DV%C6%3D%F3%FCH%DE%B4%B8~%7F%5CZc%F1%D6%1F%AF%84%F9%0F6%E6%EBVt9%0E~%BEr%AF%23%B0%97%A12T%86%CAP%19%B4T%86%CA%B8Re%D8%CBP%19*%C3%BA%A52huX%19%AE%CA%E5%BC%0C%7B%19*CeX%B7h%A9%0C%95%E1%BC%0C%7B%19*CeX%B7T%06%AD%CB%5E%95%2B%BF.%8F%C5%97%D5%E4%7B%EE%82%D6%FB%CF-%9C%FD%B9%CF%3By%7B%19%F62T%86%CA%B0n%D1R%19*%A3%D3%CA%B0%97%A12T%86uKe%D0%EA%B02*%3F1%99%5DB%2B%A4%B5%F8%3A%7C%BA%2B%8Co%7D%5C%EDe%A8%0C%95a%DDR%19%B4T%C66%82fA%B2%ED%DA%9FC%FC%17GZ%06%C9%E1%B3%E5%2C%1A%9FoiB%EB%96%CA%A0%D5qe4%7B%7D%FD%85%F7%5B%ED_%E0s%07%F0k%951%ECr%0D%B5C%D7-g%D1%A8%0C%EB%96%CA%A0%A52T%C6)*%C3%5E%86%CAP%19%D6-%95A%EB*%95q%F8%BB%E3%F9%AB%F6%E21%ACZ%B7%22%B7%9B%3F%02%85%CB%A2%5B%B7%BA%5E%B7%9C%97%E1%BC%0C%EB%16-%95%A12z%AC%0C%BFc%A22T%86uKe%D0%EA%B02V%DD%AD%8A%2B%8CWhe%5E%AF%CF%F5%3B%26%CE%CBh%5C%19%CE%CB%B0%F3%A4%095%A1%CAP%19*Ce%A8%0C%3BO*Ce%A8%0C%95%A12%3A%AD%8C%0A%82%7B%F0v%1F%2FD%A9%5B%9F%EE%EA%26%AF%03%CA%DF9%7B%19*Ce%A8%0C%95%A12T%86%CA%B8Ze%D8%CBP%19*Ce%A8%0C%95%D1ae%EC%F7%89I%E1%B4%D7M%D7P%8BjU%5C%BB%3E%F2%20%D8%CBP%19*Ce%A8%0C%95%A12T%C6%D5*%C3%5E%86%CAP%19*Ce%B4O%07%7B%F0W%7Bw%1C%7C%1A%8C%B3%3B%D1%EE%AA%5C%D6-%EBV%83%80%5E%D0%CA%10%5CU%2BD%E07YU%86%CAP%19*%E3%9A%95%91%D9%A0%C8%AD%5B%EDv%9E%82%FFKOee%E4%8FUe%A8%0C%95%A12T%C6%1F%A9%8C%C8%3D%5B%A5%15%FD%14%22r%E7B%9F%17l%F8%BF%ED%EAf%2B%7F%CF%ECe%D8%CBP%19*Ce%A8%0C%95%E1%93~%7B%19%F62T%86%CAP%19*Ce%A8%0C%E7%13%DA%CBP%19*Ce%A8%0CZf%8B%16-Z%B4h%D1R%19f%8B%16-Z%B4h%D1R%19%B4%CC%16-Z%B4h%D1R%19%B4%CC%16-Z%B4h%D1%A2%A52%CC%16-Z%B4h%D1%A2%A52h%99-Z%B4h%D1%A2%A52h%99-Z%B4h%D1%A2EKe%98-Z%B4h%D1%A2EKe%D02%5B%B4h%D1%A2EKe%D02%5B%B4h%D1%A2E%8B%96%CA0%5B%B4h%D1%A2E%8B%96%CA%A0e%B6h%D1%A2E%8B%96%CA%A0e%B6h%D1%A2E%8B%16-%95a%B6h%D1%A2E%8B%16-%95A%CBl%D1%A2E%8B%16-%95A%CBl%D1%A2E%8B%16-Z*%C3l%D1%A2E%8B%16-Z*%83%96%D9%A2E%8B%16-Z*%83%96%D9%A2E%8B%16-Z%B4T%86%D9%A2E%8B%16-Z%B4T%06-%B3E%8B%16-Z%B4T%06-%B3E%8B%16-Z%B4h%A9%0C%B3E%8B%16-Z%B4h%A9%0CZf%8B%16-Z%B4h%A9%0CZf%8B%16-Z%B4h%D1R%19f%8B%16-Z%B4h%D1R%19%B4%CC%16-Z%B4h%D1R%19%B4%CC%16-Z%B4h%D1%A2%A52%CC%16-Z%B4h%D1%A2%A52h%99-Z%B4h%D1%A2%A52h%99-Z%B4h%D1%A2EKe%98-Z%B4h%D1%A2EKe%D02%5B%B4h%D1%A2EKe%D02%5B%B4h%D1%A2E%8B%96%CA0%5B%B4h%D1%A2E%8B%96%CA%A0e%B6h%D1%A2E%8B%96%CA%A0e%B6h%D1%A2E%8B%16-%95a%B6h%D1%A2E%8B%16-%95A%CBl%D1%A2E%8B%16-%95A%CBl%D1%A2E%8B%16-Z*%C3l%D1%A2E%8B%16-Z*%83%96%D9%A2E%8B%16-Z*%83%96%D9%A2E%8B%16-Z%B4T%86%D9%A2E%8B%16-Z%B4T%06-%B3E%8B%16-Z%B4T%06-%B3E%8B%16-Z%B4h%A9%0C%B3E%8B%16-Z%B4h%A9%0CZf%8B%16-Z%B4h%A9%0CZf%8B%16-Z%B4h%D1R%19f%8B%16-Z%B4h%D1R%19%B4%CC%16-Z%B4h%D1R%19%B4%CC%16-Z%B4h%D1%A2%A52%CC%16-Z%B4h%D1%A2%A52h%99-Z%B4h%D1%A2%A52h%99-Z%B4h%D1%A2EKe%98-Z%B4h%D1%A2EKe%D02%5B%B4h%D1%A2EKe%D02%5B%B4h%D1%A2E%8B%96%CA0%5B%B4h%D1%A2E%8B%96%CA%A0e%B6h%D1%A2E%8B%96%CA%A0e%B6h%D1%A2E%8B%16-%95a%B6h%D1%A2E%8B%16-%95A%CBl%D1%A2E%8B%16-%95A%CBl%D1%A2E%8B%16-Z*%C3l%D1%A2E%8B%16-Z*%83%96%D9%A2E%8B%16-Z*%83%96%D9%A2E%8B%16-Z%B4T%86%D9%A2E%8B%16-Z%B4T%06-%B3E%8B%16-Z%B4%AE%A4%F5%25%C0%00%DE%BF%5C'%0F%DA%B8q%00%00%00%00IEND%AEB%60%82") repeat-y !important;
    border-left: 1px solid #BBBBBB !important;
    border-right: 1px solid #000000 !important;
    border-bottom: 1px dashed #BBBBBB !important;
}

.overflowRulerX &gt; .firebugRulerV {
    left: 0 !important;
}

.overflowRulerY &gt; .firebugRulerH {
    top: 0 !important;
}

/* * * * * * * * * * * * * * * * * * * * * * * * * * * * * * * * * * * * * * * * * * * * * * * * */
.fbProxyElement {
    position: fixed !important;
    pointer-events: auto !important;
}
</style><div xmlns="http://www.w3.org/1999/xhtml" class="firebugResetStyles firebugBlockBackgroundColor firebugLayoutBox firebugLayoutBoxOffset" style="left: -0.0500031px ! important; top: 15.0833px ! important;"><div class="firebugResetStyles firebugLayoutBox" style="padding: 0px ! important; background-color: rgb(237, 255, 100) ! important;"><div class="firebugResetStyles firebugLayoutBox" style="padding: 0px ! important; background-color: rgb(68, 68, 68) ! important;"><div class="firebugResetStyles firebugLayoutBox" style="padding: 0px ! important; background-color: SlateBlue ! important;"><div class="firebugResetStyles firebugLayoutBox" style="width: 141.817px ! important; height: 111.583px ! important; background-color: SkyBlue ! important;"/></div></div></div></div></svg>