<?xml version="1.0" encoding="UTF-8"?>
<!-- Generator: Adobe Illustrator 15.1.0, SVG Export Plug-In . SVG Version: 6.00 Build 0)  -->
<!DOCTYPE svg PUBLIC "-//W3C//DTD SVG 1.1//EN" "http://www.w3.org/Graphics/SVG/1.1/DTD/svg11.dtd">
<svg version="1.1" id="Ebene_1" xmlns="http://www.w3.org/2000/svg" xmlns:xlink="http://www.w3.org/1999/xlink" x="0px" y="0px" width="141.732px" height="141.732px" viewBox="0 0 141.732 141.732" enable-background="new 0 0 141.732 141.732" xml:space="preserve">
<g>
	<circle fill="#FEE600" cx="70.866" cy="70.866" r="70.866"/>
	<circle fill="#010101" cx="70.866" cy="70.866" r="67.46"/>
	<circle fill="#FEE600" cx="70.866" cy="70.866" r="63.714"/>
	<path fill="#010101" d="M81.291,125.155c-4.705,0-8.13-3.562-8.13-7.628c0-0.596-0.043-0.858-0.015-1.284h4.438   c1.285,0,1.079,1.742,1.079,1.742c0,1.341,1.45,1.946,2.543,1.977c1.328,0.037,2.411-1.186,2.411-2.527l-0.021-2.599   c-0.849,0.462-2.531,0.452-2.531,0.452c-4.021-0.11-7.948-3.579-7.948-7.869v-1.91c0-4.29,3.658-7.667,7.948-7.667h0.177   c4.29,0,7.621,3.476,7.621,7.766v11.72C88.864,121.74,85.738,125.109,81.291,125.155z"/>
	<path fill="#FEE600" d="M81.115,103.384h0.075c1.341,0,2.428,1.087,2.428,2.427v1.539c0,1.342-1.087,2.429-2.428,2.429h-0.075   c-1.341,0-2.428-1.087-2.428-2.429v-1.539C78.688,104.471,79.775,103.384,81.115,103.384z"/>
	<path fill="#010101" d="M32.677,87.443v-12.43h7.244c5.995,0,8.136,10.889,0.343,12.43H32.677z M32.677,65.549V53.686h8.188   c5.31,0,6.398,10.232,0.318,11.863H32.677z M22.913,43.844v52.903l16.666,0.018c13.445,0,20.271-16.313,10.923-26.371   c0,0-0.028-0.028-0.028-0.077c0-0.05,0.067-0.102,0.067-0.102c7.769-8.775,4.515-24.19-9.934-26.37L22.913,43.844L22.913,43.844z"/>
	<path fill="#010101" d="M101.522,87.443v-12.43h7.195c5.993,0,8.136,10.889,0.342,12.43H101.522z M101.522,65.549V53.686h8.138   c5.309,0,6.397,10.232,0.318,11.863H101.522z M91.708,43.844v52.903l16.666,0.018c13.446,0,20.272-16.313,10.924-26.371   c0,0-0.028-0.028-0.028-0.077c0-0.05,0.066-0.102,0.066-0.102c7.77-8.775,4.515-24.19-9.934-26.37L91.708,43.844L91.708,43.844z"/>
	<path fill="#010101" d="M60.425,97.877h0.176c4.29,0,7.769,3.479,7.769,7.77v11.729c0,4.291-3.479,7.769-7.769,7.769h-0.176   c-4.291,0-7.769-3.478-7.769-7.769v-11.729C52.656,101.356,56.134,97.877,60.425,97.877z"/>
	<path fill="#FEE600" d="M60.473,103.45h0.078c1.341,0,2.428,1.087,2.428,2.427v11.646c0,1.342-1.087,2.428-2.428,2.428h-0.078   c-1.341,0-2.428-1.087-2.428-2.428v-11.646C58.045,104.537,59.133,103.45,60.473,103.45z"/>
	<polygon fill="#010101" points="49.746,17.42 67.081,71.052 74.581,71.052 91.708,17.42 81.219,17.42 70.813,53.217 60.478,17.42     "/>
</g>
</svg>