<?xml version="1.0" encoding="utf-8"?>
<!-- Generator: Adobe Illustrator 15.1.0, SVG Export Plug-In . SVG Version: 6.00 Build 0)  -->
<!DOCTYPE svg PUBLIC "-//W3C//DTD SVG 1.1//EN" "http://www.w3.org/Graphics/SVG/1.1/DTD/svg11.dtd">
<svg version="1.1" id="Ebene_1" xmlns="http://www.w3.org/2000/svg" xmlns:xlink="http://www.w3.org/1999/xlink" x="0px" y="0px"
	 width="141.732px" height="141.729px" viewBox="0 0 141.732 141.729" enable-background="new 0 0 141.732 141.729"
	 xml:space="preserve">
<path fill="#FFFFFF" d="M85.603,2.148c-0.897-1.648-2.331-1.255-2.331-1.255s-2.419,1.435-3.674,2.51
	c-1.254,1.075-3.316,1.703-4.122,6.452c-0.808,4.75-1.793,5.826-1.793,5.826s-0.27-0.178-0.897-0.896
	c-0.627-0.718-0.806-1.345-0.806-1.345s-0.179-0.717-0.806-5.376C70.544,3.404,67.766,0,67.766,0s-0.896,0.269-2.958,3.496
	c-2.062,3.227-2.779,10.845-2.779,10.845s-1.792-2.958-3.227-5.559c-1.435-2.598-5.109-5.286-6.991-6.184
	c-1.882-0.896-4.393-1.344-4.393-1.344s-0.992,0.73-1.979,5.213c-0.986,4.481,0.994,8.321,2.518,10.83s5.558,5.735,6.453,6.274
	c0.897,0.538-0.179,2.24-0.628,3.047c-0.448,0.807-1.165,3.585-1.165,3.585s0,0-0.716,0.268c-0.717,0.269-0.537,0.897-0.537,1.434
	c0,0.537,0.271,1.073,0.271,1.073l-1.185,2.87l2.348-0.447c0,0,0.179,0.986,0.447,1.792c0.27,0.807,0.09,1.344-0.089,3.138
	c-0.179,1.792-0.717,4.57-0.807,6.452c-0.089,1.883,1.972,7.708,1.882,8.156c-0.089,0.448-1.165,2.062-1.882,3.138
	s-0.717,4.393-0.717,4.393s-2.095-0.929-3.137-1.345c-0.601-0.239-6.99-2.151-12.011-0.538c-5.02,1.612-8.873,6.453-12.01,11.472
	c-3.137,5.021-3.854,11.831-3.943,15.595c-0.089,3.748,1.33,7.759,1.343,7.798c-0.011-0.034-0.167-0.632,0.628-5.557
	c0.754-4.669,2.758-9.497,6.186-14.968c3.193-5.099,8.426-8.066,8.426-8.066s0,0-1.344,1.703s-3.72,6.05-4.75,9.41
	c-0.922,3.011-1.477,8.438-0.928,12.081c0.496,3.299,2.451,6.92,2.451,6.92s-0.173-2.876,0.008-6.373
	c0.179-3.495,1.941-8.69,3.129-11.465c1.334-3.113,4.437-8.529,5.57-9.946c1.458-1.821,3.481-3.139,3.481-3.139
	s-3.316,4.212-5.108,7.887s-4.211,9.411-4.57,16.671c-0.358,7.262,2.689,13.176,2.689,13.176s-0.179-1.075-0.269-2.778
	c-0.089-1.703,0.02-4.731,0.361-7.765c0.363-3.234,2.326-11.506,5.284-16.974c2.958-5.467,6.096-6.811,6.096-6.811
	s-1.931,1.952-3.455,3.923c-1.524,1.972-2.421,4.898-2.869,6.423c-0.448,1.523-0.577,5.876-0.577,5.876s0.16,1.213-0.288,2.915
	c-0.414,1.573,0.013,2.686,0.082,2.848c0.067-0.075,0.009,0.022,0.009,0.022s-0.004-0.009-0.009-0.022
	c-0.082,0.095-0.347,0.45-1.139,1.587c-1.435,2.062-1.435,6.812-1.435,6.812s0.807-1.255,2.152-3.584
	c1.343-2.33,4.839-4.303,6.004-4.75c1.166-0.448,6.634-4.394,6.634-4.394s-0.189,0.351-0.627,0.807
	c-0.69,0.721-1.711,3.009-2.56,4.273c-1.052,1.565-4.027,4.909-5.376,6.06c-1.578,1.343-3.004,4.287-4.522,6.966
	c-1.523,2.688-4.75,10.845-4.75,10.845s3.997-5.138,6.633-6.812c4.593-2.919,6.175-3.423,9.156-6.354
	c2.596-2.551,3.953-8.562,4.009-11.798c0.038-2.33,1.111-5.46,1.111-5.46c-0.208,1.221-0.208,1.204-0.365,2.072
	c-0.32,1.771,0.365,4.631,0.365,4.631s1.383-3.314,4.591-6.907c1.14-1.381,3.752-3.702,5.201-4.713
	c5.241-3.658,7.11-4.062,9.467-4.916c1.935-0.699,4.186-1.138,4.186-1.138s1.001-1.808,1.717-4.766
	c0.716-2.957,1.076-5.646,1.254-9.319c0.18-3.674-0.985-10.039-0.896-10.486c0.09-0.449,0.447-3.406,0-5.646
	c-0.448-2.241-0.986-3.765-1.166-4.393c-0.179-0.627-0.536-2.151-0.447-3.496c0.089-1.344-0.359-4.75-0.359-5.198
	c0-0.447,0-2.15-0.268-3.315c-0.27-1.165-0.809-2.778-0.809-2.778s0.449-0.717,0.718-1.255s0.18-1.793,0.18-1.793
	s1.613-0.896,2.15-1.344c0.538-0.448,3.228-1.523,4.393-6.453C88.471,9.499,86.339,3.504,85.603,2.148z M47.445,76.479
	c3.193-4.114,7.197-6.058,7.197-6.058S52.956,73.291,52,74.476c-0.956,1.186-2.87,3.325-4.19,4.51
	c-1.321,1.187-4.055,5.376-4.055,5.376S44.757,79.941,47.445,76.479z M55.507,77.164c-0.775,1.457-1.412,3.006-2.599,4.373
	c-1.185,1.365-3.232,3.097-4.782,4.235c-1.548,1.14-4.6,3.689-4.6,3.689s1.229-2.278,2.231-3.599
	c1.763-2.323,5.295-4.768,6.377-5.738c2.23-2.004,3.279-3.554,3.279-3.554l0.729-0.774C56.145,75.796,56.282,75.706,55.507,77.164z"
	/>
<circle fill="#FFFFFF" cx="87.638" cy="108.164" r="33.566"/>
<g>
	<g>
		<circle fill="#FFFFFF" cx="87.564" cy="108.476" r="24.405"/>
		<circle fill="#0D6EB7" cx="87.59" cy="108.229" r="32.558"/>
		<path fill="#FFFFFF" d="M109.383,97.576c4.058,7.544,3.2,18.444-2.218,25.165c-6.403,8.431-16.957,11.568-26.909,8.685
			c-8.748-2.281-16.164-11.409-16.957-20.315c-1.108-10.206,4.087-19.746,13.152-24.341c7.354-4.025,18.129-3.17,24.882,1.585
			C104.725,90.603,107.578,94.058,109.383,97.576z"/>
		<path fill="#0D6EB7" d="M94.995,90.191c-0.981,1.173-2.377,2.091-3.55,3.105c-1.299-1.046-2.504-3.168-4.343-2.947
			c-0.604,0.349-0.729,1.015-0.538,1.586c3.263,5.8,12.52,10.838,7.543,18.353c-2.03,2.691-5.135,3.93-8.463,3.326
			c-2.25-0.475-4.596-2.186-5.547-4.342c-1.015-1.934-1.015-4.85-0.062-6.847l4.562,2.218c-0.031,0.856-0.097,1.901,0.507,2.601
			c0.54,0.604,1.174,0.981,1.902,1.046c0.854,0.063,1.521-0.284,2.061-0.919c0.604-0.666,0.634-1.774,0.381-2.662
			c-2.312-3.612-5.39-6.94-7.767-10.555c-0.854-1.901-0.76-4.438,0.539-6.084c1.521-2.029,3.771-2.726,6.242-2.377
			C91.064,86.167,93.093,88.194,94.995,90.191z"/>
		<path fill="#0D6EB7" d="M102.316,91.554c6.182,5.545,8.843,13.248,7.227,21.52c-0.981,4.089-2.916,7.861-6.086,10.969
			c-1.488-0.478-2.852-1.174-4.275-1.744c5.292-5.008,7.7-12.36,5.322-19.396c-0.729-1.997-1.773-3.867-3.168-5.547h-0.381
			l-5.705,2.79l-0.118,0.062l-2.924-3.771C95.565,94.787,98.83,92.948,102.316,91.554z"/>
		<path fill="#0D6EB7" d="M80.7,95.515c2.094,2.694,4.151,5.39,6.244,8.051c-4.343-1.997-8.843-4.058-13.247-6.212
			c-0.951,0.793-1.555,2.029-2.188,3.106c-2.948,5.482-2.25,13.504,1.426,18.414l3.138,3.486l-4.278,1.837
			c-5.704-5.482-7.923-13.47-6.147-21.141c1.173-4.278,3.297-8.239,7.003-11.408L80.7,95.515z"/>
		<path fill="#0D6EB7" d="M100.794,99.636c2.98,4.057,3.709,10.712,1.427,15.339c-2.567,6.085-8.873,11.094-14.517,14.01
			c-7.83-3.835-16.513-11.378-16.195-20.979c0.158-3.075,0.919-5.864,2.566-8.306l4.278,1.966c-0.556,0.784-1.046,1.615-1.298,2.535
			c-2.505,6.623,1.68,12.52,6.622,16.861c1.205,0.983,2.507,1.774,3.868,2.377c6.182-2.916,11.607-9.303,11.125-16.45
			c-0.13-1.934-0.887-3.738-2.281-5.229C97.752,100.968,99.305,100.27,100.794,99.636z"/>
		<g>
			<g>
				<polygon fill="#0D6EB7" points="68.715,133.065 67.121,131.629 68.631,128.715 65.893,130.523 64.304,129.095 67.796,125.216
					68.787,126.105 66.123,129.065 69.554,126.796 70.45,127.604 68.551,131.252 71.215,128.294 72.208,129.187 				"/>
				<polygon fill="#0D6EB7" points="63.117,127.54 60.611,123.96 61.524,123.32 63.092,125.562 63.773,125.085 62.318,123.007
					63.19,122.396 64.645,124.475 65.487,123.883 63.873,121.58 64.841,120.901 67.393,124.545 				"/>

					<rect x="60.969" y="117.919" transform="matrix(-0.4386 -0.8987 0.8987 -0.4386 -19.4318 228.9175)" fill="#0D6EB7" width="1.634" height="5.218"/>
				<path fill="#0D6EB7" d="M58.23,119.125l-0.667-2.328c-0.131-0.459-0.176-0.848-0.133-1.163c0.042-0.318,0.15-0.604,0.33-0.854
					c0.177-0.251,0.406-0.461,0.688-0.632c0.282-0.172,0.593-0.305,0.937-0.403c0.535-0.154,0.971-0.211,1.303-0.172
					c0.33,0.038,0.625,0.138,0.89,0.3c0.263,0.16,0.461,0.358,0.601,0.59c0.189,0.316,0.324,0.616,0.404,0.896l0.667,2.327
					L58.23,119.125z M58.917,117.231l2.742-0.787l-0.109-0.384c-0.095-0.328-0.196-0.55-0.308-0.668
					c-0.113-0.116-0.269-0.189-0.469-0.217c-0.203-0.026-0.505,0.018-0.907,0.132c-0.531,0.152-0.87,0.345-1.016,0.575
					c-0.146,0.23-0.162,0.551-0.044,0.957L58.917,117.231z"/>
				<polygon fill="#0D6EB7" points="56.613,112.808 56.233,108.457 57.342,108.358 57.581,111.084 58.408,111.011 58.186,108.483
					59.247,108.391 59.468,110.918 60.494,110.829 60.248,108.024 61.426,107.922 61.814,112.353 				"/>
				<path fill="#0D6EB7" d="M61.442,107.261l-5.169-0.729l0.377-2.689c0.07-0.499,0.166-0.875,0.288-1.127
					c0.122-0.253,0.309-0.442,0.562-0.573c0.251-0.129,0.541-0.17,0.869-0.124c0.287,0.04,0.527,0.137,0.718,0.289
					c0.191,0.152,0.334,0.347,0.434,0.581c0.062,0.149,0.104,0.348,0.125,0.595c0.09-0.184,0.174-0.313,0.25-0.394
					c0.051-0.053,0.153-0.126,0.307-0.218c0.155-0.096,0.272-0.156,0.354-0.185l1.607-0.568l-0.256,1.823l-1.701,0.641
					c-0.22,0.081-0.365,0.16-0.438,0.236c-0.097,0.104-0.155,0.231-0.176,0.378l-0.021,0.145l2.097,0.294L61.442,107.261z
					 M58.595,105.208l0.095-0.682c0.011-0.073,0.008-0.221-0.009-0.438c-0.007-0.11-0.048-0.204-0.126-0.283
					c-0.077-0.082-0.172-0.13-0.284-0.146c-0.167-0.023-0.302,0.011-0.407,0.105c-0.103,0.094-0.176,0.288-0.219,0.583l-0.101,0.709
					L58.595,105.208z"/>

					<rect x="59.367" y="97.512" transform="matrix(0.2923 -0.9563 0.9563 0.2923 -53.1556 128.4138)" fill="#0D6EB7" width="1.634" height="5.219"/>
				<path fill="#0D6EB7" d="M62.846,94.973l1.011-1.097c0.313,0.26,0.545,0.54,0.694,0.843c0.147,0.302,0.217,0.621,0.203,0.956
					c-0.012,0.333-0.121,0.713-0.329,1.138c-0.252,0.516-0.53,0.899-0.838,1.157c-0.308,0.253-0.706,0.406-1.195,0.462
					c-0.489,0.055-1.025-0.06-1.607-0.344c-0.775-0.379-1.271-0.878-1.483-1.496c-0.215-0.622-0.136-1.315,0.237-2.079
					c0.291-0.597,0.639-1.007,1.044-1.233c0.406-0.225,0.897-0.301,1.475-0.225l-0.347,1.433c-0.165-0.023-0.292-0.026-0.383-0.011
					c-0.15,0.027-0.284,0.087-0.402,0.177c-0.117,0.09-0.213,0.207-0.284,0.354c-0.161,0.332-0.154,0.649,0.023,0.957
					c0.131,0.229,0.407,0.446,0.827,0.65c0.521,0.254,0.917,0.349,1.188,0.283c0.27-0.064,0.476-0.242,0.616-0.529
					c0.138-0.282,0.161-0.53,0.076-0.748C63.287,95.396,63.112,95.182,62.846,94.973z"/>
				<polygon fill="#0D6EB7" points="61.677,90.836 62.724,89.587 64.124,90.761 65.269,89.396 63.87,88.223 64.921,86.968
					68.92,90.323 67.869,91.579 66.25,90.221 65.106,91.585 66.723,92.941 65.675,94.191 				"/>
				<polygon fill="#0D6EB7" points="66.315,85.678 69.709,82.928 70.411,83.795 68.286,85.517 68.808,86.161 70.779,84.564
					71.45,85.392 69.478,86.988 70.125,87.788 72.312,86.017 73.056,86.936 69.6,89.734 				"/>
				<path fill="#0D6EB7" d="M73.631,86.642l-2.289-4.691l2.441-1.189c0.453-0.221,0.818-0.353,1.096-0.392
					c0.276-0.039,0.539,0.008,0.789,0.146c0.247,0.135,0.443,0.353,0.591,0.651c0.128,0.261,0.181,0.514,0.16,0.758
					c-0.021,0.242-0.1,0.47-0.236,0.683c-0.089,0.136-0.23,0.282-0.425,0.438c0.202-0.027,0.358-0.032,0.467-0.015
					c0.071,0.013,0.19,0.058,0.354,0.134c0.165,0.074,0.282,0.139,0.35,0.189l1.373,1.016l-1.656,0.808l-1.482-1.052
					c-0.188-0.138-0.336-0.216-0.44-0.232c-0.143-0.021-0.277,0.001-0.411,0.067l-0.13,0.062l0.929,1.904L73.631,86.642z
					 M73.742,83.134l0.618-0.301c0.067-0.033,0.187-0.116,0.357-0.254c0.087-0.067,0.144-0.153,0.164-0.263
					c0.021-0.108,0.011-0.216-0.039-0.317c-0.072-0.151-0.179-0.243-0.314-0.277s-0.339,0.015-0.604,0.146l-0.646,0.313
					L73.742,83.134z"/>
				<path fill="#0D6EB7" d="M81.381,81.706l1.525-0.283c0.063,0.242,0.154,0.423,0.272,0.54c0.191,0.189,0.442,0.266,0.754,0.227
					c0.229-0.027,0.4-0.102,0.514-0.223c0.112-0.124,0.16-0.257,0.144-0.398c-0.018-0.134-0.092-0.247-0.224-0.339
					c-0.131-0.091-0.421-0.158-0.865-0.198c-0.729-0.069-1.261-0.219-1.596-0.441c-0.337-0.225-0.529-0.539-0.579-0.943
					c-0.033-0.267,0.014-0.526,0.141-0.782c0.129-0.256,0.34-0.471,0.636-0.645c0.298-0.175,0.719-0.296,1.265-0.362
					c0.669-0.083,1.193-0.021,1.574,0.185c0.382,0.202,0.639,0.566,0.772,1.096L84.2,79.414c-0.068-0.229-0.177-0.389-0.318-0.479
					c-0.143-0.091-0.327-0.121-0.557-0.093c-0.188,0.021-0.325,0.08-0.409,0.172c-0.086,0.09-0.122,0.192-0.107,0.305
					c0.01,0.082,0.059,0.151,0.146,0.206c0.084,0.06,0.272,0.102,0.565,0.125c0.727,0.064,1.251,0.155,1.574,0.271
					c0.325,0.116,0.571,0.279,0.737,0.491c0.169,0.212,0.271,0.458,0.307,0.741c0.039,0.331-0.016,0.65-0.166,0.953
					c-0.151,0.305-0.386,0.548-0.699,0.735c-0.315,0.185-0.729,0.308-1.235,0.37c-0.891,0.108-1.526,0.016-1.912-0.282
					C81.737,82.631,81.491,82.224,81.381,81.706z"/>
				<polygon fill="#0D6EB7" points="86.833,77.601 88.535,77.719 89.458,81.549 90.885,77.884 92.538,78 90.221,83.069
					88.458,82.945 				"/>
				<path fill="#0D6EB7" d="M95.645,81.499c0.354-0.928,0.771-1.512,1.25-1.751c0.479-0.241,1.064-0.229,1.756,0.035
					c0.33,0.13,0.588,0.272,0.77,0.438c0.183,0.161,0.313,0.333,0.399,0.516c0.084,0.18,0.138,0.357,0.159,0.53
					c0.022,0.172,0.021,0.361-0.004,0.57c-0.048,0.397-0.146,0.795-0.299,1.188c-0.34,0.884-0.738,1.475-1.198,1.769
					s-1.061,0.299-1.799,0.015c-0.415-0.159-0.726-0.353-0.931-0.582c-0.204-0.229-0.341-0.5-0.405-0.814
					c-0.051-0.227-0.05-0.507,0.004-0.843C95.4,82.231,95.5,81.875,95.645,81.499z M97,82.021c-0.236,0.622-0.346,1.066-0.323,1.338
					c0.023,0.27,0.144,0.442,0.354,0.524c0.14,0.054,0.277,0.052,0.415-0.006c0.141-0.058,0.273-0.182,0.401-0.372
					c0.13-0.189,0.277-0.505,0.446-0.944c0.25-0.647,0.36-1.104,0.332-1.369c-0.022-0.266-0.146-0.438-0.367-0.526
					c-0.227-0.086-0.435-0.035-0.622,0.153C97.448,81.008,97.236,81.408,97,82.021z"/>
				<path fill="#0D6EB7" d="M102.717,87.927l-3.77-2.264c0.265-0.344,0.604-0.609,1.015-0.805c0.416-0.19,1.059-0.329,1.926-0.406
					c0.529-0.051,0.891-0.115,1.077-0.192c0.188-0.078,0.317-0.181,0.395-0.307c0.082-0.138,0.1-0.283,0.054-0.44
					c-0.042-0.158-0.141-0.283-0.295-0.376c-0.161-0.097-0.322-0.126-0.483-0.088c-0.161,0.039-0.333,0.176-0.521,0.406
					l-1.198-0.856c0.261-0.32,0.515-0.539,0.764-0.654c0.25-0.117,0.524-0.156,0.826-0.116c0.305,0.037,0.667,0.186,1.093,0.438
					c0.44,0.268,0.756,0.521,0.939,0.769c0.188,0.249,0.287,0.52,0.304,0.811c0.019,0.291-0.051,0.563-0.204,0.82
					c-0.163,0.271-0.401,0.483-0.713,0.636c-0.311,0.151-0.768,0.249-1.371,0.289c-0.357,0.021-0.601,0.039-0.729,0.058
					c-0.126,0.02-0.28,0.049-0.463,0.092l1.963,1.179L102.717,87.927z"/>
				<path fill="#0D6EB7" d="M108.89,86.43l1.621,1.8c0.318,0.354,0.528,0.685,0.63,0.987c0.103,0.305,0.129,0.609,0.079,0.912
					c-0.052,0.304-0.164,0.594-0.344,0.87c-0.179,0.276-0.399,0.535-0.666,0.772c-0.415,0.373-0.779,0.615-1.097,0.726
					c-0.312,0.111-0.622,0.15-0.93,0.121c-0.308-0.031-0.572-0.12-0.799-0.27c-0.311-0.202-0.562-0.411-0.757-0.627l-1.619-1.799
					L108.89,86.43z M109.103,88.432l-2.12,1.909l0.268,0.297c0.229,0.254,0.418,0.409,0.569,0.468
					c0.152,0.057,0.326,0.055,0.517-0.011c0.193-0.064,0.446-0.237,0.758-0.517c0.41-0.369,0.633-0.69,0.662-0.963
					c0.027-0.271-0.099-0.563-0.38-0.88L109.103,88.432z"/>
				<path fill="#0D6EB7" d="M114.77,94.493l0.764,1.437l-2.748,1.461c-0.271,0.146-0.554,0.238-0.843,0.282
					c-0.285,0.042-0.569,0.021-0.85-0.067c-0.277-0.085-0.507-0.21-0.687-0.373c-0.252-0.226-0.481-0.533-0.689-0.926
					c-0.12-0.227-0.236-0.482-0.349-0.769c-0.109-0.284-0.168-0.541-0.171-0.771c-0.002-0.23,0.043-0.467,0.136-0.708
					c0.094-0.239,0.217-0.437,0.369-0.588c0.246-0.245,0.482-0.428,0.708-0.548l2.749-1.461l0.763,1.436l-2.813,1.495
					c-0.252,0.134-0.411,0.31-0.479,0.524c-0.064,0.217-0.029,0.451,0.103,0.7c0.131,0.246,0.304,0.403,0.516,0.471
					c0.216,0.066,0.452,0.033,0.708-0.104L114.77,94.493z"/>

					<rect x="113.187" y="96.593" transform="matrix(0.3259 0.9454 -0.9454 0.3259 170.6375 -40.9061)" fill="#0D6EB7" width="1.633" height="5.221"/>
				<path fill="#0D6EB7" d="M113.828,101.186l0.364,1.511c-0.239,0.076-0.415,0.177-0.525,0.302c-0.18,0.201-0.24,0.457-0.188,0.764
					c0.04,0.229,0.124,0.395,0.252,0.499c0.13,0.105,0.265,0.146,0.405,0.122c0.133-0.022,0.241-0.104,0.325-0.239
					c0.086-0.137,0.137-0.428,0.153-0.874c0.033-0.73,0.152-1.271,0.359-1.618c0.207-0.349,0.511-0.558,0.913-0.629
					c0.265-0.046,0.526-0.013,0.788,0.102c0.264,0.113,0.488,0.312,0.677,0.601c0.19,0.287,0.334,0.702,0.43,1.243
					c0.116,0.664,0.084,1.189-0.101,1.582c-0.183,0.393-0.531,0.669-1.054,0.829l-0.354-1.498c0.224-0.081,0.377-0.194,0.459-0.345
					c0.085-0.146,0.104-0.332,0.064-0.561c-0.032-0.187-0.099-0.318-0.192-0.399s-0.196-0.111-0.311-0.093
					c-0.082,0.016-0.146,0.067-0.199,0.157c-0.055,0.086-0.085,0.278-0.095,0.572c-0.025,0.729-0.09,1.257-0.19,1.587
					c-0.1,0.331-0.249,0.586-0.452,0.763c-0.201,0.18-0.443,0.293-0.725,0.343c-0.33,0.06-0.649,0.021-0.959-0.113
					c-0.311-0.136-0.568-0.356-0.771-0.661c-0.2-0.306-0.346-0.711-0.436-1.214c-0.155-0.883-0.097-1.525,0.182-1.925
					C112.923,101.59,113.317,101.321,113.828,101.186z"/>
				<path fill="#0D6EB7" d="M118.246,106.854l-0.054,3.051c-0.008,0.51-0.141,0.897-0.394,1.163
					c-0.255,0.27-0.564,0.401-0.934,0.396c-0.31-0.007-0.572-0.107-0.789-0.307c-0.146-0.132-0.258-0.323-0.339-0.574
					c-0.099,0.377-0.257,0.651-0.482,0.825c-0.222,0.178-0.497,0.263-0.829,0.257c-0.271-0.008-0.515-0.073-0.729-0.205
					c-0.214-0.13-0.381-0.309-0.504-0.529c-0.075-0.138-0.13-0.346-0.16-0.622c-0.04-0.367-0.062-0.61-0.059-0.729l0.05-2.814
					L118.246,106.854z M116.17,108.463l-0.013,0.709c-0.005,0.254,0.036,0.433,0.119,0.531c0.085,0.102,0.21,0.154,0.375,0.156
					c0.151,0.003,0.271-0.046,0.359-0.145c0.086-0.099,0.132-0.27,0.138-0.517l0.012-0.721L116.17,108.463z M114.12,108.428
					l-0.015,0.831c-0.005,0.28,0.04,0.479,0.136,0.596c0.099,0.115,0.229,0.177,0.396,0.179c0.153,0.005,0.277-0.053,0.373-0.164
					c0.097-0.112,0.146-0.311,0.152-0.596l0.015-0.827L114.12,108.428z"/>
				<path fill="#0D6EB7" d="M117.096,116.728l-0.394,1.578l-3.019-0.753c-0.3-0.075-0.572-0.193-0.814-0.356
					c-0.242-0.158-0.438-0.363-0.589-0.616c-0.146-0.25-0.235-0.496-0.26-0.736c-0.037-0.336-0.001-0.719,0.105-1.149
					c0.062-0.25,0.147-0.517,0.256-0.805c0.106-0.284,0.236-0.514,0.389-0.686c0.152-0.173,0.345-0.317,0.575-0.437
					c0.229-0.115,0.452-0.179,0.666-0.189c0.347-0.019,0.645,0.006,0.894,0.066l3.021,0.754l-0.394,1.578l-3.092-0.771
					c-0.276-0.069-0.513-0.047-0.707,0.068c-0.193,0.117-0.324,0.313-0.393,0.589c-0.067,0.271-0.046,0.504,0.069,0.696
					c0.114,0.193,0.313,0.327,0.595,0.396L117.096,116.728z"/>
				<path fill="#0D6EB7" d="M111.378,117.757l4.652,2.37l-1.235,2.421c-0.229,0.45-0.44,0.772-0.637,0.973
					c-0.197,0.198-0.438,0.316-0.718,0.357c-0.279,0.04-0.567-0.016-0.863-0.165c-0.258-0.131-0.453-0.3-0.586-0.508
					c-0.129-0.207-0.202-0.438-0.22-0.69c-0.011-0.161,0.015-0.362,0.075-0.604c-0.146,0.145-0.268,0.239-0.363,0.291
					c-0.065,0.033-0.188,0.068-0.36,0.105c-0.178,0.038-0.309,0.058-0.394,0.058l-1.707,0.016l0.836-1.643l1.818-0.052
					c0.233-0.005,0.397-0.032,0.491-0.081c0.126-0.067,0.223-0.168,0.289-0.3l0.065-0.129l-1.888-0.962L111.378,117.757z
					 M113.401,120.627l-0.312,0.61c-0.034,0.067-0.078,0.206-0.134,0.418c-0.028,0.105-0.021,0.208,0.027,0.31
					c0.047,0.102,0.12,0.178,0.223,0.229c0.148,0.076,0.288,0.087,0.419,0.031c0.131-0.054,0.263-0.215,0.396-0.479l0.325-0.639
					L113.401,120.627z"/>
				<path fill="#0D6EB7" d="M108.661,125.786l0.832,0.696l-1.618,1.932l-1.705-1.433c0.062-0.577,0.165-1.049,0.314-1.408
					c0.147-0.358,0.386-0.73,0.713-1.121c0.403-0.48,0.812-0.805,1.229-0.973c0.415-0.165,0.852-0.197,1.312-0.097
					c0.459,0.104,0.896,0.329,1.312,0.677c0.437,0.366,0.738,0.775,0.907,1.229c0.172,0.452,0.193,0.926,0.066,1.418
					c-0.1,0.382-0.346,0.805-0.733,1.267c-0.376,0.447-0.694,0.747-0.959,0.9c-0.268,0.154-0.545,0.234-0.836,0.237
					c-0.291,0.009-0.596-0.062-0.915-0.205l0.798-1.383c0.191,0.076,0.379,0.089,0.561,0.037c0.178-0.051,0.346-0.168,0.498-0.352
					c0.229-0.274,0.319-0.572,0.268-0.896c-0.052-0.318-0.28-0.648-0.688-0.991c-0.434-0.36-0.811-0.541-1.132-0.53
					c-0.325,0.009-0.609,0.161-0.856,0.454c-0.117,0.141-0.209,0.289-0.275,0.451c-0.066,0.16-0.119,0.361-0.16,0.605l0.376,0.314
					L108.661,125.786z"/>
			</g>
			<g>
				<polygon fill="#FFFFFF" points="68.715,133.065 67.121,131.629 68.631,128.715 65.893,130.523 64.304,129.095 67.796,125.216
					68.787,126.105 66.123,129.065 69.554,126.796 70.45,127.604 68.551,131.252 71.215,128.294 72.208,129.187 				"/>
				<polygon fill="#FFFFFF" points="63.117,127.54 60.611,123.96 61.524,123.32 63.092,125.562 63.773,125.085 62.318,123.007
					63.19,122.396 64.645,124.475 65.487,123.883 63.873,121.58 64.841,120.901 67.393,124.545 				"/>

					<rect x="60.969" y="117.919" transform="matrix(-0.4386 -0.8987 0.8987 -0.4386 -19.4318 228.9175)" fill="#FFFFFF" width="1.634" height="5.218"/>
				<path fill="#FFFFFF" d="M58.23,119.125l-0.667-2.328c-0.131-0.459-0.176-0.848-0.133-1.163c0.042-0.318,0.15-0.604,0.33-0.854
					c0.177-0.251,0.406-0.461,0.688-0.632c0.282-0.172,0.593-0.305,0.937-0.403c0.535-0.154,0.971-0.211,1.303-0.172
					c0.33,0.038,0.625,0.138,0.89,0.3c0.263,0.16,0.461,0.358,0.601,0.59c0.189,0.316,0.324,0.616,0.404,0.896l0.667,2.327
					L58.23,119.125z M58.917,117.231l2.742-0.787l-0.109-0.384c-0.095-0.328-0.196-0.55-0.308-0.668
					c-0.113-0.116-0.269-0.189-0.469-0.217c-0.203-0.026-0.505,0.018-0.907,0.132c-0.531,0.152-0.87,0.345-1.016,0.575
					c-0.146,0.23-0.162,0.551-0.044,0.957L58.917,117.231z"/>
				<polygon fill="#FFFFFF" points="56.613,112.808 56.233,108.457 57.342,108.358 57.581,111.084 58.408,111.011 58.186,108.483
					59.247,108.391 59.468,110.918 60.494,110.829 60.248,108.024 61.426,107.922 61.814,112.353 				"/>
				<path fill="#FFFFFF" d="M61.442,107.261l-5.169-0.729l0.377-2.689c0.07-0.499,0.166-0.875,0.288-1.127
					c0.122-0.253,0.309-0.442,0.562-0.573c0.251-0.129,0.541-0.17,0.869-0.124c0.287,0.04,0.527,0.137,0.718,0.289
					c0.191,0.152,0.334,0.347,0.434,0.581c0.062,0.149,0.104,0.348,0.125,0.595c0.09-0.184,0.174-0.313,0.25-0.394
					c0.051-0.053,0.153-0.126,0.307-0.218c0.155-0.096,0.272-0.156,0.354-0.185l1.607-0.568l-0.256,1.823l-1.701,0.641
					c-0.22,0.081-0.365,0.16-0.438,0.236c-0.097,0.104-0.155,0.231-0.176,0.378l-0.021,0.145l2.097,0.294L61.442,107.261z
					 M58.595,105.208l0.095-0.682c0.011-0.073,0.008-0.221-0.009-0.438c-0.007-0.11-0.048-0.204-0.126-0.283
					c-0.077-0.082-0.172-0.13-0.284-0.146c-0.167-0.023-0.302,0.011-0.407,0.105c-0.103,0.094-0.176,0.288-0.219,0.583l-0.101,0.709
					L58.595,105.208z"/>

					<rect x="59.367" y="97.512" transform="matrix(0.2923 -0.9563 0.9563 0.2923 -53.1556 128.4138)" fill="#FFFFFF" width="1.634" height="5.219"/>
				<path fill="#FFFFFF" d="M62.846,94.973l1.011-1.097c0.313,0.26,0.545,0.54,0.694,0.843c0.147,0.302,0.217,0.621,0.203,0.956
					c-0.012,0.333-0.121,0.713-0.329,1.138c-0.252,0.516-0.53,0.899-0.838,1.157c-0.308,0.253-0.706,0.406-1.195,0.462
					c-0.489,0.055-1.025-0.06-1.607-0.344c-0.775-0.379-1.271-0.878-1.483-1.496c-0.215-0.622-0.136-1.315,0.237-2.079
					c0.291-0.597,0.639-1.007,1.044-1.233c0.406-0.225,0.897-0.301,1.475-0.225l-0.347,1.433c-0.165-0.023-0.292-0.026-0.383-0.011
					c-0.15,0.027-0.284,0.087-0.402,0.177c-0.117,0.09-0.213,0.207-0.284,0.354c-0.161,0.332-0.154,0.649,0.023,0.957
					c0.131,0.229,0.407,0.446,0.827,0.65c0.521,0.254,0.917,0.349,1.188,0.283c0.27-0.064,0.476-0.242,0.616-0.529
					c0.138-0.282,0.161-0.53,0.076-0.748C63.287,95.396,63.112,95.182,62.846,94.973z"/>
				<polygon fill="#FFFFFF" points="61.677,90.836 62.724,89.587 64.124,90.761 65.269,89.396 63.87,88.223 64.921,86.968
					68.92,90.323 67.869,91.579 66.25,90.221 65.106,91.585 66.723,92.941 65.675,94.191 				"/>
				<polygon fill="#FFFFFF" points="66.315,85.678 69.709,82.928 70.411,83.795 68.286,85.517 68.808,86.161 70.779,84.564
					71.45,85.392 69.478,86.988 70.125,87.788 72.312,86.017 73.056,86.936 69.6,89.734 				"/>
				<path fill="#FFFFFF" d="M73.631,86.642l-2.289-4.691l2.441-1.189c0.453-0.221,0.818-0.353,1.096-0.392
					c0.276-0.039,0.539,0.008,0.789,0.146c0.247,0.135,0.443,0.353,0.591,0.651c0.128,0.261,0.181,0.514,0.16,0.758
					c-0.021,0.242-0.1,0.47-0.236,0.683c-0.089,0.136-0.23,0.282-0.425,0.438c0.202-0.027,0.358-0.032,0.467-0.015
					c0.071,0.013,0.19,0.058,0.354,0.134c0.165,0.074,0.282,0.139,0.35,0.189l1.373,1.016l-1.656,0.808l-1.482-1.052
					c-0.188-0.138-0.336-0.216-0.44-0.232c-0.143-0.021-0.277,0.001-0.411,0.067l-0.13,0.062l0.929,1.904L73.631,86.642z
					 M73.742,83.134l0.618-0.301c0.067-0.033,0.187-0.116,0.357-0.254c0.087-0.067,0.144-0.153,0.164-0.263
					c0.021-0.108,0.011-0.216-0.039-0.317c-0.072-0.151-0.179-0.243-0.314-0.277s-0.339,0.015-0.604,0.146l-0.646,0.313
					L73.742,83.134z"/>
				<path fill="#FFFFFF" d="M81.381,81.706l1.525-0.283c0.063,0.242,0.154,0.423,0.272,0.54c0.191,0.189,0.442,0.266,0.754,0.227
					c0.229-0.027,0.4-0.102,0.514-0.223c0.112-0.124,0.16-0.257,0.144-0.398c-0.018-0.134-0.092-0.247-0.224-0.339
					c-0.131-0.091-0.421-0.158-0.865-0.198c-0.729-0.069-1.261-0.219-1.596-0.441c-0.337-0.225-0.529-0.539-0.579-0.943
					c-0.033-0.267,0.014-0.526,0.141-0.782c0.129-0.256,0.34-0.471,0.636-0.645c0.298-0.175,0.719-0.296,1.265-0.362
					c0.669-0.083,1.193-0.021,1.574,0.185c0.382,0.202,0.639,0.566,0.772,1.096L84.2,79.414c-0.068-0.229-0.177-0.389-0.318-0.479
					c-0.143-0.091-0.327-0.121-0.557-0.093c-0.188,0.021-0.325,0.08-0.409,0.172c-0.086,0.09-0.122,0.192-0.107,0.305
					c0.01,0.082,0.059,0.151,0.146,0.206c0.084,0.06,0.272,0.102,0.565,0.125c0.727,0.064,1.251,0.155,1.574,0.271
					c0.325,0.116,0.571,0.279,0.737,0.491c0.169,0.212,0.271,0.458,0.307,0.741c0.039,0.331-0.016,0.65-0.166,0.953
					c-0.151,0.305-0.386,0.548-0.699,0.735c-0.315,0.185-0.729,0.308-1.235,0.37c-0.891,0.108-1.526,0.016-1.912-0.282
					C81.737,82.631,81.491,82.224,81.381,81.706z"/>
				<polygon fill="#FFFFFF" points="86.833,77.601 88.535,77.719 89.458,81.549 90.885,77.884 92.538,78 90.221,83.069
					88.458,82.945 				"/>
				<path fill="#FFFFFF" d="M95.645,81.499c0.354-0.928,0.771-1.512,1.25-1.751c0.479-0.241,1.064-0.229,1.756,0.035
					c0.33,0.13,0.588,0.272,0.77,0.438c0.183,0.161,0.313,0.333,0.399,0.516c0.084,0.18,0.138,0.357,0.159,0.53
					c0.022,0.172,0.021,0.361-0.004,0.57c-0.048,0.397-0.146,0.795-0.299,1.188c-0.34,0.884-0.738,1.475-1.198,1.769
					s-1.061,0.299-1.799,0.015c-0.415-0.159-0.726-0.353-0.931-0.582c-0.204-0.229-0.341-0.5-0.405-0.814
					c-0.051-0.227-0.05-0.507,0.004-0.843C95.4,82.231,95.5,81.875,95.645,81.499z M97,82.021c-0.236,0.622-0.346,1.066-0.323,1.338
					c0.023,0.27,0.144,0.442,0.354,0.524c0.14,0.054,0.277,0.052,0.415-0.006c0.141-0.058,0.273-0.182,0.401-0.372
					c0.13-0.189,0.277-0.505,0.446-0.944c0.25-0.647,0.36-1.104,0.332-1.369c-0.022-0.266-0.146-0.438-0.367-0.526
					c-0.227-0.086-0.435-0.035-0.622,0.153C97.448,81.008,97.236,81.408,97,82.021z"/>
				<path fill="#FFFFFF" d="M102.717,87.927l-3.77-2.264c0.265-0.344,0.604-0.609,1.015-0.805c0.416-0.19,1.059-0.329,1.926-0.406
					c0.529-0.051,0.891-0.115,1.077-0.192c0.188-0.078,0.317-0.181,0.395-0.307c0.082-0.138,0.1-0.283,0.054-0.44
					c-0.042-0.158-0.141-0.283-0.295-0.376c-0.161-0.097-0.322-0.126-0.483-0.088c-0.161,0.039-0.333,0.176-0.521,0.406
					l-1.198-0.856c0.261-0.32,0.515-0.539,0.764-0.654c0.25-0.117,0.524-0.156,0.826-0.116c0.305,0.037,0.667,0.186,1.093,0.438
					c0.44,0.268,0.756,0.521,0.939,0.769c0.188,0.249,0.287,0.52,0.304,0.811c0.019,0.291-0.051,0.563-0.204,0.82
					c-0.163,0.271-0.401,0.483-0.713,0.636c-0.311,0.151-0.768,0.249-1.371,0.289c-0.357,0.021-0.601,0.039-0.729,0.058
					c-0.126,0.02-0.28,0.049-0.463,0.092l1.963,1.179L102.717,87.927z"/>
				<path fill="#FFFFFF" d="M108.89,86.43l1.621,1.8c0.318,0.354,0.528,0.685,0.63,0.987c0.103,0.305,0.129,0.609,0.079,0.912
					c-0.052,0.304-0.164,0.594-0.344,0.87c-0.179,0.276-0.399,0.535-0.666,0.772c-0.415,0.373-0.779,0.615-1.097,0.726
					c-0.312,0.111-0.622,0.15-0.93,0.121c-0.308-0.031-0.572-0.12-0.799-0.27c-0.311-0.202-0.562-0.411-0.757-0.627l-1.619-1.799
					L108.89,86.43z M109.103,88.432l-2.12,1.909l0.268,0.297c0.229,0.254,0.418,0.409,0.569,0.468
					c0.152,0.057,0.326,0.055,0.517-0.011c0.193-0.064,0.446-0.237,0.758-0.517c0.41-0.369,0.633-0.69,0.662-0.963
					c0.027-0.271-0.099-0.563-0.38-0.88L109.103,88.432z"/>
				<path fill="#FFFFFF" d="M114.77,94.493l0.764,1.437l-2.748,1.461c-0.271,0.146-0.554,0.238-0.843,0.282
					c-0.285,0.042-0.569,0.021-0.85-0.067c-0.277-0.085-0.507-0.21-0.687-0.373c-0.252-0.226-0.481-0.533-0.689-0.926
					c-0.12-0.227-0.236-0.482-0.349-0.769c-0.109-0.284-0.168-0.541-0.171-0.771c-0.002-0.23,0.043-0.467,0.136-0.708
					c0.094-0.239,0.217-0.437,0.369-0.588c0.246-0.245,0.482-0.428,0.708-0.548l2.749-1.461l0.763,1.436l-2.813,1.495
					c-0.252,0.134-0.411,0.31-0.479,0.524c-0.064,0.217-0.029,0.451,0.103,0.7c0.131,0.246,0.304,0.403,0.516,0.471
					c0.216,0.066,0.452,0.033,0.708-0.104L114.77,94.493z"/>

					<rect x="113.187" y="96.593" transform="matrix(0.3259 0.9454 -0.9454 0.3259 170.6375 -40.9061)" fill="#FFFFFF" width="1.633" height="5.221"/>
				<path fill="#FFFFFF" d="M113.828,101.186l0.364,1.511c-0.239,0.076-0.415,0.177-0.525,0.302c-0.18,0.201-0.24,0.457-0.188,0.764
					c0.04,0.229,0.124,0.395,0.252,0.499c0.13,0.105,0.265,0.146,0.405,0.122c0.133-0.022,0.241-0.104,0.325-0.239
					c0.086-0.137,0.137-0.428,0.153-0.874c0.033-0.73,0.152-1.271,0.359-1.618c0.207-0.349,0.511-0.558,0.913-0.629
					c0.265-0.046,0.526-0.013,0.788,0.102c0.264,0.113,0.488,0.312,0.677,0.601c0.19,0.287,0.334,0.702,0.43,1.243
					c0.116,0.664,0.084,1.189-0.101,1.582c-0.183,0.393-0.531,0.669-1.054,0.829l-0.354-1.498c0.224-0.081,0.377-0.194,0.459-0.345
					c0.085-0.146,0.104-0.332,0.064-0.561c-0.032-0.187-0.099-0.318-0.192-0.399s-0.196-0.111-0.311-0.093
					c-0.082,0.016-0.146,0.067-0.199,0.157c-0.055,0.086-0.085,0.278-0.095,0.572c-0.025,0.729-0.09,1.257-0.19,1.587
					c-0.1,0.331-0.249,0.586-0.452,0.763c-0.201,0.18-0.443,0.293-0.725,0.343c-0.33,0.06-0.649,0.021-0.959-0.113
					c-0.311-0.136-0.568-0.356-0.771-0.661c-0.2-0.306-0.346-0.711-0.436-1.214c-0.155-0.883-0.097-1.525,0.182-1.925
					C112.923,101.59,113.317,101.321,113.828,101.186z"/>
				<path fill="#FFFFFF" d="M118.246,106.854l-0.054,3.051c-0.008,0.51-0.141,0.897-0.394,1.163
					c-0.255,0.27-0.564,0.401-0.934,0.396c-0.31-0.007-0.572-0.107-0.789-0.307c-0.146-0.132-0.258-0.323-0.339-0.574
					c-0.099,0.377-0.257,0.651-0.482,0.825c-0.222,0.178-0.497,0.263-0.829,0.257c-0.271-0.008-0.515-0.073-0.729-0.205
					c-0.214-0.13-0.381-0.309-0.504-0.529c-0.075-0.138-0.13-0.346-0.16-0.622c-0.04-0.367-0.062-0.61-0.059-0.729l0.05-2.814
					L118.246,106.854z M116.17,108.463l-0.013,0.709c-0.005,0.254,0.036,0.433,0.119,0.531c0.085,0.102,0.21,0.154,0.375,0.156
					c0.151,0.003,0.271-0.046,0.359-0.145c0.086-0.099,0.132-0.27,0.138-0.517l0.012-0.721L116.17,108.463z M114.12,108.428
					l-0.015,0.831c-0.005,0.28,0.04,0.479,0.136,0.596c0.099,0.115,0.229,0.177,0.396,0.179c0.153,0.005,0.277-0.053,0.373-0.164
					c0.097-0.112,0.146-0.311,0.152-0.596l0.015-0.827L114.12,108.428z"/>
				<path fill="#FFFFFF" d="M117.096,116.728l-0.394,1.578l-3.019-0.753c-0.3-0.075-0.572-0.193-0.814-0.356
					c-0.242-0.158-0.438-0.363-0.589-0.616c-0.146-0.25-0.235-0.496-0.26-0.736c-0.037-0.336-0.001-0.719,0.105-1.149
					c0.062-0.25,0.147-0.517,0.256-0.805c0.106-0.284,0.236-0.514,0.389-0.686c0.152-0.173,0.345-0.317,0.575-0.437
					c0.229-0.115,0.452-0.179,0.666-0.189c0.347-0.019,0.645,0.006,0.894,0.066l3.021,0.754l-0.394,1.578l-3.092-0.771
					c-0.276-0.069-0.513-0.047-0.707,0.068c-0.193,0.117-0.324,0.313-0.393,0.589c-0.067,0.271-0.046,0.504,0.069,0.696
					c0.114,0.193,0.313,0.327,0.595,0.396L117.096,116.728z"/>
				<path fill="#FFFFFF" d="M111.378,117.757l4.652,2.37l-1.235,2.421c-0.229,0.45-0.44,0.772-0.637,0.973
					c-0.197,0.198-0.438,0.316-0.718,0.357c-0.279,0.04-0.567-0.016-0.863-0.165c-0.258-0.131-0.453-0.3-0.586-0.508
					c-0.129-0.207-0.202-0.438-0.22-0.69c-0.011-0.161,0.015-0.362,0.075-0.604c-0.146,0.145-0.268,0.239-0.363,0.291
					c-0.065,0.033-0.188,0.068-0.36,0.105c-0.178,0.038-0.309,0.058-0.394,0.058l-1.707,0.016l0.836-1.643l1.818-0.052
					c0.233-0.005,0.397-0.032,0.491-0.081c0.126-0.067,0.223-0.168,0.289-0.3l0.065-0.129l-1.888-0.962L111.378,117.757z
					 M113.401,120.627l-0.312,0.61c-0.034,0.067-0.078,0.206-0.134,0.418c-0.028,0.105-0.021,0.208,0.027,0.31
					c0.047,0.102,0.12,0.178,0.223,0.229c0.148,0.076,0.288,0.087,0.419,0.031c0.131-0.054,0.263-0.215,0.396-0.479l0.325-0.639
					L113.401,120.627z"/>
				<path fill="#FFFFFF" d="M108.661,125.786l0.832,0.696l-1.618,1.932l-1.705-1.433c0.062-0.577,0.165-1.049,0.314-1.408
					c0.147-0.358,0.386-0.73,0.713-1.121c0.403-0.48,0.812-0.805,1.229-0.973c0.415-0.165,0.852-0.197,1.312-0.097
					c0.459,0.104,0.896,0.329,1.312,0.677c0.437,0.366,0.738,0.775,0.907,1.229c0.172,0.452,0.193,0.926,0.066,1.418
					c-0.1,0.382-0.346,0.805-0.733,1.267c-0.376,0.447-0.694,0.747-0.959,0.9c-0.268,0.154-0.545,0.234-0.836,0.237
					c-0.291,0.009-0.596-0.062-0.915-0.205l0.798-1.383c0.191,0.076,0.379,0.089,0.561,0.037c0.178-0.051,0.346-0.168,0.498-0.352
					c0.229-0.274,0.319-0.572,0.268-0.896c-0.052-0.318-0.28-0.648-0.688-0.991c-0.434-0.36-0.811-0.541-1.132-0.53
					c-0.325,0.009-0.609,0.161-0.856,0.454c-0.117,0.141-0.209,0.289-0.275,0.451c-0.066,0.16-0.119,0.361-0.16,0.605l0.376,0.314
					L108.661,125.786z"/>
			</g>
		</g>
		<path fill="#FFFFFF" d="M89.842,136.741c0,1.175-0.953,2.127-2.127,2.127c-1.176,0-2.129-0.952-2.129-2.127
			c0-1.176,0.953-2.129,2.129-2.129C88.889,134.612,89.842,135.565,89.842,136.741z"/>
	</g>
	<g>
		<path fill="#0D6EB7" d="M68.47,2.336c1.556,3.63,2.489,7.47,2.682,11.651l2.648,2.299c0.8-0.447,0.988-1.437,1.311-2.203
			c1.181-3.448,0.989-7.758,4.82-9.832l3.83-2.683c0.927,0,1.149,1.245,1.629,1.915c1.437,4.183,2.713,10.185-0.319,14.046
			c-1.372,2.012-3.479,3.033-5.204,4.343c0.288,1.181-0.095,2.234-0.829,3.063c-0.128,1.149,0.639,1.915,0.829,2.938
			c-0.032,1.182,0.735,2.331,0.225,3.447c0.766,3.129-0.318,6.736,1.245,9.577c0.414,2.969,1.499,6.162,0.511,9.257
			c1.117,5.938,1.884,12.897,0.255,18.835c-0.352,1.31-0.511,2.777-1.085,3.928h-0.225c1.088-5.684,1.854-11.907,0.545-17.622
			c-0.129-0.097-0.19-0.319-0.383-0.225c-0.703,1.661-1.404,3.353-2.077,5.044c0.192-5.938,2.716-11.301,1.98-17.238l-0.447,1.213
			c0-1.373-0.16-2.873-1.085-3.958c-0.512,1.246-0.575,2.842-0.544,4.438c0.096,4.405-0.254,8.588-1.436,12.48
			c0.605-5.107-1.054-9.448-1.085-14.396c-0.031-0.351-0.287-0.702-0.606-0.861h-1.213c-3.447,2.458-7.278,5.555-6.671,10.278
			c0.317,3,3.64,4.726,3.383,7.981c0.031,2.363-0.669,4.597-1.404,6.735c-0.927,2.076-2.14,5.012-4.82,5.363
			c-2.585,0.543-5.938,0.83-8.045-1.147c-0.671-0.799-1.214-1.661-1.311-2.684c-1.628-2.809-3.863-5.938-2.521-9.417
			c0.574-1.724,2.012-3.098,2.521-4.853c0.959-1.596,2.011-3.224,1.469-5.363c0.671-0.032,0.671-0.767,0.319-1.148l-0.16-0.127
			c-2.299,1.309-1.916,4.244-2.682,6.129l-1.085-4.311c0.989-1.246,1.692-2.681,2.682-3.831c0.319-0.031,0.575,0.383,0.863,0.223
			c-0.415-0.99-0.703-2.362-1.533-3.128c-0.958,1.468-1.562,3.351-2.17,4.757c-0.703-3.577,1.341-6.227,0.638-9.897
			c0.479,0.063,1.213,0,1.532-0.543c0-0.32,0.255-0.543,0.384-0.831c0.414,2.491,1.597,4.662,2.297,7.056
			c0.192,1.786,0.16,3.672,0.607,5.362c0.319-0.128,0.733-0.479,0.766-0.861c-0.383-4.471-1.818-8.522-3.225-12.547
			c-0.192-0.254-0.255-0.574-0.543-0.766c-0.605,0.606-0.223,2.585-1.756,2.077c-0.639-0.448-0.352-1.279-0.83-1.788l-1.788,0.543
			c0.161-0.575,0.606-1.052,0.862-1.597c-0.16-0.639-0.351-1.468-0.16-2.075l0.83-0.767c0.67-2.233,2.362-4.021,2.618-6.447
			l-0.224-0.83c-5.969-3.735-10.087-9.77-9.129-16.855c0.319-1.531,0.766-3.097,1.915-4.214c2.713,0.255,5.172,1.438,7.119,3.225
			l0.163,0.163c3.129,3,4.785,6.731,6.893,10.243c0.861-5.362,1.564-10.821,5.299-15.005C68.151,1.123,68.252,1.828,68.47,2.336z"/>
		<path fill="#FFFFFF" d="M68.981,16.67l-1.596-2.906c-1.213-0.926-2.584-1.564-3.608-2.746c0.255-1.628,0.702-3.129,1.245-4.596
			C67.896,8.977,69.523,12.584,68.981,16.67z"/>
		<path fill="#FFFFFF" d="M71.056,14.978c1.979,2.81,4.946,3.799,7.055,6.066l0.767,2.745l-0.159,0.254
			c-1.054-2.202-2.97-4.789-5.363-5.684c-0.383,0.192-0.286,0.767-0.063,0.99c0.097,0.606,0.99,0.863,0.895,1.533
			c0.896,0.638,1.563,1.628,1.916,2.617c1.213,1.5,2.681,2.873,3.16,4.661l-0.16,0.159c-1.341-2.266-3.671-4.277-4.66-6.735
			c-1.021-1.564-2.554-2.331-4.055-3.225c-0.958-0.702-0.162-1.946-0.385-2.842C70.225,15.232,70.577,14.817,71.056,14.978z"/>
		<path fill="#FFFFFF" d="M61.703,18.043c-1.532,1.628-2.906,3.416-4.598,4.854c0.543-1.948,2.235-4.119,4.149-5.236h0.605
			L61.703,18.043z"/>
		<path fill="#FFFFFF" d="M62.245,19.958c-0.256,1.788-2.331,2.746-3.672,3.767l-2.234,1.756c0.67-1.532,2.139-2.648,3.32-3.895
			C60.521,21.043,61.256,20.182,62.245,19.958z"/>
		<path fill="#FFFFFF" d="M76.1,26.47c1.148,1.084,1.915,2.458,3.319,3.063l0.672,0.928c-2.617,2.17,0.861,5.107-0.606,7.885
			l-0.447,1.532c-1.403-1.276-2.841-3-4.916-2.522c-2.904,1.532-5.268,4.598-7.183,7.216l-1.916,2.969
			c-0.128-1.979,1.468-3.607,2.202-5.429c1.661-2.809,4.278-5.649,6.896-7.597c0.896-0.031,1.727,0.032,2.362,0.543
			c0.734,0.67,0.767,1.597,1.149,2.396c2.49-1.63,0.384-4.821,1.244-7.216c-0.096-0.096-0.158-0.191-0.317-0.159
			c-0.415,1.276-1.853,2.201-2.842,3c0.129-1.629,2.904-3.064,1.021-4.82c-2.521-2.331-5.301-4.566-8.141-6.449
			C71.695,21.969,73.833,24.362,76.1,26.47z"/>
		<path fill="#FFFFFF" d="M60.042,45.497c-0.7-3.896-0.158-8.269-1.084-12.035c0-3.096,1.852-5.395,3.448-7.821
			C60.681,31.864,60.01,38.824,60.042,45.497z"/>
		<path fill="#FFFFFF" d="M73.451,31.321c-0.352,2.874-3.831,4.278-5.235,6.736l-1.819,2.202c1.213-3.321,1.691-7.312,4.054-10.344
			c0.224-1.373-0.224-2.681-0.605-3.895C71.822,27.044,73.514,28.96,73.451,31.321z"/>
		<path fill="#FFFFFF" d="M63.236,41.889c0.031,1.533,0.064,3.257-0.607,4.598c-0.67-7.022,0.862-14.015,2.842-20.398
			C66.108,31.546,64.895,37.005,63.236,41.889z"/>
		<path fill="#FFFFFF" d="M55.35,32.759c-0.862-0.031-1.597-0.734-2.075-1.373c1.5-1.5,2.682-3.351,4.47-4.438
			C56.466,28.705,54.775,30.523,55.35,32.759z"/>
		<path fill="#0D6EB7" d="M75.59,51.146c0.062,0.863-0.097,1.599-0.544,2.234l0.447,0.289c0.574,3.128-1.629,5.298-3.129,7.661
			c0.128-1.852,1.786-3.415,2.362-5.268c-0.031-0.256,0.063-0.575-0.063-0.767H74.44c-1.117,1.117-1.66,2.458-2.395,3.735
			c0.383-1.404,1.054-3.385,1.084-5.269c-1.275-1.789-2.043-3.767-3.287-5.523c-0.032-1.148,0.894-2.201,1.915-2.682
			C72.939,47.412,74.823,49.071,75.59,51.146z"/>
		<path fill="#0D6EB7" d="M77.026,60.946c-0.544,5.044-0.852,11.087-3.502,15.27c-0.65,0.569-1.816,0.955-2.966,1.665
			c-7.415,3.961-10.312,8.397-12.88,12.392c-0.081-0.324-0.093-0.472-0.161-0.974c-0.123-6.948,7.44-11.018,11.465-16.924
			c1.404-1.979,2.776-3.927,3.606-6.128c-0.83,0.158-1.563,0.958-2.362,1.468v-0.703c2.649-1.979,3.832-5.235,6.641-6.672
			L77.026,60.946z"/>
		<path fill="#0D6EB7" d="M54.966,69.088c-4.119,2.875-8.972,6.479-10.633,11.396c-0.542,1.404-0.925,2.873-1.402,4.311
			c-0.224-7.374,4.182-14.206,10.727-17.941L54.966,69.088z"/>
		<path fill="#0D6EB7" d="M57.265,72.536c-0.543,1.02-1.66,1.852-1.979,2.968c-3.191,4.821-8.812,7.185-11.492,12.193l-1.469,2.459
			c1.086-7.853,9.706-12.674,13.186-19.696C55.923,71.227,56.595,71.865,57.265,72.536z"/>
		<path fill="#0D6EB7" d="M66.075,72.695c-4.213,5.522-8.714,11.716-14.557,15.771c-3.927,2.713-9.227,4.118-11.397,9.1
			C41.11,88.308,52.7,86.265,55.892,78.061c1.085-1.597,2.043-3.257,3.288-4.757C61.479,73.812,64.001,73.397,66.075,72.695z"/>
		<path fill="#0D6EB7" d="M55.125,95.381c0,0-0.664,2.873-1.602,4.719c-2.88,5.675-9.986,6.466-14.04,11.573l-1.598,2.139
			c1.947-4.563,4.118-9.226,7.056-13.472c2.81-3.353,6.545-6.48,8.109-10.438c1.228-1.941,2.2-2.873,3.543-4.055
			C55.381,88.465,55.798,92.011,55.125,95.381z"/>
		<path fill="#0D6EB7" d="M51.782,63.436c0.644,0.785,0.785,1.711,1.212,2.568c-10.489,4.995-14.246,16.403-15.769,26.899
			c-0.439,3.026-0.484,4.62-0.213,7.705c-3.783-13.271,1.355-26.328,9.774-36.317c-3.282,0.856-6.351,4.498-8.062,7.564
			c-4.067,6.85-7.635,14.128-6.851,22.763c-3.424-9.919-0.069-21.835,7.421-29.471c-4.851,1.356-9.489,6.636-12.201,10.989
			c-3.069,5.208-5.209,11.344-5.495,17.267c-1.928-12.059,2.354-24.259,12.846-31.11C39.652,59.511,47.001,60.582,51.782,63.436z"/>
	</g>
</g>
</svg>
