<?xml version="1.0" encoding="utf-8"?>
<!-- Generator: Adobe Illustrator 15.1.0, SVG Export Plug-In . SVG Version: 6.00 Build 0)  -->
<!DOCTYPE svg PUBLIC "-//W3C//DTD SVG 1.1//EN" "http://www.w3.org/Graphics/SVG/1.1/DTD/svg11.dtd">
<svg version="1.1" id="Ebene_1" xmlns="http://www.w3.org/2000/svg" xmlns:xlink="http://www.w3.org/1999/xlink" x="0px" y="0px"
	 width="141.731px" height="141.731px" viewBox="0 0 141.731 141.731" enable-background="new 0 0 141.731 141.731"
	 xml:space="preserve">
<g>
	<g>
		<path fill="#FFFFFF" d="M70.866,1.167c-38.493,0-69.699,31.206-69.699,69.698c0,38.493,31.206,69.699,69.699,69.699
			s69.698-31.206,69.698-69.699C140.564,32.373,109.359,1.167,70.866,1.167L70.866,1.167z"/>
		<path fill="#EC2227" d="M70.866,141.731c-18.929,0-36.725-7.371-50.11-20.757C7.371,107.59,0,89.794,0,70.865
			c0-18.928,7.372-36.725,20.756-50.108C34.142,7.372,51.938,0,70.866,0s36.725,7.372,50.109,20.757s20.756,31.181,20.756,50.108
			c0,18.929-7.371,36.726-20.756,50.109C107.59,134.36,89.794,141.731,70.866,141.731z M70.866,2.334
			c-37.789,0-68.532,30.742-68.532,68.531s30.743,68.532,68.532,68.532c37.788,0,68.531-30.743,68.531-68.532
			S108.654,2.334,70.866,2.334z"/>
	</g>
	<path fill="#EC2227" d="M70.866,136.288c-36.074,0-65.421-29.35-65.421-65.423c0-36.072,29.348-65.421,65.421-65.421
		c36.074,0,65.421,29.349,65.421,65.421C136.287,106.938,106.939,136.288,70.866,136.288z M70.865,16.464
		c-29.998,0-54.402,24.403-54.402,54.401c0,29.997,24.405,54.402,54.402,54.402s54.401-24.405,54.401-54.402
		C125.268,40.867,100.863,16.464,70.865,16.464z"/>
	<path fill="#EC2227" d="M97.778,73.771c2.299,0.877,7.974,3.576,17.391,3.906c6.351,0.223,8.857-3.731,6.766-4.412
		c-0.834-0.271-18.956-5.396-18.956-5.396s-2.242-0.879-0.562-1.057c1.681-0.178,9.218-0.107,12.424-1.42
		c3.928-1.605,4.616-5.151,3.7-5.103c-7.886,0.409-15.284,0.266-15.754,0.211c-0.045-0.005-0.09-0.012-0.135-0.021
		c0,0-0.871-0.292-0.093-0.979c0.86-0.758,6.543-5.497,7.742-6.705c3.131-3.149,1.001-7.748,0.479-7.251
		c-5.223,4.976-11.971,8.823-12.37,8.9c-0.4,0.078-0.29-0.861,0.026-1.54c0.316-0.677,2.105-2.729,2.683-4.889
		c1.523-5.708,1.135-9.304-2.086-10.675c-0.585-0.249-0.802,0.077-1.559,1.848c-0.758,1.771-1.053,4.868-3.936,6.07
		c-1.473,0.614-4.2,3.132-4.241,4.137s0.563,2.581-0.214,3.116c-0.618,0.425-1.665-0.323-2.581,0.437
		c-0.918,0.761-3.58,3.451-4.51,4.146c-0.93,0.693-2.774,1.812-3.929,1.173c-2.538-2.5-1.309-9.849-1.309-9.849
		s0.87,0.184,1.807,0.047c2.567-0.376,2.729-3.421,2.376-3.819c-0.277,0.327-0.805,0.823-2.142,0.948
		c-1.035,0.097-1.302-0.328-1.531-1.246c-0.217-0.86-0.364-1.415,0.076-2.954c0.441-1.539,2.001-2.29,2.89-3.002
		c0.889-0.713,0.424-3.402,0.424-3.402s-0.349,0.792-0.973,1.381c-0.853,0.801-2.019,0.573-4.507,0.417
		c-2.48-0.157-3.518-1.097-3.906-1.575c-0.39-0.479-3.649-0.125-4.587-0.083c-0.938,0.042-4.928,0.797-6.415,1.36
		s-3.546,1.42-4.095,1.874c-0.547,0.454-0.356,0.86-0.356,0.86l0.5,1.353c0,0,1.841-1.29,3.66-1.778
		c1.819-0.487,2.035,0.343,2.267,1.126c0.259,0.875,0.324,1.102,0.421,1.717c-0.68,0.292-3.369,0.52-5.799,0.389
		c-2.819-0.149-2.982-1.393-2.941-2.118c0.016-0.264-0.821,0.014-1.143,0.726c-0.566,1.259-0.73,3.386,5.055,3.305
		c2.301-0.032,4.443-0.884,5.119-1.134c0.454,1.522-0.063,1.771-0.713,1.883c-2.785,0.482-4.221-0.244-4.221-0.244
		s-0.394,1.252-0.105,1.47c1.671,1.265,5.064,1.271,5.667,1.219c0.604-0.051,1.083-0.44,1.41-0.164s0.758,1.704,0.813,2.174
		c0.055,0.47-0.088,0.801-1.493,0.765c-1.404-0.037-1.94,0.016-1.881,0.285s1.567,1.446,1.829,1.722
		c0.261,0.273,1.708-1.236,1.708-1.236s-0.075,0.208,0.043,0.813c0.117,0.604,0.522,5.39-2.453,6.771
		c-1.154,0.639-2.999-0.479-3.93-1.173c-0.929-0.694-3.592-3.385-4.509-4.146c-0.917-0.76-1.963-0.012-2.581-0.437
		c-0.776-0.535-0.174-2.111-0.215-3.116s-2.768-3.522-4.241-4.137c-2.882-1.202-3.177-4.299-3.935-6.07
		c-0.756-1.771-0.975-2.096-1.559-1.848c-3.221,1.371-3.608,4.966-2.086,10.675c0.576,2.159,2.366,4.211,2.683,4.889
		c0.316,0.679,0.426,1.617,0.026,1.54c-0.398-0.077-7.147-3.925-12.369-8.9c-0.522-0.497-2.65,4.102,0.479,7.251
		c1.2,1.208,6.882,5.946,7.744,6.705c0.779,0.687-0.092,0.979-0.092,0.979c-0.045,0.008-0.091,0.015-0.136,0.021
		c-0.47,0.055-7.867,0.198-15.754-0.211c-0.917-0.049-0.226,3.497,3.7,5.103c3.208,1.312,10.745,1.242,12.425,1.42
		s-0.562,1.056-0.562,1.056s-18.122,5.125-18.956,5.396c-2.092,0.682,0.415,4.635,6.765,4.412c9.416-0.33,15.092-3.029,17.391-3.906
		c2.298-0.876,0.93,0.738,0.439,1.083c-3.409,2.396-13.438,9.212-18.181,12.26c-0.68,0.438-0.777,0.925-0.009,1.741
		c3.715,3.949,10.748-0.574,13.528-2.122c3.245-1.806,10.972-7.637,11.571-7.002c0.235,0.248-0.211,2.427-4.974,7.529
		c0.68,0.68,1.595,1.359,1.595,1.359s-2.281,2.76-3.841,4.465c-0.631,0.69-2.1,2.149-2.498,2.072
		c-0.399-0.077-2.453-2.296-3.153-2.335c-0.438-0.023-1.385,0.656-2.091,0.258c-0.423-0.24-1.737-0.113-2.821,0.395
		c-1.084,0.507-0.883,3.055-0.586,1.925s2.46-1.094,3.542,0.16c0.342,0.396,1.386,1.174,2.051,1.325
		c0.666,0.15,0.995,0.359,0.723,0.555c-0.249,0.176-2.058,0.607-3.54,1.677c-0.315,0.535-0.146,0.729-0.268,0.997
		c-1.651,0.583-2.041,1.094-1.53,2.745c0.049,0.157,0.023,0.194,0.534,1.226c0.243-0.447,0.122-1.905,1.678-2.245
		c0.163-0.036,0.438,0.193,0.729,0.193c0.646,0,2.981-1.354,3.396-1.879c0.415-0.524,0.317,0.302,0.046,0.805
		c-1.305,2.41-0.819,3.889-0.705,3.93c0.3,0.109,0.461-0.109,0.66,0.353c0.805,2.356,3.18,3.774,2.789,3.363
		c-0.392-0.412-0.963-3.533-0.721-3.655c0.243-0.121,0.438,0.05,0.729-0.121c0.292-0.17,0.647-1.524,0.632-1.942
		c-0.041-1.006-0.59-1.316-0.574-1.919c0.017-0.603,0.436-1.26,0.436-1.26s0.696,1.353,1.287,1.974
		c1.209,1.277,0.99,1.569,2.254,1.059c0.254-0.103,1.941,2.666,1.941,2.666s0.609-1.475,0.334-2.534
		c-0.123-0.472-0.584-0.685-0.908-1.095s0.575-0.932,0.138-1.588c-2.441-2.333-2.669-1.533-3.295-3.057
		c-0.421-1.025,0.4-1.723,1.255-2.75c2.138-2.575,2.211-2.551,3.475-4.059c0.526,0.35,0.826,0.682,1.556,1.215
		c2.381-3.497,4.42-6.65,6.649-7.475c2.23-0.822,3.236,0.481,3.175,1.834c-0.106,2.386-4.888,7.521-4.888,7.521
		c-2.171,2.423-3.753,3.705-4.661,5.283l0.007,0.002h-0.007c-0.373,0.651-0.632,1.354-0.771,2.204
		c-0.144,0.884,0.016,2.155,0.208,3.191l0.001,0.001h-0.001c0.184,0.997,0.397,1.776,0.397,1.776s0.716-2.562,0.876-2.869
		c0.454-0.875,0.552,0,1.231,1.717c0.681,1.717,2.115,3.884,2.115,3.884l-0.021-4.393c0.07-1.139,0.149-2.668,0.66-1.532
		c0.51,1.136,2.167,3.589,2.167,3.589s0.023-0.896,0.089-1.977h-0.012l0.012-0.003c0.062-0.992,0.837-4.628,1.247-5.376
		l-0.021-0.002l0.021-0.003c0.35-0.645,1.9-3.353,3.781-3.639c1.881-0.285,2.044,3.068,1.914,3.79l0,0
		c-0.25,1.376-0.756,2.976-1.035,3.539c-0.176,0.357-1.655,3.144-1.846,3.676c-2.009,5.604,2.183,9.003,2.189,8.736
		c0.007-0.269,0.499-4.137,1.137-5.068c0.379-0.552,0.905-0.912,1.292-0.367c0.547,0.771,1.734,3.385,3.431,5.179v0.005
		c0-0.001,0.001-0.002,0.002-0.003c0,0.001,0.001,0.002,0.002,0.003v-0.005c1.695-1.794,2.883-4.409,3.429-5.179
		c0.387-0.546,0.914-0.185,1.292,0.367c0.638,0.933,1.129,4.8,1.137,5.068c0.008,0.267,4.198-3.132,2.189-8.736
		c-0.19-0.532-1.669-3.316-1.845-3.676c-0.278-0.563-0.786-2.163-1.034-3.539h-0.001c-0.13-0.722,0.032-4.075,1.913-3.79
		c1.882,0.286,3.433,2.994,3.782,3.639l0.021,0.003l-0.021,0.002c0.408,0.748,1.185,4.384,1.245,5.376l0.014,0.003H82.92
		c0.066,1.081,0.091,1.977,0.091,1.977s1.655-2.453,2.166-3.589s0.59,0.395,0.659,1.532l-0.021,4.393c0,0,1.436-2.167,2.115-3.884
		c0.681-1.717,0.776-2.592,1.23-1.717c0.159,0.308,0.876,2.869,0.876,2.869s0.214-0.779,0.398-1.776h-0.001l0.001-0.001
		c0.19-1.035,0.352-2.31,0.208-3.191c-0.14-0.852-0.397-1.553-0.771-2.204h-0.006l0.006-0.002c-0.906-1.578-2.488-2.86-4.66-5.283
		c0,0-4.78-5.135-4.889-7.521c-0.061-1.353,0.946-2.656,3.176-1.834c2.229,0.823,4.27,3.978,6.65,7.475
		c0.729-0.533,1.028-0.865,1.555-1.215c1.265,1.508,1.336,1.482,3.476,4.059c0.854,1.027,1.677,1.725,1.255,2.75
		c-0.626,1.521-0.854,0.724-3.296,3.057c-0.438,0.656,0.462,1.178,0.139,1.588c-0.324,0.41-0.786,0.623-0.908,1.095
		c-0.274,1.061,0.334,2.534,0.334,2.534s1.688-2.769,1.941-2.666c1.264,0.512,1.045,0.22,2.255-1.059
		c0.589-0.621,1.286-1.974,1.286-1.974s0.419,0.656,0.436,1.26c0.017,0.602-0.534,0.913-0.574,1.919
		c-0.018,0.418,0.341,1.772,0.632,1.942c0.292,0.171,0.485,0,0.729,0.121c0.243,0.122-0.33,3.243-0.721,3.655
		c-0.392,0.411,1.983-1.007,2.789-3.363c0.199-0.462,0.359-0.242,0.661-0.353c0.112-0.041,0.599-1.52-0.706-3.93
		c-0.271-0.504-0.369-1.329,0.046-0.805s2.752,1.879,3.396,1.879c0.292,0,0.565-0.229,0.729-0.193
		c1.555,0.34,1.433,1.798,1.677,2.245c0.51-1.03,0.485-1.067,0.534-1.226c0.51-1.651,0.121-2.162-1.531-2.745
		c-0.121-0.268,0.049-0.462-0.267-0.997c-1.482-1.068-3.291-1.501-3.54-1.677c-0.272-0.194,0.057-0.403,0.723-0.555
		c0.665-0.151,1.709-0.93,2.05-1.325c1.083-1.254,3.246-1.29,3.544-0.16c0.297,1.13,0.498-1.418-0.587-1.925
		c-1.083-0.507-2.396-0.635-2.819-0.396c-0.706,0.399-1.653-0.28-2.092-0.257c-0.699,0.039-2.753,2.257-3.151,2.335
		c-0.399,0.077-1.867-1.383-2.499-2.072c-1.561-1.705-3.84-4.465-3.84-4.465s0.915-0.681,1.596-1.359
		c-4.763-5.104-5.209-7.282-4.974-7.529c0.601-0.635,8.325,5.196,11.569,7.002c2.781,1.547,9.813,6.071,13.529,2.122
		c0.769-0.817,0.671-1.303-0.009-1.741c-4.742-3.048-14.772-9.863-18.182-12.26C96.849,74.511,95.48,72.896,97.778,73.771
		L97.778,73.771z"/>
	<path fill="#EC2227" d="M79.613,24.73c-0.066,0.001-5.175,2.188-5.635,2.534c-0.887-0.764-3.471-3.063-3.764-3.323v-0.024
		c0,0-0.006,0.005-0.014,0.013c-0.008-0.008-0.014-0.013-0.014-0.013v0.024c-0.292,0.26-2.877,2.56-3.764,3.323
		c-0.459-0.347-5.566-2.533-5.634-2.534c0,0,1.436,2.146,2.326,3.619c0.911,1.507,0.709,3.565,0.709,3.565h12.752
		c0,0-0.202-2.059,0.709-3.565C78.177,26.878,79.613,24.73,79.613,24.73L79.613,24.73z"/>
	<path fill="#FFFFFF" d="M66.024,38.361c2.084-0.988,3.901-0.365,3.901-0.365l-3.293,2.656
		C66.633,40.652,66.045,38.864,66.024,38.361L66.024,38.361z"/>
	<path fill="#FFFFFF" d="M80.441,68.336c2.918-0.517,6.718-1.45,10.729-8.484c-3.806-0.719-4.444-2.635-4.444-2.635l0.003-0.006
		c0,0,2.063-0.545,4.949,1.745c0.161-4.891,3.021-5.675,3.021-5.675l0.008,0.004c0,0,1.213,2.707-2.47,5.941
		c3.616,0.771,4.51,2.719,4.51,2.719l-0.004,0.007c0,0-1.921,0.689-4.859-1.76c-4.377,7.974-9.132,9.698-11.441,9.698
		C80.538,68.854,80.425,68.595,80.441,68.336L80.441,68.336z"/>
	<path fill="#FFFFFF" d="M64.302,63.426c0.109,3.263,0.445,6.095,0.912,8.539l0,0c1.031,5.401,2.699,8.897,3.968,10.928
		c0.878,1.407,1.487,2.109,1.619,2.255c0,0.021,0,0.03,0,0.03s0.007-0.007,0.015-0.016c0.008,0.009,0.014,0.016,0.014,0.016
		s0-0.012,0.002-0.033c0.137-0.15,0.745-0.854,1.617-2.252c1.269-2.029,2.937-5.525,3.968-10.928l0,0
		c0.466-2.443,0.802-5.276,0.911-8.539C77.282,63.472,64.346,63.472,64.302,63.426L64.302,63.426z"/>
	<path fill="#FFFFFF" d="M61.187,68.336c-2.918-0.517-6.719-1.45-10.73-8.484c3.805-0.719,4.445-2.635,4.445-2.635l-0.003-0.006
		c0,0-2.064-0.545-4.951,1.745c-0.161-4.891-3.021-5.675-3.021-5.675l-0.008,0.004c0,0-1.212,2.707,2.47,5.941
		c-3.614,0.771-4.508,2.719-4.508,2.719l0.003,0.007c0,0,1.921,0.689,4.859-1.76c4.376,7.974,9.132,9.698,11.442,9.698
		C61.089,68.854,61.202,68.595,61.187,68.336L61.187,68.336z"/>
	<polygon fill="#EC2227" points="74.405,77.382 74.405,75.677 70.207,75.677 70.207,72.435 73.952,72.435 73.952,70.729
		70.207,70.729 70.207,67.994 73.923,67.994 73.923,66.289 67.683,66.289 67.683,77.382 	"/>
</g>
</svg>
