<?xml version="1.0" encoding="utf-8"?>
<!-- Generator: Adobe Illustrator 14.0.0, SVG Export Plug-In . SVG Version: 6.00 Build 43363)  -->
<!DOCTYPE svg PUBLIC "-//W3C//DTD SVG 1.1//EN" "http://www.w3.org/Graphics/SVG/1.1/DTD/svg11.dtd">
<svg version="1.1" id="Layer_1" xmlns:sketch="http://www.bohemiancoding.com/sketch/ns"
	 xmlns="http://www.w3.org/2000/svg" xmlns:xlink="http://www.w3.org/1999/xlink" x="0px" y="0px" width="127.031px"
	 height="127.514px" viewBox="36 16 127.031 127.514" enable-background="new 36 16 127.031 127.514" xml:space="preserve">
<title>Soccer Ball</title>
<desc>Created with Sketch.</desc>
<g sketch:type="MSPage">
	<g sketch:type="MSArtboardGroup">
		<path sketch:type="MSShapeGroup" fill="#FFD01F" d="M158.63,56.435c-2.472-6.292-5.913-12.098-10.137-17.229
			c-6.645-8.071-15.228-14.476-25.024-18.495C116.072,17.677,107.986,16,99.516,16c-0.317,0-0.633,0.007-0.948,0.012
			c-11.394,0.168-22.068,3.363-31.264,8.817c-0.231,0.137-0.462,0.271-0.691,0.41c-9.468,5.779-17.316,13.975-22.697,23.725
			c-3.896,7.062-6.496,14.941-7.475,23.311C36.153,74.73,36,77.226,36,79.757c0,7.389,1.264,14.487,3.577,21.093
			c2.538,7.246,6.345,13.898,11.152,19.684c6.23,7.499,14.14,13.543,23.142,17.547c7.44,3.309,15.623,5.227,24.226,5.416
			c0.471,0.011,0.945,0.018,1.419,0.018c11.02,0,21.393-2.833,30.434-7.809c0.234-0.129,0.467-0.261,0.699-0.393
			c9.572-5.428,17.61-13.271,23.283-22.706c4.52-7.515,7.536-16.035,8.635-25.142c0.303-2.528,0.465-5.1,0.465-7.708
			C163.031,71.53,161.471,63.661,158.63,56.435L158.63,56.435z M122.717,22.019c9.257,3.761,17.41,9.702,23.824,17.187h-15.439
			l-9.135-15.882L122.717,22.019L122.717,22.019z M94.141,71.527h-0.086l8.908-15.488h18.455l8.973,15.6l-9.102,15.826h-17.981
			L94.141,71.527L94.141,71.527z M102.74,88.212l-8.908,15.487H75.377l-8.973-15.599l9.103-15.826h17.981l9.167,15.938H102.74
			L102.74,88.212z M121.223,23.642l9.135,15.881l-8.939,15.543h-18.455l-8.758-15.225l9.318-16.199H121.223L121.223,23.642z
			 M99.421,17.497l3.169,5.51l-9.317,16.2H75.571l-7.523-13.081C77.254,20.66,87.978,17.514,99.421,17.497L99.421,17.497z
			 M67.358,26.535l7.471,12.988L65.89,55.066H47.425l-2.635-4.583C50.046,40.62,57.868,32.334,67.358,26.535L67.358,26.535z
			 M40.569,99.127c-1.994-6.101-3.078-12.61-3.078-19.371c0-2.465,0.148-4.897,0.428-7.29l8.992,15.634L40.569,99.127L40.569,99.127
			z M47.555,87.465l-9.101-15.826l8.972-15.6H65.89l8.972,15.6L65.76,87.465H47.555L47.555,87.465z M74.621,136.777
			c-8.467-3.74-15.951-9.321-21.939-16.244h13.012l9.135,15.883L74.621,136.777L74.621,136.777z M75.571,136.098l-9.133-15.881
			l8.939-15.543h18.455l8.757,15.226l-9.317,16.198H75.571L75.571,136.098z M99.516,142.018c-0.77,0-1.535-0.02-2.298-0.047
			l-3.012-5.238l9.318-16.199h17.699l7.982,13.875C120.381,139.258,110.264,142.018,99.516,142.018L99.516,142.018z
			 M129.904,134.016l-7.938-13.799l8.939-15.543h18.464l3.708,6.446C147.514,120.656,139.498,128.58,129.904,134.016z
			 M149.37,103.699h-18.464l-8.972-15.599l9.101-15.826h18.204l9.103,15.826L149.37,103.699z M161.064,87.465h-2.076l-9.104-15.826
			l7.785-13.533c2.5,6.746,3.871,14.041,3.871,21.65C161.541,82.367,161.377,84.938,161.064,87.465z"/>
	</g>
</g>
</svg>
