<?xml version="1.0" encoding="UTF-8"?>
<!-- Generator: Adobe Illustrator 15.1.0, SVG Export Plug-In . SVG Version: 6.00 Build 0)  -->
<!DOCTYPE svg PUBLIC "-//W3C//DTD SVG 1.1//EN" "http://www.w3.org/Graphics/SVG/1.1/DTD/svg11.dtd">
<svg version="1.1" id="Ebene_1" xmlns="http://www.w3.org/2000/svg" xmlns:xlink="http://www.w3.org/1999/xlink" x="0px" y="0px" width="141.734px" height="141.732px" viewBox="0 0 141.734 141.732" enable-background="new 0 0 141.734 141.732" xml:space="preserve">
<g>
	<path fill="#FFFFFF" d="M134.464,50.191c0.209-1.833,0.625-5.851,0.625-8.685c0-3.936-0.769-7.74-2.277-13.817   c-1.492-5.96-3.479-10.995-4.841-13.72c-1.532-3.075-3.502-4.123-5.556-5.007c-1.854-0.795-7.422-1.041-18.812-1.377l-0.923-0.028   c-0.313-0.01-0.64-0.015-0.97-0.015c-4.518,0-10.556,0.901-16.051,1.721c-4.277,0.638-8.318,1.242-10.62,1.242L74.69,10.5   c-5.17-0.156-11.2-1.333-17.603-2.58C51.45,6.822,45.621,5.685,39.736,5.109c-1.686-0.165-3.491-0.25-5.37-0.25   c-8.649,0-16.99,1.744-20.48,2.576c-0.805-0.958-2.227-1.979-4.633-1.979c-1.163,0-2.471,0.249-3.889,0.741   C2.27,7.279,0.328,9.512,0.036,12.325c-0.264,2.521,0.944,5.124,2.941,6.33c1.142,0.684,2.233,0.918,3.195,1.056   c2.966,11.215,11.779,44.511,19.078,71.997c-0.323,0.46-0.694,0.937-1.083,1.438c-2.166,2.791-4.86,6.269-4.097,11.763   c1.004,7.292,6.546,10.219,11.912,12.084c3.45,12.924,4.028,14.989,4.144,15.343c1.002,3.01,2.599,4.539,4.751,4.539   c0.256,0,0.519-0.024,0.783-0.076l0.272-0.044c0.594-0.083,1.832-0.261,2.627-1.464c0.829-1.261,0.787-3.02-0.161-6.484   c-0.52-1.901-0.917-3.23-1.337-4.629c-0.396-1.314-0.8-2.659-1.336-4.611c3.372,0.816,3.933,1.476,3.855,3.868   c-0.109,3.446,0.716,6.424,2.208,7.963c0.948,0.979,1.938,1.181,2.603,1.181c2.021,0,4.434-1.562,4.434-9.008   c0-10.228-6.701-11.934-13.918-13.768c-0.589-0.151-1.194-0.305-1.812-0.469l-3.589-14.048c4.087-2.386,10.083-3.055,15.438-3.388   c0.37-0.024,0.743-0.034,1.12-0.034c3.257,0,6.73,0.843,10.509,1.759c4.465,1.082,9.082,2.199,14.261,2.199   c5.287,0,8.183-1.067,11.533-2.31c3.993-1.479,8.516-3.148,19.243-3.579c0.554-0.024,1.1-0.033,1.641-0.033   c15.022,0,25.481,8.061,25.587,8.142c0.396,0.312,0.896,0.485,1.404,0.485c0.003,0,0.003,0,0.003,0   c0.254,0,0.507-0.042,0.754-0.129c0.737-0.26,1.284-0.867,1.463-1.627c0.11-0.476,2.746-11.811,3.246-25.724   C142.131,59.262,136.925,52.642,134.464,50.191z"/>
	<g>
		<g>
			<path fill="#085DAA" d="M34.524,11.934c-11.243,0.684-18.865,2.862-18.939,2.881c-0.054,0.487,6.246,7.048,9.68,15.486     c3.434,8.473,6.656,20.199,6.69,20.317l0.066,0.245l0.245-0.066c0.144-0.04,14.366-3.884,24.163-2.752l11.173,1.947     c5.194,1.08,9.677,2.011,14.087,1.732c3.204-0.195,7.438-1.061,11.918-1.97c5.98-1.218,12.751-2.598,19.05-2.854     c10.854-0.454,15.415,1.791,15.454,1.812c0.374-0.321,0.574-11.227-1.847-20.188c-2.283-8.496-5.749-13.188-5.788-13.232     c-0.22-0.117-8.881-2.235-21.728-0.832l-10.806,1.384l-13.441,1.188c-4.56,0.104-10.974-1.116-17.753-2.407     C48.831,13.118,40.644,11.565,34.524,11.934"/>
			<path fill="#FFFFFF" stroke="#FFFFFF" stroke-width="2" stroke-miterlimit="10" d="M31.741,55.648c0,0,2.105,10.2,2.567,15.03     c0.461,4.833,0,17.547,0,17.547s9.468-3.71,16.167-3.477c6.713,0.229,18.943,4.629,26.79,3.943     c7.861-0.687,13.874-5.785,28.684-5.56c14.782,0.23,26.777,5.327,26.777,5.327s2.076-11.336,1.389-18.962     c-0.689-7.63-2.729-13.347-6.213-15.225c-3.482-1.88-9.764-3.253-16.214-2.799c-6.435,0.461-22.642,5.091-31.198,4.863     c-8.543-0.227-16.589-3.711-28.165-3.711C40.747,52.627,31.741,55.648,31.741,55.648"/>
		</g>
		<path fill="#010101" d="M12.742,10.071c0,0,14.246-3.928,26.771-2.695c12.517,1.227,25.163,5.1,35.107,5.398    c5.398,0.167,19.885-3.186,27.988-2.942c8.104,0.239,17.186,0.482,18.909,1.222c1.714,0.738,3.19,1.474,4.414,3.932    c1.227,2.453,3.196,7.363,4.67,13.256c1.466,5.898,2.21,9.577,2.21,13.267c0,3.675-0.744,9.575-0.744,9.575    s7.857,6.132,7.369,19.883c-0.494,13.748-3.189,25.286-3.189,25.286s-11.76-9.269-28.725-8.594    c-19.859,0.803-19.635,5.892-30.688,5.892c-9.833,0-18.173-4.415-26.03-3.922c-6.586,0.411-13.511,1.334-17.897,4.658    c1.896,7.413,3.438,13.448,4.314,16.895c8.75,2.436,15.332,2.686,15.332,12.388c0,10.318-4.94,7.551-4.694-0.062    c0.177-5.564-3.867-5.727-9.289-6.965c1.801,6.965,2.334,8.095,3.639,12.863c1.475,5.397,0.249,4.912-0.977,5.159    c-1.232,0.238-2.212-0.739-2.946-2.946c-0.169-0.516-1.878-6.875-4.42-16.395c-5.741-1.854-10.67-4.304-11.541-10.627    c-0.838-6.041,3.472-9.26,5.388-12.496C20.012,63.11,10.511,27.212,7.982,17.658c-1.311-0.219-2.535-0.174-3.835-0.953    c-2.349-1.421-3.263-6.53,1.969-8.357C12.062,6.288,12.742,10.071,12.742,10.071 M29.381,98.364    c-2.574,4.152-3.098,8.498,2.979,11.222L29.381,98.364z M29.585,81.319c0.295-6.656-0.218-16.101-3.345-26.809    c-4.161-14.287-7.518-24.727-11.513-31.056C17.758,35.277,24.23,60.459,29.585,81.319 M31.741,55.648c0,0,2.105,10.2,2.565,15.028    c0.462,4.832,0,17.549,0,17.549s9.47-3.71,16.169-3.477c6.713,0.229,18.943,4.629,26.792,3.942    c7.859-0.686,13.872-5.784,28.682-5.559c14.784,0.23,26.777,5.327,26.777,5.327s2.076-11.336,1.389-18.962    c-0.689-7.63-2.729-13.349-6.213-15.225c-3.482-1.882-9.764-3.254-16.214-2.801c-6.436,0.46-22.642,5.092-31.198,4.864    c-8.543-0.226-16.589-3.711-28.165-3.711C40.747,52.626,31.741,55.648,31.741,55.648 M32.202,50.551    c0,0,14.294-3.906,24.254-2.757c9.977,1.146,17.857,4.139,25.227,3.679c7.364-0.455,19.85-4.369,30.969-4.829    c11.068-0.46,15.251,1.614,15.251,1.614s0.552-10.642-1.88-19.666c-2.292-8.544-5.748-13.143-5.748-13.143    s-8.548-2.153-21.5-0.731c-12.958,1.418-14.331,2.337-24.266,2.572c-9.919,0.222-28.63-5.79-39.972-5.099    c-11.342,0.689-18.743,2.793-18.743,2.793s6.217,6.636,9.703,15.22C28.979,38.789,32.202,50.551,32.202,50.551"/>
		<g>
			<path fill="none" d="M105.802,69.118c-0.98,0.13-1.726,0-1.726,2.592c0,3.06,0.374,4.046,1.476,4.046     c1.11,0,1.598-1.476,1.721-3.442C107.402,70.356,106.782,68.993,105.802,69.118z"/>
			<path fill="none" d="M92.551,75.51c-0.498,1.84-0.252,2.58,0.484,2.58c0.735,0,1.35-0.865,1.102-2.45     C94.261,73.054,93.034,73.667,92.551,75.51z"/>
			<path fill="none" d="M54.979,67.034c0-0.729-0.122-1.589-0.737-1.349c-0.611,0.249-0.491,0.37-0.491,1.229     c0,0.864,0.246,1.716,0.735,1.593C54.979,68.388,54.979,67.778,54.979,67.034z"/>
			<path fill="none" d="M103.71,59.549c-0.615-0.243-1.225,0.125-1.225,0.125s-0.291,1.563-0.239,2.698     c0.122,2.702,0.983,3.188,0.983,3.188s0.98-0.486,0.98-2.945C104.212,60.159,104.337,59.793,103.71,59.549z"/>
			<path fill="#085DAA" d="M107.148,66.054c0,0,0.742-2.203,0.742-5.527c0-2.453-0.619-4.416-2.09-5.152     c-1.39-0.694-3.191,0.124-4.795,0.487c-1.583,0.365-3.554,0.621-3.554,0.621v2.822c0,0,1.719,2.693,2.452,7.607     c0.744,4.918,1.72,13.629,1.72,13.629s1.846,0.49,3.927,0.239c2.091-0.239,6.792-1.215,6.021-8.836     C110.956,65.934,107.148,66.054,107.148,66.054z M103.23,65.56c0,0-0.861-0.486-0.983-3.188     c-0.051-1.135,0.239-2.698,0.239-2.698s0.607-0.367,1.225-0.125c0.627,0.244,0.501,0.608,0.501,3.066     C104.212,65.075,103.23,65.56,103.23,65.56z M107.271,72.315c-0.123,1.967-0.609,3.442-1.721,3.442     c-1.102,0-1.476-0.987-1.476-4.047c0-2.592,0.744-2.462,1.726-2.592C106.782,68.993,107.402,70.356,107.271,72.315z"/>
			<path fill="#085DAA" d="M112.923,60.662c-0.241-1.236,0.36-1.609,1.352-1.609c0.974,0,0.735,1.235,1.343,1.964     c0.622,0.74,0.381,1.598,1.481,1.355c1.103-0.246,1.103-1.355,1.103-2.823c0-1.476-1.229-4.296-3.927-4.296     c-2.7,0-5.251,1.208-4.912,4.785c0.374,3.928,1.169,4.979,2.821,6.996c2.212,2.706,4.298,4.676,5.396,6.875     c1.12,2.213,0.62,3.564-0.233,3.44c-1.344-0.194-1.349-0.612-1.599-1.709c-0.428-1.944-1.474-2.212-2.212-1.974     c-0.731,0.241-1.579,1.344-1.102,3.434c0.605,2.698,1.35,4.05,4.17,4.183c3.682,0.157,5.523-1.851,5.282-5.278     c-0.247-3.447-2.455-5.773-5.03-8.848C114.273,64.093,113.266,62.339,112.923,60.662z"/>
			<path fill="#085DAA" d="M46.75,58.196c-0.494-2.083,0-2.942-1.961-2.696c-1.509,0.189-2.579,0.364-2.211,2.083     c0.364,1.725,0.61,2.829,0.61,4.06c0,1.225,0.243,2.569-1.103,2.569c-1.35,0-1.721,0.864-2.215-1.837     c-0.49-2.698-0.49-3.192-0.732-4.299c-0.242-1.1-0.484-1.716-1.96-1.35c-1.478,0.368-2.333,0.368-2.208,2.456     c0.118,2.092,0.611,6.265,1.589,10.802c0.989,4.548,1.846,9.333,2.579,11.3c0.732,1.961,1.105,2.082,2.213,1.841     c1.105-0.25,1.964,0,1.467-2.456c-0.492-2.463-1.097-6.384-1.585-8.353c-0.497-1.958-0.988-4.172,0.734-4.537     c1.716-0.375,2.327-0.375,2.821,1.597c0.494,1.963,1.354,8.1,1.84,9.694c0.483,1.598,0.483,3.192,2.565,2.708     c2.102-0.494,1.73-0.494,1.237-3.206C49.938,75.872,47.24,60.289,46.75,58.196z"/>
			<path fill="#085DAA" d="M66.272,64.826c0.222-1.091-0.366-2.568-1.232-2.568c-0.86,0-1.476,1.225-2.575,1.338     c-1.106,0.127-1.469-1.224-2.328-0.861c-0.865,0.376-1.603,1.359-1.234,2.827c0.37,1.473,0.62,2.458,1.107,4.546     c0.49,2.083,0.866,4.795,1.348,6.869c0.501,2.094,0.834,4.091,1.716,5.161c1.233,1.474,2.583,1.719,2.701-0.118     c0.138-1.985-0.239-2.949-0.852-4.794c-0.616-1.843-1.603-3.434-1.969-6.137c-0.365-2.701-0.243-4.056,0.609-4.175     c0.867-0.119,1.597,0.367,1.597,1.353c0,0.982-0.237,3.566,0.745,3.309c0.98-0.238,2.499-0.137,1.221-2.326     C66.272,67.778,65.774,67.283,66.272,64.826z"/>
			<path fill="#085DAA" d="M58.663,74.282c-0.859-0.49-1.236-0.373-1.48,0.854c-0.235,1.232,0,2.464-0.988,2.464     c-0.976,0-1.592-0.623-1.837-2.09c-0.245-1.478,0.128-2.208,0.861-2.456c0.742-0.242,2.341,0.374,2.455-1.479     c0.129-1.836,0.495-3.434-0.248-6.131c-0.734-2.71-0.856-3.318-1.957-4.172c-0.922-0.722-2.825-0.862-3.684-0.498     c-0.863,0.37-1.354,0.738-1.354,2.947c0,2.212,0.25,5.651,0.493,8.226c0.245,2.582,0.863,6.144,1.832,7.729     c0.992,1.606,1.729,2.103,3.084,1.971c1.342-0.115,2.693,0.247,3.185-1.104c0.495-1.346,0.862-2.339,0.736-3.442     C59.64,76.003,59.521,74.77,58.663,74.282z M53.75,66.914c0-0.859-0.122-0.979,0.491-1.229c0.615-0.24,0.737,0.619,0.737,1.349     c0,0.744,0,1.354-0.493,1.474C53.996,68.629,53.75,67.778,53.75,66.914z"/>
			<path fill="#085DAA" d="M96.838,71.576c-0.607-2.201-1.231-4.78-1.35-6.015c-0.121-1.23-0.121-2.696-2.583-2.827     c-2.452-0.118-3.308,0-4.171,1.232c-0.703,1.009-1.222,2.58-1.222,3.928c0,1.354,0,2.987,0.971,2.83     c1.482-0.241,1.354-0.983,1.604-2.094c0.253-1.1,0.364-1.595,1.223-1.473c0.869,0.125,1.726,0.862,1.477,1.72     c-0.234,0.864-1.722,2.212-2.945,3.438c-1.223,1.23-1.725,3.195-1.354,5.534c0.375,2.321,1.236,5.149,3.693,4.537     c2.447-0.608,2.816-1.235,4.051-1.104c1.224,0.117,1.714,0.61,2.208,0c0.492-0.615,0.362-0.615,0.235-1.968     C98.56,77.964,97.454,73.792,96.838,71.576z M93.034,78.09c-0.736,0-0.982-0.741-0.485-2.58c0.485-1.844,1.711-2.456,1.586,0.13     C94.385,77.225,93.77,78.09,93.034,78.09z"/>
			<path fill="#085DAA" d="M131.096,72.556c-1.229-0.367-1.196,1.204-1.48,2.213c-0.37,1.352-1.382,2.718-3.059-0.488     c-1.357-2.571-2.092-5.406-2.225-8.837c-0.128-3.688,0.74-5.155,1.602-5.155c0.866,0,0.866,0.373,1.226,1.225     c0.372,0.859,0.533,2.218,1.607,1.969c1.585-0.372,1.47-1.725,0.727-4.302c-0.727-2.578-2.212-4.424-4.294-4.299     c-2.088,0.125-4.663,1.843-4.544,8.346c0.13,6.513,1.415,10.703,3.196,14.122c1.599,3.07,2.705,5.648,5.035,5.772     c2.326,0.121,3.809-2.826,3.809-5.772C132.694,74.406,132.327,72.929,131.096,72.556z"/>
			<path fill="#085DAA" d="M84.938,68.266c-0.617-2.212-0.617-2.706-2.575-2.582c-1.972,0.122-2.834,0.122-2.834,0.122     s-0.61-3.807-0.981-5.519c-0.371-1.722-0.862-2.578-2.091-2.462c-1.22,0.125-1.836,1.227-1.469,3.446     c0.361,2.21,1.594,5.642,2.214,9.942c0.614,4.295,1.345,9.205,1.579,10.804c0.254,1.591,0.381,3.926,2.229,3.187     c1.838-0.731,1.703-2.446,1.466-4.422c-0.507-4.046-0.859-5.272-1.598-7.479c-0.736-2.214-0.488-3.804,0.253-4.054     c0.73-0.256,1.583,0.859,1.842,2.823c0.249,1.962,0.249,5.528,0.729,7.483c0.495,1.976,1.235,4.919,2.949,4.3     c1.725-0.612,1.591-0.612,0.611-4.911C86.276,74.653,85.544,70.481,84.938,68.266z"/>
			<path fill="#085DAA" d="M73.395,75.136c-0.488-2.821-0.619-5.526-0.619-5.526s2.702-1.221,2.463-3.063     c-0.248-1.843-3.069-1.843-3.434-3.063c-0.376-1.225-0.255-2.583-0.988-4.177c-0.739-1.596-0.976-2.332-1.598-2.213     c-0.618,0.12-1.106,1.23-0.982,2.333c0.122,1.103,0.744,5.4,0.744,5.4s-1.978,0.981-1.978,1.97c0,1.833,2.342,2.324,2.342,2.324     s0.361,2.951,0.976,7.001c0.613,4.05,0.495,5.028,1.718,7.243c1.229,2.212,1.597,2.953,3.197,2.953     c1.599,0,2.579-0.118,2.446-0.863c-0.126-0.738-1.711-2.581-2.695-5.158C74.012,77.723,73.882,77.964,73.395,75.136z"/>
		</g>
	</g>
</g>
</svg>