<?xml version="1.0" encoding="UTF-8"?>
<!-- Generator: Adobe Illustrator 15.1.0, SVG Export Plug-In . SVG Version: 6.00 Build 0)  -->
<!DOCTYPE svg PUBLIC "-//W3C//DTD SVG 1.1//EN" "http://www.w3.org/Graphics/SVG/1.1/DTD/svg11.dtd">
<svg version="1.1" id="Ebene_1" xmlns="http://www.w3.org/2000/svg" xmlns:xlink="http://www.w3.org/1999/xlink" x="0px" y="0px" width="141.731px" height="141.731px" viewBox="0 0 141.731 141.731" enable-background="new 0 0 141.731 141.731" xml:space="preserve">
<g id="Ebene_1_1_">
	<path fill="#FFFFFF" d="M70.866,141.731c39.138,0,70.865-31.729,70.865-70.865C141.731,31.728,110.004,0,70.866,0   C31.727,0,0,31.728,0,70.866C0,110.003,31.727,141.731,70.866,141.731L70.866,141.731z"/>
	<path fill="#0361AA" d="M71.08,3.982c-36.803,0-66.637,29.834-66.637,66.638c0,5.126,0.578,10.117,1.675,14.915l0,0   c2.188,9.569,6.438,18.354,12.255,25.86c12.188,15.733,31.265,25.861,52.707,25.861c21.443,0,40.521-10.129,52.709-25.861v-0.001   c5.815-7.508,10.065-16.294,12.254-25.863c1.096-4.794,1.675-9.785,1.675-14.912C137.718,33.816,107.883,3.982,71.08,3.982z    M127.887,85.535c-2.478,9.686-7.416,18.629-14.252,25.86h-0.003c-5.093,5.393-11.241,9.83-18.211,12.916   c-18.254,9.207-43.954,5.926-59.487-6.085c-2.815-2.104-5.399-4.391-7.742-6.835l0,0v-0.001   c-7.105-7.414-11.991-16.273-14.419-25.854l0,0c-2.345-9.254-2.393-19.18,0.065-29.118c4.563-20.416,24.178-39.952,44.995-43.395   c25.54-5.203,51.241,6.485,63.811,29.703c1.36,2.483,2.496,4.854,3.218,7.576h-28.96c0,0,0-18.347,0.022-18.461   c-0.369-5.198-2.052-9.737-7.587-12.173c-8.405-3.684-17.372-4.323-27.062-2.882c-5.924,1.122-12.397,3.416-17.44,6.697v62.052   h0.001h-0.001v25.859l0.001,0.001h-0.001v6.445c7.206,5.524,16,7.111,25.528,7.433c8.807-0.08,17.854-0.961,23.617-8.326   c1.256-1.657,2.065-3.544,2.535-5.551h-0.001l0.001-0.001c0.279-1.192,0.438-2.428,0.498-3.683l-0.059-15.033   c0,0-3.868,0.08-6.59,0v-7.146V70.663l39.322,0.006C129.741,75.728,129.118,80.724,127.887,85.535z"/>
	<path id="_x34_" fill="#FFFFFF" d="M83.798,111.396v8.843h-5.375l0.007-8.843l-0.007-0.001h0.007v-0.335l-10.213,0.01   c0,0.134,4.55-18.851,6.151-25.532h0.001c0.341-1.429,0.549-2.294,0.549-2.294h5.687c-0.01,0.021-0.222,0.896-0.558,2.292   c-1.376,5.695-4.817,20.065-4.817,20.065l3.454,0.033l-0.027-5.904H83.8v5.871h3.271v5.469l-3.271-0.026v0.353H83.798z"/>
	<path id="_x30_" fill="#FFFFFF" d="M66.484,111.396V89.529c-0.109-1.635-0.849-2.974-1.719-3.994l0,0   c-0.599-0.702-1.259-1.254-1.816-1.646c-2.316-1.628-6.29-1.591-8.35,0c-0.609,0.303-1.291,0.896-1.886,1.647h-0.001h0.001   c-0.89,1.124-1.589,2.604-1.589,3.991v21.867l-0.001,0.001h0.002v2.575c0,2.317,1.703,4.433,3.779,5.766   c2.42,1.512,5.307,1.479,7.727-0.032c2.025-1.097,3.854-3.101,3.854-5.732L66.484,111.396L66.484,111.396z M61.379,111.396   L61.379,111.396v1.84c0.06,1.112-1.022,2.475-2.466,2.411c-1.502,0.062-2.705-1.36-2.586-2.411v-1.84l0,0V90.05   c0.085-0.879,0.843-2.227,2.524-2.227c1.685,0,2.541,1.409,2.526,2.35L61.379,111.396L61.379,111.396z"/>
	<path id="s" fill="#FFFFFF" d="M82.188,22.584L82.188,22.584c0.366-0.544,1.71-2.437,1.606-2.448c0.006,0.12,2.726-0.063,2.635,0   v17.857c0.002-0.041-4.228,0.007-4.216,0c-0.28-3.269-1.053-8.384-4.884-9.771c-1.494-0.572-3.728-0.626-5.128-0.137   c-1.775,0.898-3.066,2.316-3.16,4.031l0.254,2.722c5.045,8.332,11.304,16.257,16.628,24.509c1.868,5.719,0.747,12.582-4.391,16.83   c-4.766,4.248-11.771,5.392-18.311,4.085c-2.429-0.408-4.985-1.833-6.539-2.533c-0.027,0.011-1.535,2.442-1.535,2.327   c-0.059,0.126,0,0.077-4.025,0.103V61.265l5.686-0.007c0.895,2.837-0.406,9.69,5.387,11.08c2.147,0.326,3.736,0.082,5.418-0.899   c1.494-1.225,2.521-2.694,2.335-4.572l-0.654-2.207L53.506,41.621c-2.896-6.455-0.374-13.972,5.512-18.545   c4.392-3.104,9.996-4.494,15.977-3.432C77.516,20.297,80.039,21.195,82.188,22.584"/>
</g>
<g id="Ebene_2">
</g>
</svg>