<?xml version="1.0" encoding="UTF-8"?>
<!-- Generator: Adobe Illustrator 17.1.0, SVG Export Plug-In . SVG Version: 6.00 Build 0)  -->
<!DOCTYPE svg PUBLIC "-//W3C//DTD SVG 1.1//EN" "http://www.w3.org/Graphics/SVG/1.1/DTD/svg11.dtd">
<svg version="1.1" id="Ebene_1" xmlns="http://www.w3.org/2000/svg" xmlns:xlink="http://www.w3.org/1999/xlink" x="0px" y="0px" viewBox="0 0 141.7 141.7" enable-background="new 0 0 141.7 141.7" xml:space="preserve">
<g>
	<path fill="#FFFFFF" d="M8.7,1.2v2.5c0,1.4,0,2.8,0,4.2c0,5.5-0.1,11.6,0.1,18.2c0.3,11.2,1,24.1,4.2,35.4c4,14.1,9.7,26.5,17.7,38   c9.5,13.8,22.6,27.1,39,39.5l1.5,1.2l1.5-1.2c16.4-12.4,29.4-25.6,39-39.5c7.9-11.5,13.7-23.8,17.7-38c3.4-12,4-25.2,4.2-35.4   c0.1-4.5,0.1-8.6,0.1-12.6c0-3.5,0-6.7,0-9.7V1.1H131H11.3L8.7,1.2L8.7,1.2L8.7,1.2z"/>
	<path fill="#FFDD09" stroke="#010202" stroke-width="5" stroke-miterlimit="10" d="M88,70.6"/>
	<path fill="#FFDD09" stroke="#010202" stroke-width="5" stroke-miterlimit="10" d="M126.7,93.5"/>
	<path fill="#D41027" d="M71.1,137.1c-17.4-13.2-29.6-26.2-38.4-38.9c-8.9-12.9-14-25.4-17.3-37.2c-3.1-11-3.8-23.3-4.1-34.9   c-0.2-8.2-0.1-15.7-0.1-22.2l0,0h119.6l0,0c-0.1,6.7,0.1,14.1-0.1,22.2c-0.2,11.6-1,23.9-4.1,34.8c-3.3,11.8-8.3,24.3-17.3,37.2   C100.7,110.9,88.4,123.9,71.1,137.1L71.1,137.1z"/>
	<path fill="#FFFFFF" d="M13.8,6.1c0.5,31.7-6.7,79.1,57.4,127.8c64-48.7,56.9-96.2,57.4-127.8l0,0L13.8,6.1L13.8,6.1z"/>
	<path fill="#D41027" d="M95.4,70.8l1.7-0.2l0,0c0.1,0.4,0.2,0.7,0.4,1c0.2,0.2,0.5,0.3,0.8,0.3c0.4,0,0.7-0.1,0.9-0.4   s0.4-0.6,0.4-1.1c0-0.4-0.1-0.8-0.3-1c-0.2-0.3-0.5-0.4-0.8-0.4c-0.2,0-0.5,0-0.8,0.1l0,0l0.2-1.4l0,0c0.5,0,0.8-0.1,1.1-0.3   c0.2-0.2,0.4-0.5,0.4-0.8c0-0.3-0.1-0.5-0.3-0.7c-0.2-0.2-0.4-0.3-0.7-0.3c-0.3,0-0.5,0.1-0.7,0.3c-0.2,0.2-0.3,0.5-0.4,0.9l0,0   l-1.6-0.3l0,0c0.1-0.5,0.3-1,0.5-1.3c0.2-0.3,0.5-0.6,0.9-0.8s0.8-0.3,1.3-0.3c0.8,0,1.5,0.3,2,0.8c0.4,0.4,0.6,0.9,0.6,1.5   c0,0.8-0.4,1.4-1.3,1.9c0.5,0.1,0.9,0.4,1.2,0.7c0.3,0.4,0.5,0.8,0.5,1.4c0,0.8-0.3,1.5-0.9,2c-0.6,0.6-1.3,0.8-2.1,0.8   c-0.8,0-1.5-0.2-2-0.7C95.8,72.1,95.5,71.5,95.4,70.8L95.4,70.8z M92.4,67.4c0-0.6-0.1-1-0.4-1.3s-0.5-0.5-0.9-0.5   c-0.3,0-0.6,0.1-0.8,0.4S90,66.7,90,67.2c0,0.6,0.1,1,0.3,1.3c0.2,0.3,0.5,0.4,0.9,0.4c0.3,0,0.6-0.1,0.8-0.4   C92.3,68.3,92.4,67.9,92.4,67.4L92.4,67.4z M88.5,71.1l1.7-0.2l0,0c0,0.3,0.1,0.6,0.3,0.7c0.2,0.2,0.4,0.2,0.7,0.2   c0.4,0,0.7-0.2,0.9-0.5c0.2-0.3,0.4-1,0.5-2c-0.4,0.5-1,0.7-1.6,0.7c-0.7,0-1.3-0.3-1.8-0.8c-0.5-0.5-0.8-1.2-0.8-2.1   c0-0.9,0.3-1.6,0.8-2.2c0.5-0.6,1.2-0.8,2.1-0.8s1.6,0.3,2.2,1.1c0.6,0.7,0.9,1.9,0.9,3.5c0,1.6-0.3,2.8-0.9,3.5   c-0.6,0.7-1.4,1.1-2.4,1.1c-0.7,0-1.3-0.2-1.7-0.6C88.9,72.4,88.7,71.8,88.5,71.1L88.5,71.1z M49,70.5c0,0.5,0.1,0.8,0.4,1.1   c0.2,0.3,0.5,0.4,0.9,0.4s0.6-0.1,0.9-0.4c0.2-0.3,0.3-0.6,0.3-1.1c0-0.4-0.1-0.8-0.4-1c-0.2-0.3-0.5-0.4-0.9-0.4s-0.7,0.1-0.9,0.4   C49.1,69.9,49,70.2,49,70.5L49,70.5z M49.1,66.7c0,0.3,0.1,0.6,0.3,0.8s0.5,0.3,0.8,0.3c0.3,0,0.6-0.1,0.8-0.3   c0.2-0.2,0.3-0.5,0.3-0.8c0-0.3-0.1-0.6-0.3-0.8s-0.4-0.3-0.8-0.3c-0.3,0-0.6,0.1-0.8,0.3C49.2,66.1,49.1,66.4,49.1,66.7L49.1,66.7   z M48.8,68.4c-0.4-0.2-0.8-0.4-1-0.8c-0.2-0.3-0.3-0.7-0.3-1.1c0-0.7,0.2-1.2,0.7-1.7c0.5-0.4,1.1-0.7,2-0.7c0.8,0,1.5,0.2,2,0.7   c0.5,0.4,0.7,1,0.7,1.7c0,0.4-0.1,0.8-0.3,1.1s-0.5,0.6-0.9,0.7c0.5,0.2,0.9,0.5,1.1,0.9c0.3,0.4,0.4,0.8,0.4,1.3   c0,0.8-0.3,1.5-0.8,2c-0.5,0.5-1.2,0.8-2.1,0.8c-0.8,0-1.5-0.2-2-0.6c-0.6-0.5-1-1.2-1-2.1c0-0.5,0.1-0.9,0.4-1.3   C48,68.9,48.3,68.6,48.8,68.4L48.8,68.4z M44.8,73.1h-1.7v-6.4l0,0c-0.6,0.6-1.4,1-2.2,1.3l0,0v-1.6l0,0c0.4-0.1,0.9-0.4,1.5-0.8   c0.5-0.4,0.9-0.9,1.1-1.4l0,0h1.4L44.8,73.1L44.8,73.1z"/>
	<path fill="#D41027" d="M102.2,11.4c-4.7-2-9.6-1.9-13.2,0.2c-3.2,1.8-5.4,5.2-5.4,10c-0.1,1-0.3,2-0.7,3l0,0l0,0l0,0   c-1.6,2.6-4.2,5.2-7.1,5c-0.5-2.6-2.3-6.2-4-8.4c1.8,0.1,4.8,2,5.4,3.4c1.5-1.6,3.6-5.6,3.1-8.8c-2.9,0-5.8-0.7-8.7-1.9   c0,2-3.5,6.7-5.8,7.7c1.2,1.8,2.2,5.6,2.2,9c-1.8,1.5-4.1,1.7-6,1.7c-1.4-2.2-3.4-3.9-3.4-6.7c0-2.9,2.9-7,6-9.7l0,0L63.2,14l0,0   c-1.9,0.7-3.6,1.8-5.1,3.3l-0.1-0.1l0,0c-1.8-2.6-4.8-7.1-9.1-8.1c-1.3,0.4-3,3.1-4.3,5.8c-4.8,1-8.4,4.4-10,7.2   c-1.6-1.4-2.8-2.8-2.9-4.6c-0.2-4.9,6.2-4.1,9.3-2.7l0,0v-3.6l0,0c-4.7-2-9.6-1.9-13.2,0.2c-3.2,1.8-5.4,5.2-5.4,10   c0,3.3-2.1,6-6.4,7.3c1.9,0.8,4.5,0.2,7.8-0.8c-1.7,2.4-3.7,3.6-7.8,4.5c2.6,0.9,6.7,0.5,10.3-0.7c-1,2.1-4.1,3.9-10,4.6   c5.2,1.7,7.6,1.2,13-0.4c7.4-2.2,12.3,3.9,3.6,6c-2.1,0.5-4.7-0.4-7.2-1.5l0,0l-2.5,3l0,0c3.4,1.8,9.2,3.2,12,3.1   c8.5-0.2,12-6.8,9.9-13.6c-1.4-4.3-5.2-6.8-8.4-9.1c2.9-3.9,13.1-8.3,16.7,0.7c-1.6,3.9-2.4,7.9-2.2,11c0.3,5.5,5.9,10.5,2.3,13.2   c-0.9,0.6-3.1,1.5-4.8,2.1c-7.3-0.4-11.9-4.3-17.5-4.5c-4.3-0.2-7.6,0.2-9.7,3.4c-3.1,4.5-0.3,12,6.5,12.2c0.1-2.7,0.7-4.1,1.2-5.1   c-2.1,0-6.7,0.4-6.7-2.7c0-1.5,1.3-2,2.8-2.1C32.8,51.7,39.3,61.4,48,62c0.1-4.4,6.5-9.4,11.4-6c2.4-3.5,2-6.6,0.5-9   c2.6-2.9,3.8-6.2,3.8-9.5c0-0.9-0.1-1.6-0.3-2.3c1.6-0.2,3.7-0.8,4.7-1.5l0,0V65l0,0c1.5-0.2,1.9-0.5,3.2-1.5l0,0v-5.2l0,0   c1.5-0.2,3.1-0.3,4.7-1.6l0,0V32.8l0,0c2.8-0.1,6.8-1.6,9.4-4.5l0,0c-0.8,2.9-3,5.4-7.1,6.3c3.1,1,6.8-0.2,9.7-2.3   c-0.7,2.1-3.7,5.5-9.4,6.2c5.2,1.7,7.2-0.1,12.6-1.7c7.4-2.2,11.9,3.5,3.2,5.6c-2.1,0.5-4.7-0.4-7.2-1.5l0,0l-2.5,3l0,0   c3.4,1.8,9.2,3.2,12,3.1c8.2-0.2,11.8-6.5,10.1-13c7.3,0.5,13.2,12.8,7,16.1c-2.5,1.3-4.7,0.9-7,0.4c-5.5-1.1-9.4-3.6-14.1-3.8   c-4.3-0.2-7.6,0.2-9.7,3.4c-3.1,4.5-0.3,12,6.5,12.2c0.1-2.7,0.7-4.1,1.2-5.1c-2.1,0-6.7,0.4-6.7-2.7c0-1.5,1.3-2,2.8-2.1   c7.4-0.2,13.9,9.5,22.5,10.1c0.1-4.4,6.5-9.4,11.4-6c2.5-3.6,2-6.7,0.4-9.2c2.7-3.5,4.4-7.1,3.9-10.1c-0.4-5.1-4.9-6.7-4.9-10.9   c0-2.9,2.9-7,6-9.7l0,0l-1.5-1.9l0,0c-1.9,0.6-3.7,1.7-5.2,3.1c-1.8-2.6-4.8-7-9.1-8.1c-1.3,0.4-3,3.1-4.3,5.8   c-4.8,1-8.4,4.3-10,7.1c-1.9-1.6-4.4-4.9-2-7.1c1.9-1.8,6.1-1.1,8.3,0l0,0L102.2,11.4L102.2,11.4z M105.1,29.6   c-1.8-2.8-5-4.8-7.4-6.3c1.7-2.3,6.1-5,9.9-4.9c5.6,0.1,10,6.7,4.8,10.6C111.1,30,109.1,30,105.1,29.6L105.1,29.6z"/>
	<path fill="#010202" d="M71.1,131C48.7,114,35.4,97.1,27.4,80.7c20.6-0.6,34.1-6.6,43.7-13.8c11.3,7.8,26.2,14.2,43.7,13.8   C106.7,97.1,93.5,114,71.1,131L71.1,131z"/>
	<path fill="#FFDD09" d="M71.1,127.9C50.9,112.5,39.3,97.7,31.8,83c15.3-1.3,29-5.5,39.3-13.1c10.3,7.5,24,11.8,39.3,13.1   C102.8,97.8,91.4,112.5,71.1,127.9L71.1,127.9z"/>
	<path fill="#010202" d="M63.3,110.5c0.7-0.1,1.4-0.2,2.1-0.3c-2.1-4.1,0.7-7.5,4.5-7.5c-2.9,2.7-2.8,5.7-0.7,7.2   c1.4-0.1,1.7-0.2,3.1-0.2c-2.5-3.7,0.3-6.8,4-7.2c-1.8,1.8-2.7,5.1-0.5,7.1c1.3,0,1.9,0,3.2,0c-1.4-3.8,1.4-6.2,4.6-6.3   c-1.7,1.5-3,4.6-1,6.6c1,0.2,2,0.2,3.6,0.7c1.1,0.5,1.9,1.4,2.2,2.1c-13.2-1.6-15.2-1.2-24.8,0.4c-4,2.1-5.8,2.6-7.7,0.8   c-0.3-0.5-0.1-1.8,1.3-2.1c0-0.9,0.6-1.4,1.4-1.6C60.1,109.5,61,111,63.3,110.5L63.3,110.5z M57.4,99c0.7-0.1,1.5-0.2,2.3-0.3   c-2.5-4.1,0.3-8,4.3-8.1c-2.8,3.2-2.5,6-0.3,7.7c1.5-0.1,3-0.2,4.5-0.3c-3-3.5,0.5-7.5,4.5-8c-1.9,2.1-3.2,5.5-0.8,7.8   c1.4,0,2.7-0.1,4.1,0c-2-3.9,1.5-7,4.9-7.1c-1.8,1.8-3.2,5-1,7.2c1.4,0.1,2.8,0.1,4.2,0.2c-1.3-2.8,0.5-5,4-5.7   c-1.5,1.6-2.3,3.9-0.8,6c1.9,0.2,4.1,1.1,5.7,1.4c1.6,0.9,2.1,1.2,3.3,2.1c-15-2.3-30.9-1.8-38.7-0.1c-4.3,2.4-6.2,3-8.3,0.9   c-0.4-0.6-0.1-2,1.4-2.4c0-1.8,1.5-1.9,3.1-1.9C54.7,99.6,56,99.4,57.4,99L57.4,99z M52.3,88.3c0.9-0.1,2.5-0.6,3.4-0.7   c-2.8-5.2,1-10.4,6.1-9.9c-3.8,3.5-4.1,7.1-1.3,9.1c1.8-0.1,3.1-0.4,4.9-0.5c-2.8-4.4,0.7-10,5.4-9.5c-2.6,2.4-3.6,6.8-0.7,9.4   c1.7,0,3.4-0.1,5,0c-1.9-4.8,1.7-9.7,6.7-8.2c-2.6,0.8-4.7,5.8-2,8.3c1.8,0.1,3.5,0.2,5.2,0.3c-1.1-3.7,1-7.5,5.7-6.1   c-2.2,1.5-3.7,4.2-1.9,6.4c2.3,0.3,5.1,0.8,7,1.2c2,0.9,3.7,2.4,4.5,2.8c-18.2-2.5-35.5-2.2-47.6,0.2c-5.3,2.6-8,3.2-10.6,0.9   c-0.5-0.6-0.1-2.3,1.7-2.6c0-2,1.9-2.1,3.8-2.1C49.1,88.5,50.6,88.7,52.3,88.3L52.3,88.3z"/>
</g>
</svg>