<?xml version="1.0" encoding="UTF-8"?>
<!-- Generator: Adobe Illustrator 15.1.0, SVG Export Plug-In . SVG Version: 6.00 Build 0)  -->
<!DOCTYPE svg PUBLIC "-//W3C//DTD SVG 1.1//EN" "http://www.w3.org/Graphics/SVG/1.1/DTD/svg11.dtd">
<svg version="1.1" id="Ebene_1" xmlns="http://www.w3.org/2000/svg" xmlns:xlink="http://www.w3.org/1999/xlink" x="0px" y="0px" width="141.731px" height="141.732px" viewBox="0 0 141.731 141.732" enable-background="new 0 0 141.731 141.732" xml:space="preserve">
<g>
	<path fill="#51B848" d="M0,70.786C1.42,26.771,31.843,9.117,51.699,2.866c9.083-2.859,16.856-3.247,16.823-2.212   c-0.028,0.902-6.84,0.151-16.479,3.63c-16.803,6.067-40.6,21.164-42.046,59.785c0,35.523,28.816,64.32,64.364,64.32   c35.549,0,64.362-28.797,64.362-64.32c0.097-7.59-1.278-13.602-2.992-18.786c-3.021-9.131-7.54-13.255-5.845-13.292   c1.146-0.026,5.288,7.038,7.729,13.727c2.84,7.786,4.152,14.856,4.114,25.068c0,39.114-31.729,70.815-70.866,70.815   S0,109.9,0,70.786L0,70.786z"/>
	<path fill="#51B848" d="M63.813,48.493c0-12.597,20.648-11.401,20.648-11.401v44.912c0,3.143,1.989,5.022,5.559,5.022   c5.707,0,5.323-5.022,5.323-5.022c0,3.143-0.029-32.637-0.029-46.204c0-11.276,20.521-11.276,20.521-11.276v59.775l-0.087,3.716   c-1.746,11.284-11.521,19.912-23.078,19.912c-7.591,0-14.326-3.72-18.555-9.474c-4.223,5.754-10.96,9.474-18.551,9.474   c-11.556,0-21.136-8.628-22.881-19.912l-0.285-3.716c0,0-0.017-32.963-0.017-48.5c0-11.276,20.543-11.276,20.543-11.276   s-0.008,57.445-0.008,57.493c0,3.174,2.257,5.011,5.315,5.011c3.033,0,5.609-1.928,5.609-5.011   C63.844,82.016,63.813,59.074,63.813,48.493L63.813,48.493z"/>
</g>
</svg>