<?xml version="1.0" encoding="utf-8"?>
<!-- Generator: Adobe Illustrator 14.0.0, SVG Export Plug-In . SVG Version: 6.00 Build 43363)  -->
<!DOCTYPE svg PUBLIC "-//W3C//DTD SVG 1.1//EN" "http://www.w3.org/Graphics/SVG/1.1/DTD/svg11.dtd">
<svg version="1.1" id="Layer_1" xmlns="http://www.w3.org/2000/svg" xmlns:xlink="http://www.w3.org/1999/xlink" x="0px" y="0px"
	 width="91.168px" height="125.683px" viewBox="54.419 17.36 91.168 125.683" enable-background="new 54.419 17.36 91.168 125.683"
	 xml:space="preserve">
<path fill="#FFD75F" d="M137.738,80.245c-0.971-2.578-3.5-5.562-5.885-6.939l-8.435-4.869l0,0l-2.569-1.483v5.542l6.093,3.517l0,0
	l2.509,1.45c0.88,0.509,1.915,1.531,2.709,2.598c0.477,0.642,0.867,1.301,1.083,1.874c0.075,0.2,7.538,20.231,7.538,32.077
	c0,0.58-0.104,1.215-0.248,1.87c-0.967,4.356-4.869,10.12-8.433,14.602c-1.886,2.372-3.669,4.384-4.856,5.627
	c-1.066,1.115-3.441,2.132-4.982,2.132h-18.209c-1.156,0-2.6-1.035-2.97-2.132l-10.144-30.077h0.002l-6.583-19.51l-0.776-2.301
	c-0.103-0.304-0.199-0.587-0.29-0.854l-0.981-2.909l-0.143-0.413c-0.699-2.578,0.328-5.336,2.586-6.827
	c1.39-0.918,3.054-1.238,4.682-0.906c1.632,0.334,3.035,1.285,3.955,2.675l19.803,29.997l2.003-1.321l0,0l2.002-1.322l-0.505-0.763
	l-5.699-8.633l-1.584-2.4h6.266c1.53,0,2.773-1.243,2.773-2.772v-67.64c0-1.53-1.244-2.773-2.773-2.773H69.819
	c-1.53,0-2.773,1.243-2.773,2.773v67.634c0,1.529,1.245,2.772,2.773,2.772h10.817l0.812,2.4l3.597,10.643l-8.112,8.112
	c-0.955,0.955-2.224,1.479-3.574,1.479c-1.349,0-2.616-0.524-3.57-1.477c-0.955-0.955-1.48-2.224-1.48-3.574
	c0-1.35,0.525-2.617,1.48-3.571l4.325-4.328l7.283-7.285h-0.002h-6.786l-2.973,2.974l-3.795,3.797c-1.911,1.911-5.235,1.913-7.146,0
	c-0.954-0.952-1.477-2.221-1.477-3.571c0-1.352,0.525-2.621,1.477-3.573l4.029-4.027c-0.038-0.254-0.078-0.507-0.078-0.771v-5.936
	l-7.344,7.342c-1.861,1.859-2.883,4.333-2.883,6.966c0,2.634,1.024,5.107,2.883,6.967c1.739,1.738,4.015,2.736,6.453,2.862
	c-0.155,0.7-0.243,1.421-0.243,2.157c0,2.631,1.024,5.106,2.886,6.967c1.859,1.859,4.333,2.884,6.963,2.884l0,0
	c1.29,0,2.539-0.249,3.699-0.718c0.31,2.066,1.257,3.976,2.763,5.479c1.859,1.862,4.333,2.888,6.966,2.888
	c1.866,0,3.646-0.524,5.192-1.488l4.555,13.508c1.021,3.027,4.324,5.396,7.519,5.396h18.213c2.848,0,6.48-1.553,8.452-3.614
	c1.521-1.592,14.866-15.833,14.866-25.416C145.582,101.291,138.059,81.101,137.738,80.245z M77.753,82.005l1.263,3.734h-7.17V22.16
	h41.805v63.579h-7.408l-8.848-13.402c-1.625-2.46-4.11-4.141-6.997-4.732c-2.886-0.594-5.832-0.022-8.291,1.602
	C77.904,71.982,76.114,77.245,77.753,82.005z M90.36,119.342c-1.909,1.909-5.235,1.911-7.144,0c-0.954-0.953-1.48-2.221-1.478-3.567
	c0-1.349,0.526-2.618,1.481-3.573l3.541-3.541L90.36,119.342L90.36,119.342z"/>
</svg>
