<?xml version="1.0" encoding="UTF-8"?>
<!-- Generator: Adobe Illustrator 15.1.0, SVG Export Plug-In . SVG Version: 6.00 Build 0)  -->
<!DOCTYPE svg PUBLIC "-//W3C//DTD SVG 1.1//EN" "http://www.w3.org/Graphics/SVG/1.1/DTD/svg11.dtd">
<svg version="1.1" id="Ebene_1" xmlns="http://www.w3.org/2000/svg" xmlns:xlink="http://www.w3.org/1999/xlink" x="0px" y="0px" width="141.732px" height="141.732px" viewBox="0 0 141.732 141.732" enable-background="new 0 0 141.732 141.732" xml:space="preserve">
<g>
	<polygon fill="#00A664" points="70.804,0 24.094,70.591 70.804,141.732 117.639,70.591 70.804,0  "/>
	<polygon fill="#FFFFFF" points="70.806,4.069 26.775,70.606 70.806,137.664 114.948,70.606 70.806,4.069  "/>
	<polygon fill="#00A664" points="70.806,8.92 30.368,70.606 70.806,132.292 111.245,70.606 70.806,8.92  "/>
	<path fill="#FFFFFF" d="M45.578,61.136c0-3.373,0.394-7.88,2.5-12.097c1.434-2.874,4.146-5.739,8.347-5.517   c1.527,0.081,6.172,1.172,6.207,6.391c0.012,2.436-1.441,6.891-7.956,6.891c0,0-0.809,6.515-0.809,9.911   c0,3.02,0.061,16.574,5.013,27.231L70.725,67.38L82.01,94.012c0,0,4.771-11.848,4.771-22.029c0-10.035-2.768-16.801-5.083-20.384   c-3.309-5.125-7.566-6.905-9.534-6.766c0,0-2.133,2.106-5.393,1.875c-3.968-0.283-6.398-3.121-6.449-6.83   c-0.049-3.081,2.012-6.518,5.139-8.537c2.94-1.899,8.17-1.719,11.535-0.661c5.421,1.703,10.066,7.665,12.468,12.001   c2.271,4.098,4.649,12.311,4.666,23.035c0.019,8.92-3.197,22.491-7.287,32.813c-4.001,10.094-6.358,14.224-6.358,14.224   l-9.758-19.901l-9.658,19.92c0,0-9.264-19.76-11.719-28.795C46.89,74.94,45.578,64.343,45.578,61.136L45.578,61.136z"/>
</g>
</svg>